<svg width="102" height="102" viewBox="0 0 102 102" fill="none" xmlns="http://www.w3.org/2000/svg">
<circle cx="51" cy="51" r="51" fill="#F4EFE2"/>
<path d="M50.12 75.56C49.08 75.56 48.44 74.76 48.44 73.96C48.44 73.32 48.44 72.04 48.44 70.44C43.72 69.8 39.24 67.72 35.8 63.16C35.16 62.28 35.24 61.24 36.04 60.6C36.84 59.96 37.96 60.2 38.6 61C41.24 64.52 44.92 66.36 48.44 66.92C48.44 62.68 48.6 57.08 48.6 51.56C43.32 49.48 39.88 47.08 38.6 44.2C37.56 41.96 37.32 39.08 38.68 36.52C40.36 33.32 44.44 31.72 48.84 31.24C48.84 29.4 48.92 28.2 48.92 27.8C48.92 26.76 49.8 26.04 50.84 26.04C51.88 26.04 52.68 27 52.68 28.04C52.68 28.44 52.68 29.72 52.68 31.32C56.76 31.72 61.56 33.08 63.64 37.24C64.04 38.04 63.8 39.32 63 39.72C62.2 40.12 61 39.8 60.52 39.08C58.92 36.6 55.8 35.08 52.52 34.68C52.52 38.6 52.28 43.8 52.28 48.92C52.52 48.92 52.76 49.08 52.92 49.08C58.28 50.76 65.64 52.92 64.44 61.64C63.88 65.32 60.76 68.2 56.12 69.72C54.92 70.12 53.56 70.44 51.88 70.52C51.88 72.12 51.88 73.08 51.8 73.96C51.8 74.76 51.16 75.56 50.12 75.56ZM41.88 42.84C42.92 44.68 44.92 46.2 48.6 47.64C48.6 42.92 48.84 38.2 48.84 34.52C46.44 34.6 42.84 35.88 41.8 37.88C41.08 39.32 40.84 41.08 41.88 42.84ZM60.76 61.24C61.32 56.04 58.44 54.36 52.12 52.52C52.12 57.88 51.88 63.24 51.88 67.08C52.92 67.08 53.96 66.92 54.76 66.68C57.88 65.88 60.44 63.64 60.76 61.24Z" fill="#12321A"/>
</svg>
