<svg width="102" height="102" viewBox="0 0 102 102" fill="none" xmlns="http://www.w3.org/2000/svg">
<circle cx="51" cy="51" r="51" fill="#F4EFE2"/>
<path d="M59.81 72.4C60.35 73.39 60.08 74.65 59.45 75.28C58.82 76 57.11 75.91 56.21 74.65C50.45 66.46 44.96 59.8 44.78 59.35C41.63 60.25 38.39 60.7 35.24 60.7C35.24 65.38 35.24 69.97 35.24 73.75C35.24 74.83 34.43 76 33.08 76C31.55 76 31.01 74.83 31.01 73.75C31.01 66.01 31.01 55.21 31.01 46.3C31.01 41.71 30.83 37.21 30.83 34.15C30.83 33.52 31.28 32.98 31.91 32.62C35.69 30.37 44.6 29.83 49.82 33.07C52.7 34.78 56.3 38.29 56.3 44.77C56.3 49.63 54.95 52.78 52.07 55.66C51.17 56.56 49.82 57.37 48.74 58C48.74 58 58.64 70.06 59.81 72.4ZM35.24 57.37C38.57 57.19 45.41 56.74 49.19 52.96C51.17 50.98 52.16 48.1 52.07 44.32C51.98 40.54 50.27 37.66 47.3 36.04C43.34 33.88 38.12 34.15 35.06 35.23C35.06 38.38 35.24 42.07 35.24 46.3C35.24 49.9 35.24 53.59 35.24 57.37ZM74.4477 68.71C73.1877 68.71 72.3777 67.72 72.2877 66.28C72.1977 64.39 72.3777 57.19 72.3777 57.19C69.3177 57.28 66.9777 57.46 64.7277 57.46C63.6477 57.46 62.7477 56.56 62.7477 55.39C62.7477 54.31 63.4677 53.68 64.5477 53.5C66.3477 53.32 69.0477 53.23 72.4677 53.14L72.6477 43.69C72.6477 42.61 73.5477 41.71 74.8077 41.71C76.1577 41.71 76.9677 42.61 76.9677 43.69V52.96C80.6577 52.87 83.3577 52.78 83.9877 52.78C85.0677 52.78 85.9677 53.5 85.9677 54.85C85.9677 56.2 85.2477 56.65 83.9877 56.83C83.5377 56.83 80.4777 56.83 76.9677 57.01V66.46C76.9677 67.54 75.6177 68.71 74.4477 68.71Z" fill="#12321A"/>
</svg>
