<svg width="66" height="81" viewBox="0 0 66 81" fill="none" xmlns="http://www.w3.org/2000/svg">
<path d="M29.6719 11.9818L17.7118 23.8798H10.6819C0.182596 23.8798 0 24.2459 0 40.3541C0 56.4622 0.182596 56.8283 10.6819 56.8283H17.7118L29.6719 68.7263C42.2711 81.1735 44.097 82.1803 47.475 78.7939C49.2097 77.055 49.301 75.7737 49.301 40.5371C49.301 9.05302 49.1184 3.83617 47.8402 2.09723C44.9187 -2.02133 42.5449 -0.739998 29.6719 11.9818ZM45.4665 39.8964C45.5578 63.418 45.3752 75.7737 44.7361 76.4143C44.097 77.055 39.806 73.394 31.0414 64.6078L18.2596 51.7945V40.3541V28.9136L30.7675 16.3749C37.7061 9.41911 43.7318 3.83618 44.2796 4.01923C44.8274 4.20227 45.2839 17.0156 45.4665 39.8964ZM14.6077 40.3541V53.2589L9.40371 52.9843L4.10842 52.7097L3.83452 41.3608C3.74323 35.0457 3.83452 29.3712 4.01712 28.7306C4.38231 27.9069 6.20828 27.5408 9.58631 27.5408H14.6077V40.3541Z" fill="#12321A"/>
<path d="M54.3222 29.3715C53.5918 30.5613 54.5961 32.1172 56.1482 32.1172C58.1568 32.1172 62.0826 37.5171 62.0826 40.3543C62.0826 43.1 58.1568 48.5915 56.1482 48.5915C54.87 48.5915 53.6831 50.8795 54.5048 51.7033C56.8786 54.0829 63.3607 49.2321 64.9128 43.9238C65.7345 41.1781 65.7345 39.5306 64.9128 36.7849C63.2694 31.202 56.2395 26.2597 54.3222 29.3715Z" fill="#12321A"/>
</svg>
