<svg width="102" height="102" viewBox="0 0 102 102" fill="none" xmlns="http://www.w3.org/2000/svg">
<circle cx="51" cy="51" r="51" fill="#F4EFE2"/>
<path d="M24.2552 70.5408L27.8259 63.9095L28.9975 61.4762C30.4184 58.525 31.3773 55.3729 31.8405 52.1303L31.8613 51.9848C32.0614 50.5844 32.1618 49.1716 32.1618 47.757V44.7256C32.1618 42.0781 32.7782 39.4669 33.9622 37.0989L34.0659 36.8915C35.3252 34.3729 37.2199 32.2266 39.5629 30.6646L42.85 28.4732C43.3646 28.1301 43.9691 27.9471 44.5876 27.9471V27.9471C46.3176 27.9471 47.72 26.5447 47.72 24.8147V23.2245C47.72 21.5656 48.5904 20.0284 50.0128 19.1749L50.2705 19.0203" stroke="#12321A" stroke-width="3.42857"/>
<path d="M52.8209 27.947V27.947C55.4818 27.947 58.0832 28.7347 60.2972 30.2107L60.978 30.6646C63.321 32.2265 65.2157 34.3728 66.475 36.8914L66.5787 37.0988C67.7627 39.4668 68.3791 42.078 68.3791 44.7255V47.757C68.3791 49.1716 68.4795 50.5844 68.6796 51.9848L68.7004 52.1303C69.1636 55.3728 70.1225 58.5249 71.5434 61.4761L72.715 63.9094L75.8808 69.7888C76.0638 70.1287 75.8177 70.5408 75.4317 70.5408H24.8669C24.478 70.5408 24.2321 70.123 24.421 69.783L26.5505 65.9498M52.8209 27.947V21.4445C52.8209 20.8721 52.5935 20.3231 52.1888 19.9184L51.7362 19.4658C50.9863 18.7159 49.7338 18.8586 49.1717 19.7579V19.7579C49.0552 19.9444 48.9771 20.1522 48.9421 20.3693L47.7199 27.947M52.8209 27.947H47.7199M47.7199 27.947L46.2598 28.0383C44.5344 28.1461 42.8548 28.6378 41.3436 29.4774V29.4774" stroke="#12321A" stroke-width="3.42857"/>
<path d="M44.0231 79.7744L43.6777 79.0405C43.6596 79.0019 43.6877 78.9575 43.7304 78.9575H57.5616C57.6092 78.9575 57.6397 79.0082 57.6174 79.0503L57.1337 79.9639C56.0257 82.057 53.9632 83.5006 51.6202 83.8455C50.9289 83.9473 50.2199 83.9492 49.5284 83.8493C47.1252 83.5023 45.057 81.9714 44.0231 79.7744Z" stroke="#12321A" stroke-width="3.42857"/>
</svg>
