<svg width="77" height="73" viewBox="0 0 77 73" fill="none" xmlns="http://www.w3.org/2000/svg">
<path d="M12.387 1.3608C11.1315 2.03036 9.7087 3.87167 9.12283 5.46188C8.45326 7.38689 7.28152 8.55862 5.27283 9.22819C0.334783 11.0695 0 12.7434 0 34.4206C0 55.4282 0.334783 57.4369 4.60326 59.3619C5.775 59.9478 8.70435 60.3662 11.0478 60.3662H15.3163L14.7304 63.0445C14.4793 64.551 13.2239 66.7271 12.0522 67.9825C9.625 70.4934 9.95978 72.0836 12.8891 72.0836C18.0783 72.0836 25.025 67.9825 27.787 63.2119L29.4609 60.3662H45.6978C64.0272 60.3662 66.1196 59.8641 67.8772 55.0934C68.5467 53.0847 69.7185 51.913 71.7272 51.2434C76.6652 49.4021 77 47.7282 77 26.1347C77 5.29449 76.6652 3.3695 72.7315 1.27711C69.3 -0.480507 15.6511 -0.396805 12.387 1.3608ZM71.9783 5.12711C73.5685 6.71732 73.6522 7.88906 73.6522 26.051C73.6522 44.213 73.5685 45.3847 71.9783 46.9749C71.0576 47.8956 69.9696 48.6488 69.4674 48.6488C68.9652 48.6488 68.6304 42.5391 68.6304 31.9097C68.6304 20.7782 68.2957 14.501 67.6261 13.0782C65.6174 8.72602 64.1946 8.47493 36.8261 8.47493C20.6728 8.47493 11.7174 8.14015 11.7174 7.63797C11.7174 7.1358 12.4707 6.04775 13.3913 5.12711C14.9815 3.53689 16.1533 3.45319 42.6848 3.45319C69.2163 3.45319 70.388 3.53689 71.9783 5.12711ZM63.6087 13.4967C65.1989 15.0869 65.2826 16.2586 65.2826 34.4206C65.2826 52.5825 65.1989 53.7543 63.6087 55.3445C62.0185 56.9347 60.8467 57.0184 44.8609 57.0184H27.787L25.5272 60.8684C23.6022 64.1325 19.25 67.8988 17.4087 67.8988C17.0739 67.8988 17.2413 66.8108 17.6598 65.4717C18.162 64.1325 18.413 61.7891 18.2457 60.1988L17.9946 57.4369L11.8848 57.0184C7.03043 56.6836 5.44022 56.2651 4.51957 55.0097C3.59891 53.6706 3.34783 49.4021 3.34783 34.2532C3.34783 16.2586 3.43152 15.0869 5.02174 13.4967C6.61196 11.9065 7.7837 11.8228 34.3152 11.8228C60.8467 11.8228 62.0185 11.9065 63.6087 13.4967Z" fill="#12321A"/>
</svg>
