<svg width="85" height="71" viewBox="0 0 85 71" fill="none" xmlns="http://www.w3.org/2000/svg">
<path d="M41.657 68.6564L59.4393 56.1429C62.7658 53.8021 65.8845 51.179 68.7607 48.3027L70.0619 47.0016C72.4944 44.569 74.6807 41.9022 76.589 39.0398L78.8213 35.6912C79.9153 34.0503 80.7856 32.2708 81.4093 30.3998L81.6991 29.5304C82.5561 26.9595 82.8264 24.2293 82.4903 21.5403V21.5403C82.2694 19.7731 81.7895 18.048 81.0662 16.4205L80.0243 14.0762C79.2005 12.2228 78.1116 10.499 76.7917 8.95908L76.5069 8.62681C74.6718 6.48586 72.3826 4.78079 69.8059 3.63557V3.63557C67.3795 2.5572 64.7539 2 62.0987 2H60.9837C58.7974 2 56.6219 2.3047 54.5197 2.90531V2.90531C52.7012 3.42488 50.952 4.1618 49.31 5.10013L49.0804 5.23133C46.9549 6.44589 45.0137 7.95775 43.3157 9.72112L41.4883 11.6188" stroke="#12321A" stroke-width="4"/>
<path d="M43.3438 68.6564L25.5615 56.1429C22.235 53.8021 19.1163 51.179 16.2401 48.3027L14.9389 47.0016C12.5064 44.569 10.3201 41.9022 8.41182 39.0398L6.17946 35.6912C5.08548 34.0503 4.21516 32.2708 3.5915 30.3998L3.30168 29.5304C2.44472 26.9595 2.17438 24.2293 2.51051 21.5403V21.5403C2.73141 19.7731 3.21123 18.048 3.93455 16.4205L4.9765 14.0762C5.80024 12.2228 6.88918 10.499 8.20912 8.95908L8.49393 8.62681C10.329 6.48586 12.6182 4.78079 15.1949 3.63557V3.63557C17.6213 2.5572 20.2469 2 22.9021 2H24.0171C26.2033 2 28.3789 2.3047 30.481 2.90531V2.90531C32.2995 3.42488 34.0487 4.1618 35.6908 5.10013L36.0223 5.28955C38.0816 6.46627 39.9748 7.91228 41.6518 9.58937L43.3438 11.2813" stroke="#12321A" stroke-width="4"/>
</svg>
