<svg width="72" height="71" viewBox="0 0 72 71" fill="none" xmlns="http://www.w3.org/2000/svg">
<path d="M11.0631 2.65185C9.75449 6.66694 9.87912 10.764 11.437 15.1888C12.4341 18.0567 12.6833 19.8594 12.3094 22.3176C11.624 28.1354 11.624 28.9548 12.621 28.9548C13.6804 28.9548 15.0513 24.4481 15.0513 20.5149C15.1136 19.04 14.5528 16.0901 13.805 14.0416C12.8079 11.1737 12.5587 9.37099 12.9326 6.91277C13.618 1.34079 13.618 0.439445 12.7456 0.111683C12.3094 -0.13414 11.5616 0.931091 11.0631 2.65185Z" fill="#12321A"/>
<path d="M22.7012 2.65185C21.2736 6.66695 21.4096 10.764 23.1091 15.1888C24.1968 18.0567 24.4687 19.8594 24.0608 22.3176C23.313 28.1354 23.313 28.9548 24.4007 28.9548C25.5564 28.9548 27.052 24.4481 27.052 20.5149C27.12 19.04 26.5081 16.0901 25.6924 14.0416C24.6047 11.1737 24.3328 9.37099 24.7406 6.91277C25.4884 1.3408 25.4884 0.439447 24.5367 0.111685C24.0608 -0.134138 23.2451 0.931091 22.7012 2.65185Z" fill="#12321A"/>
<path d="M34.2569 2.65185C32.8293 6.66694 32.9653 10.764 34.6648 15.1888C35.7525 18.0567 36.0244 19.8594 35.6165 22.3176C34.8687 28.1354 34.8687 28.9548 35.9564 28.9548C37.1121 28.9548 38.6076 24.4481 38.6076 20.5149C38.6756 19.04 38.0638 16.0901 37.248 14.0416C36.1603 11.1737 35.8884 9.37099 36.2963 6.91277C37.0441 1.34079 37.0441 0.439445 36.0924 0.111683C35.6165 -0.13414 34.8007 0.931091 34.2569 2.65185Z" fill="#12321A"/>
<path d="M64.0233 10.1712C63.5295 10.4165 58.1805 16.305 52.2555 23.1748L41.3929 36.2956L20.6553 36.4591L0 36.7045L0.0822921 41.9851C0.164584 52.4534 6.2542 61.5314 17.199 67.1745C20.5033 68.8971 24.1526 69.8548 27.8769 69.9767L35.7971 70.2358L43.3842 69.9876C47.3237 69.8587 51.1787 68.8114 54.642 66.9291C61.2253 63.4124 65.883 58.5054 68.7632 52.9441C70.6559 49.3456 71.5118 47.3828 71.5118 42.394L71.5941 36.7045L62.6243 36.4591L53.6544 36.2138L62.7889 26.5279C72.7462 16.5503 73.6514 14.7511 70.1129 11.4797C68.3024 9.76227 66.1628 9.35335 64.0233 10.1712ZM68.9938 14.225C69.1584 14.9611 68.9938 16.7373 59.6125 25.8737C52.5354 33.316 50.0727 35.8513 47.5648 35.8513C45.057 35.8513 46.3797 34.3792 55.1027 24.3198C64.6132 12.2945 68.3354 10.8719 68.9938 14.225ZM68.9115 43.6208C68.0886 52.0445 62.4104 59.4868 53.3583 64.2303C49.1614 66.4384 44.8348 67.8531 35.7971 67.8531C26.3897 67.8531 22.4327 66.8827 18.3181 64.7563C12.3931 61.6485 8.52538 57.6058 5.64516 52.6988C0.183732 43.3941 -0.329166 44.8586 33.5752 44.6132C59.4149 44.3679 63.3649 45.0929 63.3649 44.0297C63.3649 42.9665 59.3326 42.8029 33.1637 42.5576C3.53856 42.394 2.43577 42.9499 2.43577 40.7583C2.43577 38.5668 3.45627 38.6784 35.8794 38.6784L68.9608 39.1226L68.9115 43.6208Z" fill="#12321A"/>
</svg>
