<svg width="262" height="107" viewBox="0 0 262 107" fill="none" xmlns="http://www.w3.org/2000/svg">
<path d="M33.54 0.931641H39.5723V46H33.54V24.7832H6.36035V46H0.466797V0.931641H6.36035V23.2578H33.54V0.931641ZM82.1029 37.8877L82.8656 38.5117C79.6762 43.6426 74.9613 46.208 68.7211 46.208C63.9369 46.208 60.2621 44.6826 57.558 41.6318C54.9232 38.5811 53.6059 34.9062 53.6059 30.6074C53.6059 26.1699 55.0619 22.2871 58.0434 18.959C61.0248 15.5615 65.185 13.8975 70.4545 13.8975C78.4975 13.8975 82.8656 17.7803 82.5189 25.8926H60.1928C59.9848 26.7939 59.9154 27.834 59.9154 29.0127C59.9154 32.8955 61.0941 36.085 63.3822 38.6504C65.7396 41.1465 68.7904 42.3945 72.4652 42.3945C76.2094 42.3945 79.3988 40.8691 82.1029 37.8877ZM70.4545 15.4922C65.5316 15.4922 61.9262 19.2363 60.5395 24.4365L77.1801 23.9512V23.3271C77.1801 18.127 74.9613 15.4922 70.4545 15.4922ZM125.604 41.4238L126.228 42.0479C124.079 44.752 121.652 46.1387 118.948 46.1387C116.105 46.1387 114.164 44.1279 114.164 40.4531C109.934 44.2666 105.636 46.1387 101.267 46.1387C96.7605 46.1387 93.7791 43.7119 93.7791 39.7598C93.7791 36.709 95.6512 34.3516 99.326 32.6182C103.07 30.8848 107.993 29.9834 114.164 29.8447V23.7432C114.164 17.9189 112.153 15.4229 107.646 15.4229C103.417 15.4229 100.713 18.8203 100.713 22.7031C100.713 23.5352 100.851 24.2979 101.059 24.9219C98.0086 24.9219 96.3445 23.3965 96.3445 21.3857C96.3445 19.5137 97.4539 17.8496 99.6033 16.2549C101.753 14.6602 104.665 13.8975 108.34 13.8975C116.105 13.8975 119.988 17.4336 119.988 24.5059V38.9277C119.988 41.9785 121.513 44.8213 125.604 41.4238ZM99.742 38.0957C99.742 41.0078 101.475 42.4639 104.942 42.4639C107.924 42.4639 110.974 41.2852 114.164 38.9277V31.2314C110.073 31.3008 106.676 31.9248 103.902 33.0342C101.129 34.0742 99.742 35.8076 99.742 38.0957ZM137.28 0.238281H143.035V46H137.28V0.238281ZM177.731 15.9082H166.36V37.541C166.36 41.4932 167.885 43.5039 170.936 43.5039C172.67 43.5039 174.75 42.8799 177.176 41.7012L177.592 42.3945C174.403 45.0986 171.213 46.416 167.955 46.416C163.517 46.416 160.466 43.5039 160.466 37.8877L160.536 15.9082H154.989V14.9375L160.744 14.5215L164.973 4.81445H166.36V14.1055H177.731V15.9082ZM211.04 13.8281C216.587 13.8281 220.262 17.0176 220.262 23.1191V46H214.507V24.2285C214.507 19.7217 211.872 17.2949 207.781 17.2949C203.968 17.2949 200.57 19.167 197.589 22.9111V46H191.834V0.238281H197.589V21.3164C201.194 16.3242 206.395 13.8281 211.04 13.8281ZM260.158 14.1055H261.891L247.33 46.416C242.616 56.6084 237.138 61.0459 233.186 61.0459C229.164 61.0459 228.748 57.0244 229.65 54.1816C231.453 55.9844 233.255 56.8857 235.127 56.8857C239.079 56.8857 242.685 53.2109 246.013 45.792L230.898 14.1055H237.069L248.787 39.3438L260.158 14.1055ZM16.8994 60.7236C26.6758 60.7236 31.668 64.7451 31.668 69.46C31.668 72.1641 30.0039 74.3828 27.1611 75.4922C27.3691 74.7988 27.4385 73.9668 27.4385 72.9961C27.4385 70.1533 26.5371 67.6572 24.8037 65.5078C23.0703 63.3584 20.5049 62.249 17.0381 62.249C14.1953 62.249 11.6992 62.873 9.5498 64.1904C7.46973 65.5078 6.42969 67.4492 6.42969 70.1533C6.22168 72.5107 7.95508 74.3828 9.61914 75.7695C10.6592 76.6016 13.2246 77.8496 14.334 78.4043L17.1768 79.7217L19.9502 80.9004C24.5957 83.0498 27.9238 85.0605 30.0039 86.9326C32.1533 88.8047 33.1934 91.1621 33.1934 94.0742C33.1934 97.749 31.668 100.661 28.6865 102.88C25.7051 105.099 21.8916 106.208 17.2461 106.208C5.875 106.208 0.952148 102.256 0.952148 96.917C0.952148 93.5195 3.44824 90.1914 6.70703 89.5674C6.29102 91.0234 6.08301 92.5488 6.08301 94.2822C6.08301 100.314 9.20312 104.683 17.2461 104.683C24.1104 104.683 28.8945 101.424 28.8945 96.6396C28.8945 94.4902 27.7158 92.6182 26.3984 91.4395C25.7744 90.8154 24.7344 90.0527 23.2783 89.29C21.8223 88.5273 20.6436 87.9033 19.6729 87.4873L15.166 85.6152C13.0166 84.7139 11.3525 84.0205 10.1738 83.3965C9.06445 82.7725 7.81641 82.0098 6.36035 80.9697C3.51758 78.8203 2.26953 75.9775 2.26953 72.3027C2.26953 68.4893 3.65625 65.5771 6.36035 63.6357C9.13379 61.6943 12.6699 60.7236 16.8994 60.7236ZM63.1742 73.8281C68.3051 73.8281 72.4652 75.3535 75.5854 78.335C78.7055 81.3164 80.3002 85.1992 80.3002 90.0527C80.3002 94.9062 78.7055 98.8584 75.5854 101.84C72.4652 104.821 68.3051 106.277 63.1742 106.277C58.1127 106.277 53.9525 104.821 50.8324 101.84C47.7123 98.8584 46.1176 94.9062 46.1176 90.0527C46.1176 85.1992 47.7123 81.3164 50.8324 78.335C53.9525 75.3535 58.1127 73.8281 63.1742 73.8281ZM63.1742 75.1455C56.5873 75.1455 52.4271 81.1084 52.4271 90.0527C52.4271 98.9971 56.5873 104.96 63.1742 104.96C69.6225 104.96 73.9213 98.9971 73.9213 90.0527C73.9213 81.1084 69.6225 75.1455 63.1742 75.1455ZM115.412 74.1055H121.167V106H115.412V98.7197C111.529 103.781 106.398 106.277 101.961 106.277C96.4139 106.277 92.7391 103.088 92.7391 96.9863V74.1055H98.4939V95.877C98.4939 100.522 100.782 102.811 105.289 102.811C108.825 102.811 112.153 100.938 115.412 97.125V74.1055ZM136.587 60.2383H142.342V106H136.587V60.2383Z" fill="#5F789D"/>
</svg>
