<svg width="73" height="73" viewBox="0 0 73 73" fill="none" xmlns="http://www.w3.org/2000/svg">
<circle cx="36.5" cy="36.5" r="36.5" fill="#A0B297"/>
<path d="M48.296 46.8764L45.9235 47.1193C44.026 47.3136 42.583 48.9119 42.583 50.8194C42.583 52.3031 42.938 53.7652 43.6184 55.0837L45.9641 59.6291L47.4416 63.6322C47.8658 64.7815 47.0553 66.0129 45.832 66.0779L42.713 66.2436C33.4087 66.7379 24.1526 64.6082 16 60.0971L16.0967 59.5705C16.5746 56.9671 16.7379 54.3157 16.583 51.6733L16.7773 38.6099C16.8031 36.8738 17.0453 35.1477 17.4983 33.4715C18.2781 30.586 19.6682 27.9014 21.5746 25.5992L23.0815 23.7795C24.7164 21.8053 26.7436 20.1923 29.0346 19.0428C32.7597 17.1738 36.7473 15.882 40.8607 15.2116L44.9416 14.5466C47.1677 14.1839 49.4325 14.1222 51.6751 14.3633C53.7586 14.5873 55.7861 15.1785 57.6635 16.1094L58.5286 16.5383C62.4769 18.496 65.4006 22.0475 66.5635 26.2983L66.7877 27.118C67.5796 30.0128 67.5329 33.073 66.6531 35.9423L66.5061 36.4216C65.3721 40.1201 62.8192 43.2187 59.4062 45.0396C56.8632 46.3963 54.0084 47.0613 51.1276 46.968L48.296 46.8764Z" fill="#6A9929"/>
<path d="M31 16.5414L29.9422 16.9669C25.6693 18.6859 21.8949 21.4476 18.9635 25L18.8572 24.9155C16.0518 22.6844 15.2636 18.7557 16.9913 15.6151C17.703 14.3214 18.8579 13.3281 20.2435 12.818L21.1039 12.5012C24.9511 11.0849 29.2433 12.8372 31 16.5414Z" fill="#12321A"/>
<path d="M14.7116 50.4091L14.7116 56.5812C11.758 56.9328 8.91708 55.3299 7.69092 52.6199L7.56464 52.3408C6.99951 51.0917 6.88475 49.6854 7.23992 48.3613L7.26776 48.2575C8.15453 44.9515 11.3057 42.7746 14.7116 43.1152L14.7116 50.4091Z" fill="#12321A"/>
<path d="M18.1372 26.9322L17.9376 27.3017C15.73 31.3883 14.6247 35.9794 14.7307 40.6229L13.89 40.5787C10.5943 40.4055 7.71625 38.2914 6.5655 35.1982L6.50461 35.0345C5.79554 33.1286 6.01276 31.0014 7.0924 29.2781L7.20647 29.096C9.54658 25.3609 14.5505 24.3703 18.1372 26.9322Z" fill="#12321A"/>
<ellipse cx="44" cy="27.5" rx="3" ry="3.5" fill="#12321A"/>
</svg>
