<svg width="73" height="73" viewBox="0 0 73 73" fill="none" xmlns="http://www.w3.org/2000/svg">
<path d="M26.623 1.845C20.1605 3.9452 14.6815 7.3055 10.3264 12.0659C2.74012 20.0466 0.632812 25.3671 0.632812 36.9882C0.632812 48.6092 2.74012 53.9297 10.3264 61.9104C17.7723 69.8912 24.5156 72.6914 36.4571 72.6914C44.4648 72.6914 48.258 71.9913 52.6131 69.6111C59.216 66.1108 65.9594 59.2502 69.6121 52.3896C73.2647 45.529 73.2647 28.4474 69.6121 21.5868C65.9594 14.7262 59.216 7.86555 52.6131 4.50524C46.5722 1.42496 32.3829 -0.115173 26.623 1.845ZM44.1839 18.0865C51.2082 24.9471 46.2912 36.9882 36.4571 36.9882C30.6971 36.9882 25.2181 31.5277 25.2181 25.7872C25.2181 20.0466 30.6971 14.5862 36.4571 14.5862C39.1263 14.5862 42.0766 15.8463 44.1839 18.0865ZM37.1595 40.2085C40.2502 40.0685 44.0434 39.7884 45.5887 39.5084C49.9438 38.8083 48.9604 43.0087 44.4648 45.1089L40.3907 47.0691L45.0268 51.8295C48.6795 55.4699 49.2414 57.01 47.977 58.2701C46.7126 59.5302 45.1673 58.8302 41.3741 55.1898L36.4571 50.4294L31.54 55.1898C27.7469 58.8302 26.2015 59.5302 24.9371 58.2701C23.6727 57.01 24.3752 55.4699 28.0278 51.6895L32.6639 46.9291L29.1517 45.529C27.0444 44.8289 25.0776 43.4288 24.5156 42.7287C22.9703 40.0685 25.2181 38.2483 28.4493 39.3684C30.1351 39.9284 34.0688 40.3485 37.1595 40.2085Z" fill="#12321A"/>
<path d="M32.2423 22.2867C28.5897 26.7671 34.0687 33.6278 38.9857 30.5475C42.0764 28.5873 42.7789 24.807 40.6716 22.2867C38.4238 19.6265 34.4901 19.6265 32.2423 22.2867Z" fill="#12321A"/>
</svg>
