<svg width="72" height="72" viewBox="0 0 72 72" fill="none" xmlns="http://www.w3.org/2000/svg">
<path d="M36.0002 0C28.8803 0 21.9199 2.11135 15.9997 6.06708C10.0796 10.0228 5.46536 15.6452 2.74061 22.2234C0.015857 28.8014 -0.697079 36.0401 0.691981 43.0232C2.08104 50.0067 5.50973 56.421 10.5444 61.4561C15.5791 66.4907 21.9937 69.9192 28.9771 71.3084C35.9602 72.6975 43.1989 71.9843 49.777 69.2595C56.3551 66.5348 61.9774 61.9209 65.9333 56.0007C69.8888 50.0805 72.0002 43.1204 72.0002 36C72.0002 26.4522 68.2072 17.2955 61.4563 10.5442C54.7049 3.79283 45.5479 0 36.0002 0ZM53.6852 24.66L47.7902 52.515C47.3402 54.495 46.1702 54.945 44.5052 54.045L35.5052 47.385L31.0052 51.57C30.7933 51.8468 30.521 52.0718 30.2092 52.2279C29.8973 52.3836 29.554 52.4664 29.2052 52.47L29.8352 43.47L46.4852 28.395C47.2502 27.765 46.4852 27.405 45.4052 28.035L24.9752 40.86L15.9752 38.07C14.0402 37.485 13.9952 36.135 16.3802 35.235L51.0752 21.735C52.7852 21.24 54.2252 22.23 53.6852 24.66Z" fill="#12321A"/>
</svg>
