<svg width="72" height="73" viewBox="0 0 72 73" fill="none" xmlns="http://www.w3.org/2000/svg">
<path d="M20.8759 4.59612C11.4375 8.97873 7.1903 13.3613 2.94305 22.7526C-2.71994 35.1179 -0.0457523 51.3961 9.54988 61.7266C14.741 67.3613 27.64 72.8396 35.8199 72.8396C43.9998 72.8396 56.8988 67.3613 62.0899 61.7266C67.4383 55.9353 72.0001 44.5092 72.0001 36.8396C72.0001 28.7005 66.4944 15.8657 60.8314 10.7005C55.0111 5.37873 43.5278 0.8396 35.8199 0.8396C31.5726 0.8396 25.595 2.40482 20.8759 4.59612ZM23.7074 32.9266C27.1681 40.2831 30.1569 40.1266 29.0557 32.77C28.1119 27.4483 28.2692 27.2918 32.3592 27.7613C35.8199 28.0744 36.7637 29.17 37.0783 33.2396C37.7075 39.8135 39.9098 39.8135 43.8425 32.9266C46.3593 28.7005 48.0897 27.4483 51.7077 27.4483C57.2134 27.4483 57.3707 28.5439 52.4943 35.7439L48.7189 41.2222L52.4943 44.8222C54.5392 46.7005 56.2696 48.8918 56.2696 49.6744C56.2696 51.8657 46.202 50.9266 43.0559 48.5787C39.1233 45.6048 37.3929 45.6048 37.3929 48.5787C37.3929 51.3961 32.8311 51.5526 27.1681 49.0483C23.5501 47.4831 12.2241 31.9874 12.2241 28.7005C12.2241 28.0744 14.269 27.4483 16.6286 27.4483C20.0893 27.4483 21.6624 28.5439 23.7074 32.9266Z" fill="#12321A"/>
</svg>
