<svg width="337" height="128" viewBox="0 0 337 128" fill="none" xmlns="http://www.w3.org/2000/svg">
<path d="M299.474 36.4645C301.561 37.7691 303.183 39.2744 304.342 40.9804C305.535 42.653 306.33 44.4092 306.727 46.249C307.124 48.0554 307.174 49.8785 306.876 51.7183C306.578 53.5247 306.015 55.2307 305.187 56.8364C304.359 58.4421 303.299 59.8638 302.008 61.1015C300.749 62.3392 299.342 63.2758 297.785 63.9114C296.692 64.3462 295.368 64.7309 293.811 65.0655C292.288 65.4334 290.632 65.6843 288.844 65.8181C287.055 65.9854 285.184 66.0188 283.23 65.9185C281.276 65.8516 279.339 65.6174 277.418 65.216C275.497 64.8146 273.626 64.2292 271.805 63.4598C270.016 62.657 268.377 61.6367 266.887 60.399C266.092 59.3954 265.562 58.2915 265.297 57.0873C265.065 55.883 265.049 54.7122 265.247 53.5749C265.446 52.4375 265.844 51.3838 266.44 50.4137C267.069 49.4436 267.847 48.6743 268.774 48.1056C269.702 47.5035 270.745 47.1857 271.904 47.1522C273.096 47.0853 274.371 47.3864 275.729 48.0554C277.484 48.9252 279.091 49.6109 280.548 50.1127C282.038 50.6144 283.346 50.9155 284.472 51.0159C285.598 51.0828 286.509 50.9657 287.204 50.6646C287.9 50.3301 288.347 49.7782 288.546 49.0088C288.678 48.507 288.761 48.0889 288.794 47.7543C288.827 47.4198 288.744 47.1522 288.546 46.9515C288.347 46.7174 287.983 46.5501 287.453 46.4497C286.956 46.3159 286.244 46.2156 285.317 46.1487C283.296 46.0149 281.276 45.6135 279.256 44.9444C277.269 44.2754 275.431 43.3388 273.742 42.1345C272.053 40.9303 270.612 39.4584 269.42 37.7189C268.228 35.946 267.433 33.872 267.036 31.497C266.936 30.7945 266.903 29.9582 266.936 28.9881C267.003 27.9846 267.185 26.9309 267.483 25.827C267.781 24.7231 268.228 23.6024 268.824 22.4651C269.42 21.3277 270.215 20.2406 271.209 19.2036C272.202 18.1331 273.411 17.163 274.835 16.2933C276.292 15.4236 278.014 14.7211 280.001 14.1859C281.624 13.751 283.379 13.4667 285.267 13.3329C287.155 13.1991 288.993 13.2158 290.781 13.383C292.602 13.5503 294.308 13.8681 295.898 14.3364C297.52 14.8047 298.862 15.3901 299.921 16.0926C301.379 17.0627 302.471 18.0997 303.2 19.2036C303.962 20.274 304.442 21.3612 304.641 22.4651C304.839 23.5355 304.79 24.5893 304.492 25.6262C304.227 26.6632 303.796 27.5999 303.2 28.4362C302.604 29.2724 301.875 29.9917 301.014 30.5938C300.186 31.1625 299.292 31.5639 298.332 31.798C297.736 31.0621 296.941 30.4265 295.947 29.8913C294.987 29.3561 293.944 28.9379 292.818 28.6369C291.725 28.3358 290.615 28.1686 289.489 28.1351C288.363 28.0682 287.337 28.1351 286.409 28.3358C285.515 28.5365 284.77 28.871 284.174 29.3394C283.611 29.8077 283.33 30.4098 283.33 31.1457C283.33 31.7144 283.561 32.166 284.025 32.5005C284.489 32.835 285.35 33.0859 286.608 33.2532C290.251 33.7215 293.083 34.24 295.103 34.8087C297.123 35.3439 298.58 35.8958 299.474 36.4645Z" fill="#7C8E62"/>
<path d="M277.4 30.3433C277.4 32.4113 275.724 34.0878 273.656 34.0878C271.588 34.0878 269.911 32.4113 269.911 30.3433C269.911 28.2753 271.588 26.5989 273.656 26.5989C275.724 26.5989 277.4 28.2753 277.4 30.3433Z" fill="#12321A"/>
<path d="M300.744 56.4344C300.744 57.9509 299.515 59.1803 297.998 59.1803C296.482 59.1803 295.252 57.9509 295.252 56.4344C295.252 54.9179 296.482 53.6885 297.998 53.6885C299.515 53.6885 300.744 54.9179 300.744 56.4344Z" fill="#12321A"/>
<path d="M279.875 39.3746C279.875 40.3397 279.093 41.122 278.128 41.122C277.163 41.122 276.381 40.3397 276.381 39.3746C276.381 38.4095 277.163 37.6272 278.128 37.6272C279.093 37.6272 279.875 38.4095 279.875 39.3746Z" fill="#12321A"/>
<path d="M284.842 61.9544C284.842 62.9195 284.06 63.7018 283.095 63.7018C282.13 63.7018 281.347 62.9195 281.347 61.9544C281.347 60.9894 282.13 60.207 283.095 60.207C284.06 60.207 284.842 60.9894 284.842 61.9544Z" fill="#12321A"/>
<path d="M297.261 18.8019C297.261 19.7669 296.479 20.5493 295.514 20.5493C294.549 20.5493 293.766 19.7669 293.766 18.8019C293.766 17.8368 294.549 17.0544 295.514 17.0544C296.479 17.0544 297.261 17.8368 297.261 18.8019Z" fill="#12321A"/>
<path d="M291.044 36.8657L291.541 34.0056L294.77 34.6077L295.528 34.8166C297.198 35.2765 298.784 35.9984 300.227 36.9554L300.264 36.9796C300.906 37.4048 301.515 37.8765 302.088 38.3907L302.143 38.44C303.02 39.2276 303.802 40.1149 304.474 41.0838L304.546 41.1884C304.982 41.8179 305.365 42.483 305.69 43.1766C306.223 44.3161 306.596 45.5238 306.798 46.7655L307.025 48.1555C306.478 48.6519 305.834 49.0299 305.134 49.2656L304.524 49.4707C303.657 49.7628 302.748 49.9117 301.833 49.9117H301.049C300.506 49.9117 299.965 49.8729 299.428 49.7954L298.803 49.7052C297.457 49.5111 296.161 48.993 295.047 48.2142C294.055 47.5207 293.208 46.6139 292.59 45.5734C292.223 44.9557 291.936 44.2941 291.735 43.6043L291.522 42.8721C291.042 41.2225 290.858 39.5008 290.979 37.787L291.044 36.8657Z" fill="#12321A"/>
<path d="M274.915 18.119L273.905 16.895L274.899 16.2427L275.892 15.6908C278.032 14.66 280.318 13.966 282.67 13.6335L284.089 13.4328C286.883 13.0011 289.731 13.0513 292.508 13.5813L292.782 13.6335L294.148 13.8844L295.514 14.2357C295.514 14.7208 295.22 15.1575 294.77 15.3392L294.59 15.4118C294.381 15.4963 294.156 15.5318 293.931 15.5156L292.544 15.4156C291.426 15.3349 290.322 15.708 289.481 16.4507C289.038 16.8428 288.683 17.3248 288.44 17.8647L288.128 18.5582C287.758 19.3802 287.217 20.114 286.542 20.711L286.42 20.8184C285.865 21.3088 285.218 21.6833 284.516 21.9196C283.278 22.3365 281.932 22.3032 280.716 21.8255L279.161 21.2149C278.474 20.945 277.819 20.6009 277.207 20.1886L277.166 20.1613C276.321 19.5924 275.563 18.9046 274.915 18.119Z" fill="#12321A"/>
<path d="M270.836 47.8336L270.18 47.4277C269.36 47.7094 268.602 48.1481 267.95 48.7193L267.856 48.8015C267.584 49.0394 267.33 49.2972 267.097 49.5727L266.859 49.853C266.263 50.5553 265.798 51.359 265.486 52.2258C265.141 53.1824 264.99 54.1977 265.04 55.2132L265.055 55.5187C265.093 56.2928 265.24 57.0577 265.49 57.7911L265.59 58.0821C265.93 59.0783 266.491 59.9844 267.232 60.7324C267.704 61.2098 268.244 61.6163 268.833 61.9393L270.239 62.7107C271.027 63.1423 271.845 63.5145 272.688 63.824L274.154 64.3626L275.396 62.2049L275.732 61.4417C276.165 60.456 276.389 59.3909 276.389 58.314C276.389 57.7319 276.324 57.1517 276.194 56.5843L275.644 54.1766L275.378 53.4375C274.898 52.1031 274.163 50.8747 273.214 49.8206C272.519 49.0489 271.719 48.3798 270.836 47.8336Z" fill="#12321A"/>
<path d="M249.322 30.8945C247.666 30.3927 246.341 29.6066 245.347 28.5361C244.387 27.4657 243.692 26.2949 243.261 25.0237C242.864 23.7191 242.715 22.3978 242.814 21.0597C242.913 19.7217 243.195 18.5174 243.658 17.447C244.387 15.8413 245.43 14.5367 246.788 13.5332C248.146 12.5296 250.017 11.9944 252.401 11.9275C253.991 11.8941 255.365 12.1449 256.525 12.6802C257.717 13.2154 258.694 13.9513 259.455 14.888C260.25 15.8246 260.846 16.895 261.244 18.0993C261.641 19.3035 261.856 20.5413 261.89 21.8124C261.923 23.4515 261.691 25.1074 261.194 26.7799C260.73 28.4525 260.134 30.0582 259.406 31.5969C258.71 33.1357 257.916 34.5741 257.021 35.9122C256.16 37.2502 255.349 38.4043 254.587 39.3744C253.561 40.679 252.451 41.5655 251.259 42.0338C250.067 42.4686 248.957 42.6192 247.931 42.4854C246.937 42.3516 246.093 42.0003 245.397 41.4317C244.735 40.8295 244.404 40.127 244.404 39.3242C245.232 37.7185 246.076 36.2634 246.937 34.9588C247.831 33.6208 248.626 32.266 249.322 30.8945Z" fill="#7C8E62"/>
<path d="M250.061 14.6033V12.1788L251.743 11.9523C252.604 11.8363 253.477 11.8507 254.334 11.995C255.449 12.1826 256.516 12.5867 257.475 13.1845L257.661 13.3006C258.124 13.589 258.556 13.9233 258.952 14.2986C259.643 14.9542 260.212 15.7266 260.635 16.5802L260.736 16.7836C261.069 17.4578 261.321 18.1697 261.484 18.904L261.685 19.8057L259.499 20.8092L258.336 21.1619C257.464 21.4259 256.549 21.5148 255.643 21.4233L255.563 21.4152C254.88 21.3462 254.213 21.1676 253.586 20.8864L253.36 20.7849C252.659 20.4704 252.036 20.0067 251.533 19.4262C250.895 18.69 250.474 17.7917 250.315 16.8307L250.173 15.967C250.098 15.5163 250.061 15.0602 250.061 14.6033Z" fill="#12321A"/>
<path d="M249.575 18.8016C249.575 20.0424 248.569 21.0483 247.328 21.0483C246.087 21.0483 245.082 20.0424 245.082 18.8016C245.082 17.5608 246.087 16.5549 247.328 16.5549C248.569 16.5549 249.575 17.5608 249.575 18.8016Z" fill="#12321A"/>
<path d="M256.031 31.8478C256.031 32.8128 255.248 33.5952 254.283 33.5952C253.318 33.5952 252.536 32.8128 252.536 31.8478C252.536 30.8827 253.318 30.1003 254.283 30.1003C255.248 30.1003 256.031 30.8827 256.031 31.8478Z" fill="#12321A"/>
<path d="M219.406 33.8047C219.538 33.5037 219.787 32.9183 220.151 32.0485C220.515 31.1788 220.946 30.1585 221.442 28.9877C221.939 27.7835 222.469 26.4789 223.032 25.0739C223.628 23.669 224.208 22.2975 224.771 20.9594C225.367 19.6214 225.93 18.3669 226.46 17.1961C226.99 15.9919 227.453 15.0051 227.851 14.2357C229.639 13.7339 231.427 13.6837 233.216 14.0851C235.004 14.4866 236.527 15.2559 237.786 16.3933C239.044 17.4972 239.889 18.9356 240.319 20.7085C240.75 22.4814 240.502 24.4885 239.574 26.7298C238.746 28.67 237.918 30.4596 237.09 32.0987C236.263 33.7044 235.401 35.3435 234.507 37.0161C233.613 38.6552 232.686 40.4114 231.725 42.2847C230.765 44.1245 229.738 46.2319 228.646 48.607C228.149 49.5102 227.9 50.4301 227.9 51.3667C227.9 52.4706 227.9 53.6916 227.9 55.0297C227.9 56.3343 227.884 57.5887 227.851 58.7929C227.818 59.9637 227.784 60.984 227.751 61.8538C227.751 62.69 227.751 63.2085 227.751 63.4092C227.387 63.911 226.692 64.3459 225.665 64.7138C224.671 65.0818 223.512 65.3327 222.188 65.4665C220.896 65.6003 219.522 65.5836 218.064 65.4163C216.64 65.2491 215.316 64.8477 214.09 64.2121C212.898 63.5765 211.888 62.6733 211.06 61.5025C210.232 60.3317 209.785 58.8431 209.719 57.0367C209.719 56.7357 209.719 56.2841 209.719 55.682C209.719 55.0798 209.719 54.461 209.719 53.8254C209.719 53.1564 209.719 52.5543 209.719 52.019C209.752 51.4838 209.769 51.1326 209.769 50.9653C209.735 50.5304 209.669 50.1959 209.57 49.9618C209.504 49.6942 209.388 49.3764 209.222 49.0084C208.229 47.0682 207.103 44.8772 205.844 42.4352C204.586 39.9598 203.327 37.4175 202.069 34.8083C200.81 32.1991 199.585 29.6233 198.393 27.081C197.234 24.5053 196.207 22.1302 195.313 19.9559C196.141 17.9488 197.333 16.41 198.89 15.3396C200.446 14.2357 202.052 13.5666 203.708 13.3325C205.364 13.0983 206.904 13.2489 208.328 13.7841C209.785 14.3193 210.845 15.2058 211.507 16.4435C212.037 17.447 212.6 18.6513 213.196 20.0562C213.825 21.4277 214.438 22.8494 215.034 24.3213C215.663 25.7931 216.26 27.2315 216.823 28.6365C217.419 30.0415 217.949 31.2624 218.412 32.2994C218.512 32.567 218.611 32.8179 218.71 33.0521C218.81 33.2528 218.909 33.487 219.008 33.7546C219.207 33.7546 219.34 33.7713 219.406 33.8047Z" fill="#7C8E62"/>
<path d="M234.68 31.848C234.68 33.916 233.004 35.5924 230.936 35.5924C228.868 35.5924 227.191 33.916 227.191 31.848C227.191 29.78 228.868 28.1035 230.936 28.1035C233.004 28.1035 234.68 29.78 234.68 31.848Z" fill="#12321A"/>
<path d="M209.835 18.049C209.835 19.4277 208.718 20.5453 207.339 20.5453C205.961 20.5453 204.843 19.4277 204.843 18.049C204.843 16.6704 205.961 15.5527 207.339 15.5527C208.718 15.5527 209.835 16.6704 209.835 18.049Z" fill="#12321A"/>
<path d="M218.774 48.4063C218.774 49.3714 217.992 50.1538 217.027 50.1538C216.062 50.1538 215.279 49.3714 215.279 48.4063C215.279 47.4413 216.062 46.6589 217.027 46.6589C217.992 46.6589 218.774 47.4413 218.774 48.4063Z" fill="#12321A"/>
<path d="M228.381 47.9045H228.948L228.433 49.0368C228.022 49.9385 227.857 50.9327 227.955 51.9187V55.9329L227.806 59.947L227.756 63.39C227.756 63.4024 227.751 63.4143 227.743 63.4234C227.262 63.9419 226.665 64.3399 226.001 64.5851L224.974 64.9648L223.732 65.2658L222.49 65.4414L221.912 64.7819C221.141 63.9031 220.471 62.9402 219.916 61.9115L219.687 61.4877C219.404 60.9634 219.167 60.4151 218.981 59.8493L218.904 59.6159C218.485 58.3472 218.353 57.0013 218.517 55.6754L218.539 55.4981C218.688 54.2974 219.099 53.1442 219.744 52.1206C220.246 51.3229 220.882 50.6175 221.624 50.035C222.362 49.4553 223.193 49.0059 224.083 48.7065L224.648 48.5161C225.851 48.1111 227.112 47.9045 228.381 47.9045Z" fill="#12321A"/>
<path d="M200.764 29.4705L199.689 29.8406L203.316 37.3672L208.383 47.4026L210.32 45.8973L212.263 44.3273C212.623 44.0366 212.955 43.7127 213.254 43.3599C213.939 42.5521 214.443 41.6064 214.732 40.5869L214.96 39.7787C215.178 39.011 215.288 38.217 215.288 37.4191V36.9993C215.288 36.247 215.154 35.5008 214.892 34.7956C214.66 34.1723 214.332 33.5893 213.92 33.0681L213.208 32.17C212.775 31.6225 212.278 31.1279 211.729 30.6965C210.799 29.966 209.733 29.428 208.593 29.1139L208.425 29.0676C207.868 28.9142 207.299 28.8105 206.723 28.7577L206.478 28.7352C205.401 28.6363 204.316 28.6771 203.249 28.8567L203.034 28.8929C202.263 29.0227 201.504 29.2159 200.764 29.4705Z" fill="#12321A"/>
<path d="M225.434 21.6796L224.518 21.5616L226.306 17.5475L227.817 14.2717C227.842 14.2175 227.891 14.1781 227.949 14.1654L228.237 14.1023C229.205 13.8911 230.195 13.801 231.184 13.8344L231.242 13.997C231.369 14.3558 231.456 14.7274 231.503 15.1051C231.62 16.0468 231.48 17.0025 231.097 17.871L230.992 18.1111C230.79 18.5699 230.533 19.0027 230.227 19.3999L229.898 19.8276C229.281 20.629 228.429 21.2175 227.461 21.5109C226.805 21.7097 226.114 21.7672 225.434 21.6796Z" fill="#12321A"/>
<path d="M169.049 32.9021C169.877 31.5975 170.655 30.3598 171.384 29.189C172.145 27.9847 172.907 26.8139 173.669 25.6766C174.132 24.9741 174.712 24.1044 175.407 23.0674C176.103 22.0304 176.815 20.9767 177.544 19.9062C178.305 18.8023 179.034 17.7486 179.729 16.7451C180.425 15.7081 181.004 14.8383 181.468 14.1359C183.223 13.7679 184.945 13.8348 186.634 14.3366C188.323 14.8049 189.714 15.6077 190.807 16.7451C191.933 17.8824 192.629 19.3208 192.893 21.0603C193.192 22.7998 192.827 24.74 191.801 26.8808C191.138 28.2524 190.592 29.3562 190.161 30.1925C189.731 30.9954 189.3 31.748 188.87 32.4505C188.439 33.153 187.959 33.9056 187.429 34.7085C186.932 35.5113 186.287 36.5483 185.492 37.8195C185.127 38.3547 185.111 38.9234 185.442 39.5255C186.336 41.2315 187.28 42.9542 188.274 44.6937C189.3 46.4332 190.277 48.1392 191.204 49.8118C192.132 51.4509 192.976 53.0398 193.738 54.5786C194.533 56.0839 195.162 57.4554 195.626 58.6931C195.294 59.7636 194.715 60.7838 193.887 61.7539C193.092 62.724 192.132 63.5603 191.006 64.2628C189.913 64.9318 188.704 65.4001 187.379 65.6678C186.055 65.9688 184.747 65.9855 183.455 65.7179C182.163 65.4838 180.905 64.9151 179.68 64.0119C178.487 63.1087 177.461 61.7874 176.6 60.0479C176.07 59.0109 175.441 57.8067 174.712 56.4352C174.017 55.0302 173.089 53.1736 171.93 50.8655C171.632 51.3338 171.334 51.8189 171.036 52.3206C170.738 52.789 170.456 53.2573 170.191 53.7256C169.96 54.1939 169.744 54.6288 169.546 55.0302C169.347 55.4316 169.231 55.7661 169.198 56.0337C169.099 56.569 169.049 57.4889 169.049 58.7935C169.082 60.0981 169.165 61.4529 169.297 62.8578C168.569 63.46 167.658 63.9617 166.565 64.3631C165.505 64.7311 164.346 64.9653 163.088 65.0656C161.862 65.166 160.604 65.0991 159.312 64.8649C158.054 64.6308 156.878 64.2126 155.785 63.6105C154.726 63.0084 153.815 62.2055 153.053 61.202C152.325 60.165 151.861 58.9106 151.662 57.4387C151.464 56.0672 151.281 54.3444 151.116 52.2705C150.983 50.163 150.867 47.9051 150.768 45.4966C150.669 43.0546 150.586 40.529 150.52 37.9198C150.487 35.2771 150.47 32.7014 150.47 30.1925C150.503 27.6837 150.553 25.3421 150.619 23.1677C150.718 20.9599 150.851 19.0699 151.017 17.4977C151.679 16.6614 152.573 15.9757 153.699 15.4405C154.825 14.8718 156.05 14.4871 157.375 14.2864C158.7 14.0857 160.041 14.0857 161.399 14.2864C162.757 14.4536 163.982 14.8551 165.075 15.4906C166.201 16.1262 167.128 16.996 167.857 18.0999C168.585 19.1703 168.983 20.5251 169.049 22.1642C169.115 23.6361 169.148 24.7734 169.148 25.5762C169.181 26.3456 169.198 27.0147 169.198 27.5833C169.198 28.1185 169.181 28.6872 169.148 29.2893C169.115 29.858 169.082 30.6776 169.049 31.748C169.016 31.8818 168.999 32.0324 168.999 32.1996C169.032 32.3669 169.049 32.601 169.049 32.9021Z" fill="#7C8E62"/>
<path d="M160.166 21.8126C160.166 23.8806 158.49 25.557 156.422 25.557C154.354 25.557 152.677 23.8806 152.677 21.8126C152.677 19.7446 154.354 18.0681 156.422 18.0681C158.49 18.0681 160.166 19.7446 160.166 21.8126Z" fill="#12321A"/>
<path d="M165.128 35.1101C165.128 36.4887 164.01 37.6064 162.632 37.6064C161.253 37.6064 160.135 36.4887 160.135 35.1101C160.135 33.7314 161.253 32.6138 162.632 32.6138C164.01 32.6138 165.128 33.7314 165.128 35.1101Z" fill="#12321A"/>
<path d="M184 33.8551C184 34.8201 183.218 35.6025 182.253 35.6025C181.288 35.6025 180.505 34.8201 180.505 33.8551C180.505 32.89 181.288 32.1077 182.253 32.1077C183.218 32.1077 184 32.89 184 33.8551Z" fill="#12321A"/>
<path d="M151.73 55.2053L151.404 55.4313L151.424 56.1485C151.444 56.8389 151.541 57.525 151.715 58.1934L151.77 58.4041C152.361 60.6725 153.851 62.6026 155.895 63.7497C156.736 64.222 157.651 64.5497 158.601 64.719L159.572 64.892C160.778 65.107 162.007 65.1678 163.228 65.0729L163.673 65.0383C164.302 64.9895 164.925 64.8874 165.536 64.733L165.606 64.7155C166.922 64.383 168.164 63.8043 169.265 63.0099C169.309 62.978 169.331 62.9239 169.322 62.8702L169.314 62.8201C169.164 61.9099 169.088 60.989 169.088 60.0665L169.088 59.9473L168.125 58.6097C167.446 57.6665 166.635 56.8254 165.718 56.1122C164.499 55.1652 163.111 54.4588 161.628 54.0308L160.636 53.7445C159.329 53.3673 157.961 53.2473 156.608 53.3911C154.856 53.5775 153.178 54.2013 151.73 55.2053Z" fill="#12321A"/>
<path d="M184.804 42.2975L186.276 41.1306L188.81 45.6466L191.94 51.166L194.672 56.4346L193.964 56.9354C192.803 57.756 191.436 58.2355 190.017 58.3198C188.673 58.3997 187.332 58.122 186.131 57.5152L185.884 57.3905C185.287 57.0888 184.726 56.7187 184.214 56.2878L183.543 55.7225C182.533 54.8725 181.75 53.7852 181.264 52.558L181.23 52.473C180.76 51.2862 180.596 50.0004 180.753 48.7336C180.922 47.37 181.456 46.0775 182.3 44.993L182.912 44.2056C183.464 43.4962 184.099 42.8556 184.804 42.2975Z" fill="#12321A"/>
<path d="M173.539 29.2916L171.772 28.5868L181.508 14.0354C181.826 14.5166 181.935 15.1058 181.811 15.6688L181.788 15.7751C181.613 16.5675 181.853 17.3942 182.424 17.9708L183.028 18.5813C183.174 18.7284 183.308 18.8866 183.428 19.0545L184.458 20.4845C184.968 21.1927 185.302 22.0118 185.434 22.8745L185.468 23.0978C185.638 24.2136 185.416 25.3539 184.839 26.3243C184.446 26.9869 183.901 27.5468 183.249 27.9583L182.334 28.5358C180.978 29.3917 179.425 29.8859 177.824 29.971L177.705 29.9773C176.283 30.0529 174.862 29.819 173.539 29.2916Z" fill="#12321A"/>
<path d="M132.782 30.3931C132.02 30.1924 131.308 30.0586 130.646 29.9917C129.984 29.9248 129.338 29.9248 128.709 29.9917C128.112 30.0586 127.5 30.2091 126.871 30.4433C126.241 30.6774 125.596 31.012 124.933 31.4468C124.039 32.0155 123.31 32.6678 122.747 33.4037C122.218 34.1397 121.804 34.9425 121.506 35.8122C121.241 36.6485 121.092 37.5517 121.058 38.5218C121.025 39.4584 121.075 40.4118 121.207 41.3819C121.406 42.8538 121.837 44.0915 122.499 45.095C123.161 46.0985 123.973 46.8846 124.933 47.4533C125.927 47.9885 127.02 48.3398 128.212 48.507C129.437 48.6743 130.679 48.6576 131.937 48.4569C132.765 48.3565 133.643 48.1223 134.57 47.7544C135.498 47.3864 136.359 46.985 137.153 46.5501C137.981 46.1153 138.71 45.6971 139.339 45.2957C140.002 44.8943 140.482 44.5932 140.78 44.3925C141.939 44.6267 143.015 45.1284 144.009 45.8978C145.002 46.6672 145.797 47.6039 146.393 48.7077C147.022 49.8116 147.42 51.0493 147.585 52.4209C147.784 53.7589 147.635 55.1137 147.138 56.4852C146.675 57.8567 145.847 59.1948 144.655 60.4994C143.462 61.7705 141.806 62.9079 139.687 63.9114C138.362 64.547 136.855 64.9986 135.166 65.2662C133.477 65.5673 131.739 65.7178 129.95 65.7178C128.195 65.7512 126.44 65.6676 124.685 65.4669C122.93 65.2662 121.34 64.9819 119.916 64.6139C115.577 63.4765 112.051 61.5364 109.335 58.7933C106.619 56.0169 104.649 52.4878 103.423 48.206C102.595 45.2288 102.165 42.2684 102.132 39.3246C102.099 36.3475 102.579 33.3703 103.572 30.3931C104.698 27.048 106.371 24.2548 108.59 22.0135C110.809 19.7388 113.475 17.8154 116.588 16.2432C118.674 15.2396 120.86 14.5037 123.145 14.0354C125.43 13.5336 127.798 13.3496 130.249 13.4834C132.699 13.6172 135.216 14.0855 137.799 14.8884C140.382 15.6912 143.015 16.862 145.698 18.4008C146.327 20.8093 146.31 22.9167 145.648 24.7231C144.986 26.496 143.976 27.9177 142.618 28.9881C141.26 30.0586 139.687 30.7276 137.899 30.9952C136.11 31.2628 134.405 31.0621 132.782 30.3931Z" fill="#7C8E62"/>
<path d="M116.451 34.3575C116.451 36.4255 114.775 38.1019 112.707 38.1019C110.639 38.1019 108.962 36.4255 108.962 34.3575C108.962 32.2895 110.639 30.613 112.707 30.613C114.775 30.613 116.451 32.2895 116.451 34.3575Z" fill="#12321A"/>
<path d="M121.412 53.1735C121.412 54.5522 120.295 55.6698 118.916 55.6698C117.537 55.6698 116.42 54.5522 116.42 53.1735C116.42 51.7949 117.537 50.6772 118.916 50.6772C120.295 50.6772 121.412 51.7949 121.412 53.1735Z" fill="#12321A"/>
<path d="M131.837 59.4454C131.837 60.1347 131.279 60.6936 130.589 60.6936C129.9 60.6936 129.341 60.1347 129.341 59.4454C129.341 58.7561 129.9 58.1973 130.589 58.1973C131.279 58.1973 131.837 58.7561 131.837 59.4454Z" fill="#12321A"/>
<path d="M137.302 18.3004C137.302 18.9897 136.743 19.5485 136.054 19.5485C135.365 19.5485 134.806 18.9897 134.806 18.3004C134.806 17.6111 135.365 17.0522 136.054 17.0522C136.743 17.0522 137.302 17.6111 137.302 18.3004Z" fill="#12321A"/>
<path d="M135.822 47.8559L136.054 47.1519L138.786 45.6466L140.746 44.3597C140.763 44.3485 140.784 44.3452 140.804 44.3506L141.235 44.4704C142.243 44.7502 143.188 45.2182 144.022 45.8496C144.504 46.2149 144.945 46.632 145.336 47.0932L145.399 47.1672C145.955 47.8228 146.417 48.5533 146.769 49.3373L146.917 49.6651C147.29 50.494 147.54 51.3731 147.659 52.2743C147.867 53.8509 147.669 55.4545 147.083 56.9331L146.983 57.1873C145.846 59.4827 144.088 61.413 141.909 62.7583L141.725 62.8721C141.091 63.2631 140.429 63.6045 139.742 63.8933L138.985 64.2121C138.359 63.8795 137.787 63.4543 137.289 62.9507L137.133 62.7932C136.419 62.0724 135.84 61.2283 135.424 60.3033C135.019 59.4045 134.774 58.4409 134.699 57.4581L134.564 55.682C134.564 53.023 134.988 50.381 135.822 47.8559Z" fill="#12321A"/>
<path d="M113.203 26.5795H112.702C110.416 26.5795 108.16 26.065 106.1 25.0741C107.347 23.0847 108.956 21.3462 110.843 19.9485L111.713 19.3038L112.438 18.7671C114.429 17.2921 116.614 16.0989 118.931 15.2211C120.573 14.5992 122.272 14.1393 124.003 13.8479L125.871 13.5334L129.1 13.4331C129.1 13.8332 129.055 14.2321 128.966 14.6221L128.833 15.2022C128.517 16.5845 127.928 17.8895 127.099 19.0402L126.922 19.2864C126.553 19.799 126.144 20.2819 125.7 20.7308L123.884 22.5653L122.553 23.7747C121.789 24.4698 120.924 25.0453 119.987 25.4819C118.788 26.0411 117.491 26.3629 116.17 26.4296L113.203 26.5795Z" fill="#12321A"/>
<path d="M103.357 44.3219L102.497 43.8904L102.763 45.3701C103.066 47.0563 103.521 48.7115 104.123 50.3154L104.16 50.416C104.723 51.9166 105.418 53.3644 106.236 54.7424L106.591 55.3388C107.024 56.0684 107.51 56.7657 108.044 57.425C108.996 58.5997 110.095 59.6466 111.314 60.5398L111.464 60.6495L112.179 58.1573C112.364 57.5138 112.458 56.8477 112.458 56.1782C112.458 54.8689 112.099 53.5845 111.422 52.4642L110.35 50.6934C109.934 50.0061 109.463 49.3544 108.94 48.7447L108.784 48.5633C107.274 46.8037 105.429 45.3619 103.357 44.3219Z" fill="#12321A"/>
<path fill-rule="evenodd" clip-rule="evenodd" d="M80.9473 14.3865C78.7285 13.8178 76.2115 13.5334 73.3966 13.5334C69.9855 13.5334 66.9884 13.9683 64.4052 14.8381C61.8552 15.7078 59.6363 16.8451 57.7486 18.2501C55.8609 19.6216 54.2878 21.1771 53.0294 22.9166C51.804 24.656 50.794 26.4122 49.9991 28.1852C49.403 29.4898 48.9394 30.9115 48.6082 32.4502C48.277 33.989 48.0618 35.5947 47.9624 37.2672C47.8631 38.9063 47.8796 40.5789 48.0121 42.2849C48.1446 43.991 48.393 45.6468 48.7572 47.2525C49.5189 50.698 50.8271 53.742 52.6817 56.3847C54.5362 58.9939 57.0531 61.1181 60.2324 62.7572C63.5442 64.4967 66.9221 65.5169 70.3663 65.818C73.8437 66.1525 77.3872 65.8849 80.997 65.0152C89.8393 62.9077 95.6183 57.4552 98.334 48.6574C99.3275 45.3123 99.7083 42.034 99.4765 38.8227C99.2778 35.5779 98.5989 32.3331 97.4398 29.0884C97.1748 28.4193 96.794 27.583 96.2972 26.5795C95.8005 25.5425 95.1381 24.4386 94.3102 23.2678C93.4823 22.097 92.4556 20.9429 91.2303 19.8056C90.0049 18.6348 88.5312 17.5811 86.8091 16.6444C85.1201 15.7078 83.1662 14.9551 80.9473 14.3865ZM71.1852 32.0183L70.6284 29.0657C70.5573 28.689 70.4159 28.329 70.2116 28.0046L70.1947 27.9778C69.6464 27.1076 68.6899 26.5797 67.6614 26.5797C67.1616 26.5797 66.6698 26.7048 66.2308 26.9436L65.901 27.1229C65.0923 27.5628 64.4391 28.2417 64.0306 29.0667L63.8651 29.4011C63.4795 30.1802 63.2788 31.0379 63.2788 31.9072V34.0845C63.2788 35.4609 63.4688 36.8307 63.8434 38.1551L64.6582 41.0357L65.9508 44.5964C66.3505 45.6976 66.9386 46.7209 67.6888 47.6207L68.3071 48.3624C68.968 49.1551 69.8146 49.7722 70.7715 50.1589L71.1384 50.3071C71.6416 50.5104 72.1793 50.615 72.722 50.615C73.5363 50.615 74.3332 50.3798 75.017 49.9377L76.8423 48.7577C77.7957 48.1414 78.6534 47.3884 79.3879 46.5228L81.0143 44.6063C81.9441 43.5105 82.6884 42.2699 83.2175 40.9338C83.8288 39.3901 84.1428 37.7447 84.1428 36.0844V31.4367C84.1428 30.8768 84.0136 30.3245 83.7652 29.8228L83.5422 29.3723C83.0652 28.4087 82.0829 27.7989 81.0077 27.7989H80.9255C80.7718 27.7989 80.6185 27.8159 80.4684 27.8495C79.6623 28.0305 79.0388 28.67 78.8783 29.4805L78.2802 32.5014L77.7205 29.6749C77.6346 29.2412 77.4652 28.8282 77.2216 28.4592L76.9511 28.0493C76.489 27.3493 75.7063 26.928 74.8675 26.928C74.287 26.928 73.7246 27.1303 73.2772 27.5001L72.989 27.7383C72.3945 28.2296 71.9769 28.9019 71.8 29.6525L71.249 31.9902C71.2277 31.9995 71.2064 32.0088 71.1852 32.0183Z" fill="#7C8E62"/>
<path d="M82.6714 58.9437C82.6714 61.0117 80.9949 62.6881 78.9269 62.6881C76.8589 62.6881 75.1825 61.0117 75.1825 58.9437C75.1825 56.8757 76.8589 55.1992 78.9269 55.1992C80.9949 55.1992 82.6714 56.8757 82.6714 58.9437Z" fill="#12321A"/>
<path d="M91.6047 56.1836C91.6047 57.2865 90.7106 58.1806 89.6076 58.1806C88.5047 58.1806 87.6106 57.2865 87.6106 56.1836C87.6106 55.0806 88.5047 54.1865 89.6076 54.1865C90.7106 54.1865 91.6047 55.0806 91.6047 56.1836Z" fill="#12321A"/>
<path d="M91.1066 26.3287C91.1066 27.2938 90.3243 28.0761 89.3592 28.0761C88.3942 28.0761 87.6118 27.2938 87.6118 26.3287C87.6118 25.3636 88.3942 24.5813 89.3592 24.5813C90.3243 24.5813 91.1066 25.3636 91.1066 26.3287Z" fill="#12321A"/>
<path d="M56.8304 29.5901C56.8304 30.693 55.9363 31.5871 54.8333 31.5871C53.7304 31.5871 52.8363 30.693 52.8363 29.5901C52.8363 28.4871 53.7304 27.593 54.8333 27.593C55.9363 27.593 56.8304 28.4871 56.8304 29.5901Z" fill="#12321A"/>
<path d="M60.7389 18.3435L59.553 17.0458C60.8722 16.213 62.2932 15.5537 63.7809 15.0841L65.5141 14.537C67.3317 14.0363 69.1916 13.7048 71.0703 13.5466L71.2269 13.5334H75.4493L78.6783 13.9349C78.6783 14.826 78.4726 15.7052 78.0772 16.5038L77.5112 17.6472C77.1334 18.4105 76.6178 19.0975 75.9905 19.6736C74.8361 20.7336 73.356 21.3702 71.7925 21.4791L69.0565 21.6697C67.7018 21.7641 66.3418 21.5896 65.0548 21.1563C63.4011 20.5995 61.916 19.6316 60.7389 18.3435Z" fill="#12321A"/>
<path d="M51.158 43.6394H48.1285C48.4592 45.9773 48.9759 48.285 49.6737 50.5407L49.8672 51.166L50.4073 52.3479C51.0394 53.7313 51.7994 55.0525 52.6776 56.2943L53.0384 56.8045C53.5727 57.5601 54.1685 58.2704 54.8196 58.9281C55.6553 59.7722 56.578 60.5255 57.5723 61.1754L58.3734 61.699C59.6545 62.5362 61.0104 63.253 62.4238 63.8399C63.9839 64.4877 65.6061 64.9742 67.2652 65.2917L69.4892 65.7173L69.6617 65.0207C69.8771 64.1503 69.986 63.2569 69.986 62.3603C69.986 60.4494 69.4915 58.5711 68.5506 56.908L67.0054 54.1766L64.8192 51.119C64.1256 50.149 63.3414 49.2471 62.4772 48.4254L61.9978 47.9697C60.3869 46.4383 58.4698 45.2656 56.3729 44.5288C54.6972 43.9401 52.934 43.6394 51.158 43.6394Z" fill="#12321A"/>
<path d="M92.8363 53.6751C93.0847 53.6751 94.9972 54.0933 95.9907 54.1769C97.192 52.1823 98.0709 50.0106 98.5949 47.742L98.8471 46.6503C99.3095 44.482 99.5426 42.271 99.5426 40.054V39.8764L99.4383 38.3711C99.0248 38.6948 98.7413 39.1562 98.6393 39.6713L98.353 41.1173C98.3182 41.2933 98.2693 41.4662 98.2069 41.6344C97.8019 42.7252 96.8617 43.529 95.7212 43.7594L95.0717 43.8906L91.9885 44.9287C91.563 45.0719 91.1635 45.2833 90.8056 45.5544L90.7748 45.5777C89.8721 46.2616 89.2956 47.291 89.184 48.4179C89.1355 48.908 89.1764 49.4028 89.3048 49.8783L89.3351 49.9907C89.6678 51.2229 90.4762 52.2864 91.5552 52.9681C92.1627 53.352 92.6937 53.6751 92.8363 53.6751Z" fill="#12321A"/>
<path d="M37.4968 46.048C38.0929 46.6167 38.8049 47.4697 39.6328 48.607C40.4939 49.7109 41.3384 50.9152 42.1663 52.2198C43.0274 53.4909 43.8056 54.7454 44.5011 55.9831C45.1965 57.2208 45.6767 58.2076 45.9417 58.9435C45.6767 60.3819 45.1469 61.6196 44.3521 62.6566C43.5904 63.6936 42.6631 64.4964 41.5702 65.0651C40.4773 65.6338 39.2685 65.9516 37.9438 66.0185C36.6191 66.1188 35.2779 65.9349 33.9201 65.4665C32.5954 65.0317 31.3038 64.3125 30.0453 63.3089C28.7869 62.3054 27.6775 61.0008 26.717 59.3951C26.419 58.8933 26.0878 58.3748 25.7235 57.8396C25.3592 57.2709 24.9453 56.6354 24.4816 55.9329C24.0511 55.2304 23.5543 54.4276 22.9913 53.5244C22.4283 52.6212 21.766 51.5675 21.0043 50.3632C20.8718 50.1625 20.7394 49.9618 20.6069 49.7611C20.4744 49.5604 20.342 49.3764 20.2095 49.2092C20.077 49.2761 19.9611 49.3095 19.8618 49.3095C19.8618 49.7778 19.8452 50.2629 19.8121 50.7646C19.8121 51.2664 19.7955 51.7849 19.7624 52.3201C19.6962 53.3571 19.6299 54.3941 19.5637 55.4311C19.5306 56.4681 19.4643 57.4717 19.365 58.4417C19.2988 59.4118 19.2325 60.3318 19.1663 61.2015C19.1001 62.0378 19.0173 62.757 18.9179 63.3591C17.8913 64.4965 16.5169 65.2324 14.7948 65.5669C13.0727 65.9014 11.334 65.7509 9.57881 65.1153C7.82359 64.5132 6.20084 63.3926 4.71055 61.7534C3.25339 60.0809 2.25987 57.8229 1.72999 54.9795C1.59752 54.2436 1.46505 52.9557 1.33258 51.1159C1.20011 49.2761 1.10076 47.1519 1.03453 44.7434C0.968291 42.3349 0.918615 39.7759 0.885498 37.0663C0.885498 34.3567 0.902057 31.7642 0.935174 29.2888C1.00141 26.78 1.11732 24.522 1.28291 22.5149C1.44849 20.4744 1.66376 18.9524 1.9287 17.9488C2.65728 17.2463 3.79983 16.594 5.35634 15.9919C6.91286 15.3563 8.71776 14.8378 10.771 14.4364C12.8243 14.0015 15.0432 13.7005 17.4276 13.5332C19.8121 13.366 22.18 13.3827 24.5313 13.5834C26.9158 13.7507 29.2009 14.1521 31.3866 14.7877C33.5723 15.3898 35.4932 16.2428 37.149 17.3467C38.4737 18.2499 39.6825 19.3705 40.7754 20.7086C41.8682 22.0466 42.779 23.5352 43.5076 25.1743C44.2361 26.78 44.7329 28.4693 44.9978 30.2422C45.2959 32.0151 45.2793 33.8048 44.9482 35.6112C44.617 37.3841 43.9381 39.1068 42.9114 40.7794C41.8848 42.452 40.4276 43.9907 38.54 45.3957C38.275 45.5964 37.9273 45.8138 37.4968 46.048ZM27.1641 33.2027C27.1641 32.6005 26.9985 32.0486 26.6674 31.5468C26.3362 31.045 25.8891 30.6603 25.3261 30.3927C24.7631 30.1251 24.0677 30.008 23.2397 30.0415C22.4449 30.0749 21.5839 30.3091 20.6566 30.744C20.6566 31.2792 20.6566 31.7475 20.6566 32.1489C20.6566 32.5169 20.6566 32.8681 20.6566 33.2027C20.6566 33.5372 20.6566 33.8884 20.6566 34.2564C20.6566 34.5909 20.6566 34.9756 20.6566 35.4104C20.6566 35.5108 20.7228 35.6446 20.8553 35.8119C21.0209 35.9457 21.1533 36.0126 21.2527 36.0126C21.8819 36.0126 22.4946 36.0126 23.0907 36.0126C23.7199 36.0126 24.3326 35.9457 24.9287 35.8119C25.6904 35.6781 26.2534 35.3937 26.6177 34.9589C26.982 34.4905 27.1641 33.9051 27.1641 33.2027Z" fill="#7C8E62"/>
<path d="M14.6173 39.3743C14.6173 41.7181 12.7173 43.618 10.3736 43.618C8.02986 43.618 6.12988 41.7181 6.12988 39.3743C6.12988 37.0306 8.02986 35.1306 10.3736 35.1306C12.7173 35.1306 14.6173 37.0306 14.6173 39.3743Z" fill="#12321A"/>
<circle cx="5.90268" cy="26.8302" r="1.74741" fill="#12321A"/>
<circle cx="36.4533" cy="42.1345" r="1.99704" fill="#12321A"/>
<path d="M29.2079 59.8581L28.9769 60.4647C28.6845 61.2326 28.8179 62.0976 29.328 62.7417C29.4415 62.885 29.5715 63.0145 29.7153 63.1274L30.454 63.7078C31.3023 64.3742 32.2501 64.903 33.2626 65.275L33.3784 65.3175C34.1018 65.5832 34.851 65.7726 35.6137 65.8827L36.2125 65.9691C37.3556 66.1341 38.5229 66.0727 39.6427 65.7899C40.491 65.5757 41.3048 65.2357 42.053 64.7823L42.2311 64.6743C43.0096 64.2025 43.6976 63.5956 44.2628 62.882C44.7499 62.2669 45.1395 61.5805 45.4179 60.847L45.8999 59.577C46.0532 59.1729 46.0314 58.7231 45.8397 58.3358C45.2531 57.1507 44.1042 56.3452 42.7901 56.1978L42.663 56.1835L41.3959 56.1082C39.434 55.9916 37.4652 56.1297 35.5387 56.5189L34.1623 56.7969C33.7037 56.8895 33.2547 57.0244 32.8209 57.1996L31.1527 57.8736C30.2566 58.2357 29.5518 58.9548 29.2079 59.8581Z" fill="#12321A"/>
<path d="M1.51683 53.6454L1.25269 49.9119L2.14501 50.19C3.15726 50.5056 4.13613 50.9197 5.06756 51.4263C6.28153 52.0865 7.40615 52.8992 8.41409 53.8446L9.34582 54.7185C10.0293 55.3595 10.6504 56.0639 11.2009 56.8222C12.4558 58.5507 13.3225 60.5298 13.7416 62.6243L14.3475 65.6524L13.1056 65.7678L12.2753 65.7399C11.8359 65.7251 11.3982 65.6778 10.9658 65.5984C9.5964 65.3469 8.30502 64.778 7.19523 63.9372L6.58944 63.4783C6.13203 63.1318 5.69984 62.7532 5.29613 62.3454L4.41226 61.4526C3.42999 60.2951 2.70531 58.9417 2.28637 57.4825L2.0501 56.6596C1.76776 55.6762 1.58903 54.666 1.51683 53.6454Z" fill="#12321A"/>
<path d="M25.0537 17.5214L25.7224 13.9551C25.7512 13.8016 25.8927 13.6957 26.0481 13.7114L26.8178 13.7891C28.4359 13.9526 30.0343 14.2724 31.5907 14.744L32.3947 14.9876C33.6068 15.3549 34.7754 15.8529 35.8799 16.4727C37.737 17.5149 39.3915 18.8917 40.7552 20.5274C42.016 22.0398 43.0163 23.7574 43.708 25.6009L44.2996 27.178C44.3819 27.3973 44.262 27.6405 44.0379 27.7088L41.6415 28.4391C39.6938 29.0327 37.6453 29.2218 35.6218 28.9947L34.9194 28.9158C32.9902 28.6993 31.1419 28.02 29.5317 26.9357L28.7831 26.4316C27.4637 25.5431 26.4101 24.3132 25.7347 22.873C24.9523 21.2046 24.7141 19.3326 25.0537 17.5214Z" fill="#12321A"/>
<path d="M13.1093 12.173L9.2679 12.8514C8.90131 12.9161 8.52394 12.8565 8.19564 12.6821C7.72211 12.4306 7.39881 11.9663 7.3267 11.4342L7.17651 10.3261C7.12883 9.97425 7.12994 9.61742 7.17982 9.26567L7.61735 6.17977L8.60297 2.69736C8.75937 2.14475 9.22798 1.73663 9.79632 1.65804C10.1447 1.60986 10.4984 1.69071 10.7907 1.88537L11.8067 2.56177L15.6044 5.91942L18.2928 8.83866C18.8848 9.4815 18.9069 10.4654 18.3445 11.1373C18.0527 11.4858 17.6367 11.7069 17.1852 11.7534L13.1093 12.173Z" fill="#12321A"/>
<path d="M26.3669 12.352L22.481 12.0213C22.1102 11.9897 21.7602 11.8352 21.4866 11.5822C21.0919 11.2173 20.8962 10.6852 20.9604 10.1522L21.0941 9.04181C21.1366 8.68933 21.2275 8.34452 21.3643 8.01714L22.5643 5.14507L24.3943 2.03023C24.6846 1.53601 25.2406 1.26169 25.81 1.33166C26.1591 1.37456 26.4808 1.54359 26.7145 1.80694L27.5268 2.72206L30.3543 6.94481L32.2194 10.4587C32.6301 11.2324 32.4038 12.1896 31.6908 12.6949C31.3208 12.9571 30.8628 13.064 30.4144 12.993L26.3669 12.352Z" fill="#12321A"/>
<path d="M38.2857 16.3556L34.941 14.3227C34.6242 14.1301 34.3795 13.837 34.2453 13.4895C34.0504 12.9846 34.1083 12.4168 34.401 11.9643L35.003 11.0336C35.1956 10.7358 35.4283 10.4667 35.6945 10.2337L38.0269 8.19323L41.0267 6.21851C41.5062 5.90287 42.1265 5.90392 42.6073 6.22118C42.9014 6.41527 43.1158 6.71041 43.2104 7.0515L43.5386 8.2343L44.228 13.2844L44.3639 17.2624C44.394 18.1424 43.7692 18.9047 42.907 19.04C42.4633 19.1096 42.0095 19.0023 41.6416 18.7409L38.2857 16.3556Z" fill="#12321A"/>
<path d="M315.882 95.8306C316.014 95.5296 316.263 94.9442 316.627 94.0744C316.991 93.2047 317.422 92.1844 317.918 91.0136C318.415 89.8094 318.945 88.5048 319.508 87.0998C320.104 85.6949 320.684 84.3233 321.247 82.9853C321.843 81.6472 322.406 80.3928 322.936 79.222C323.466 78.0178 323.929 77.0309 324.327 76.2616C326.115 75.7598 327.903 75.7096 329.692 76.111C331.48 76.5124 333.003 77.2818 334.262 78.4192C335.52 79.5231 336.365 80.9615 336.795 82.7344C337.226 84.5073 336.977 86.5144 336.05 88.7557C335.222 90.6958 334.394 92.4855 333.566 94.1246C332.738 95.7303 331.877 97.3694 330.983 99.042C330.089 100.681 329.162 102.437 328.201 104.311C327.241 106.15 326.214 108.258 325.121 110.633C324.625 111.536 324.376 112.456 324.376 113.393C324.376 114.497 324.376 115.717 324.376 117.056C324.376 118.36 324.36 119.615 324.327 120.819C324.294 121.99 324.26 123.01 324.227 123.88C324.227 124.716 324.227 125.234 324.227 125.435C323.863 125.937 323.168 126.372 322.141 126.74C321.147 127.108 319.988 127.359 318.664 127.492C317.372 127.626 315.998 127.609 314.54 127.442C313.116 127.275 311.792 126.874 310.566 126.238C309.374 125.602 308.364 124.699 307.536 123.528C306.708 122.358 306.261 120.869 306.195 119.063C306.195 118.762 306.195 118.31 306.195 117.708C306.195 117.106 306.195 116.487 306.195 115.851C306.195 115.182 306.195 114.58 306.195 114.045C306.228 113.51 306.245 113.158 306.245 112.991C306.211 112.556 306.145 112.222 306.046 111.988C305.98 111.72 305.864 111.402 305.698 111.034C304.705 109.094 303.579 106.903 302.32 104.461C301.062 101.986 299.803 99.4434 298.545 96.8342C297.286 94.225 296.061 91.6492 294.869 89.1069C293.71 86.5311 292.683 84.1561 291.789 81.9817C292.617 79.9747 293.809 78.4359 295.365 77.3654C296.922 76.2616 298.528 75.5925 300.184 75.3584C301.84 75.1242 303.38 75.2747 304.804 75.81C306.261 76.3452 307.321 77.2316 307.983 78.4693C308.513 79.4729 309.076 80.6771 309.672 82.0821C310.301 83.4536 310.914 84.8753 311.51 86.3472C312.139 87.819 312.736 89.2574 313.299 90.6624C313.895 92.0673 314.425 93.2883 314.888 94.3253C314.988 94.5929 315.087 94.8438 315.186 95.078C315.286 95.2787 315.385 95.5128 315.484 95.7804C315.683 95.7804 315.815 95.7972 315.882 95.8306Z" fill="#7C8E62"/>
<path d="M331.156 93.8736C331.156 95.9416 329.479 97.618 327.411 97.618C325.343 97.618 323.667 95.9416 323.667 93.8736C323.667 91.8056 325.343 90.1292 327.411 90.1292C329.479 90.1292 331.156 91.8056 331.156 93.8736Z" fill="#12321A"/>
<path d="M306.313 80.0749C306.313 81.4536 305.195 82.5712 303.817 82.5712C302.438 82.5712 301.32 81.4536 301.32 80.0749C301.32 78.6962 302.438 77.5786 303.817 77.5786C305.195 77.5786 306.313 78.6962 306.313 80.0749Z" fill="#12321A"/>
<path d="M315.25 110.432C315.25 111.397 314.468 112.18 313.503 112.18C312.537 112.18 311.755 111.397 311.755 110.432C311.755 109.467 312.537 108.685 313.503 108.685C314.468 108.685 315.25 109.467 315.25 110.432Z" fill="#12321A"/>
<path d="M324.858 109.93H325.425L324.909 111.062C324.499 111.964 324.334 112.958 324.431 113.944V117.958L324.282 121.972L324.233 125.415C324.233 125.428 324.228 125.44 324.22 125.449C323.738 125.967 323.142 126.365 322.478 126.611L321.451 126.99L320.209 127.291L318.967 127.467L318.389 126.807C317.618 125.928 316.948 124.966 316.393 123.937L316.164 123.513C315.881 122.989 315.644 122.441 315.458 121.875L315.38 121.641C314.962 120.373 314.83 119.027 314.994 117.701L315.016 117.523C315.164 116.323 315.576 115.17 316.221 114.146C316.723 113.348 317.359 112.643 318.1 112.06C318.838 111.481 319.67 111.031 320.559 110.732L321.125 110.541C322.328 110.136 323.588 109.93 324.858 109.93Z" fill="#12321A"/>
<path d="M297.24 91.4964L296.165 91.8665L299.792 99.3931L304.859 109.428L306.796 107.923L308.739 106.353C309.099 106.062 309.43 105.739 309.73 105.386C310.415 104.578 310.919 103.632 311.208 102.613L311.436 101.805C311.653 101.037 311.764 100.243 311.764 99.445V99.0252C311.764 98.2729 311.63 97.5267 311.368 96.8214C311.136 96.1981 310.808 95.6152 310.395 95.094L309.684 94.1959C309.25 93.6484 308.754 93.1538 308.205 92.7224C307.275 91.9918 306.209 91.4539 305.069 91.1398L304.901 91.0935C304.344 90.9401 303.774 90.8364 303.199 90.7836L302.954 90.761C301.877 90.6621 300.792 90.703 299.725 90.8825L299.51 90.9188C298.739 91.0486 297.979 91.2418 297.24 91.4964Z" fill="#12321A"/>
<path d="M321.909 83.705L320.993 83.587L322.781 79.5729L324.291 76.2971C324.316 76.2429 324.365 76.2035 324.424 76.1907L324.712 76.1277C325.68 75.9164 326.67 75.8264 327.659 75.8597L327.717 76.0224C327.844 76.3812 327.931 76.7527 327.978 77.1304C328.095 78.0721 327.954 79.0278 327.572 79.8964L327.467 80.1365C327.265 80.5953 327.008 81.0281 326.702 81.4252L326.373 81.853C325.756 82.6544 324.904 83.2429 323.936 83.5363C323.279 83.7351 322.589 83.7926 321.909 83.705Z" fill="#12321A"/>
<path d="M265.093 102.9C265.159 102.732 265.209 102.582 265.242 102.448C265.308 102.281 265.358 102.113 265.391 101.946C266.153 98.601 266.914 95.2726 267.676 91.9609C268.471 88.6492 269.249 85.3208 270.011 81.9757C270.143 81.5074 270.292 81.0391 270.458 80.5707C270.623 80.069 270.789 79.5672 270.955 79.0654C272.942 77.7608 275.028 77.0082 277.214 76.8074C279.4 76.6067 281.42 76.8911 283.274 77.6605C285.162 78.4298 286.768 79.6508 288.093 81.3234C289.418 82.996 290.245 85.0699 290.577 87.5454C290.709 88.5154 290.858 89.8033 291.024 91.409C291.222 92.9812 291.438 94.6872 291.67 96.5271C291.901 98.3669 292.117 100.223 292.315 102.097C292.547 103.97 292.746 105.643 292.911 107.114C293.243 109.958 293.557 112.667 293.855 115.243C294.153 117.819 294.468 120.528 294.799 123.372C293.441 125.145 291.835 126.349 289.981 126.985C288.159 127.654 286.387 127.821 284.665 127.486C282.943 127.185 281.436 126.433 280.145 125.228C278.886 123.991 278.141 122.368 277.909 120.361C277.744 118.856 277.628 117.551 277.562 116.447C277.528 115.343 277.495 114.24 277.462 113.136C277.462 111.998 277.446 110.777 277.412 109.473C277.412 108.135 277.379 106.512 277.313 104.606C277.247 104.572 277.131 104.555 276.965 104.555C276.866 105.091 276.767 105.609 276.667 106.111C276.568 106.613 276.452 107.131 276.32 107.666C275.657 110.61 274.978 113.537 274.283 116.447C273.621 119.324 272.925 122.234 272.197 125.178C271.634 125.513 270.905 125.83 270.011 126.132C269.117 126.399 268.14 126.583 267.08 126.683C266.053 126.817 264.977 126.817 263.851 126.683C262.725 126.583 261.665 126.299 260.672 125.83C259.711 125.362 258.85 124.71 258.089 123.874C257.327 123.004 256.78 121.883 256.449 120.512C256.151 119.307 255.803 117.852 255.406 116.146C255.009 114.44 254.611 112.768 254.214 111.129C253.849 109.456 253.502 107.967 253.171 106.663C252.839 105.358 252.608 104.488 252.475 104.054C252.343 105.96 252.21 107.8 252.078 109.573C251.978 111.313 251.862 113.052 251.73 114.792C251.631 116.498 251.515 118.237 251.382 120.01C251.283 121.783 251.167 123.639 251.035 125.58C249.014 126.683 246.961 127.336 244.875 127.537C242.788 127.771 240.934 127.436 239.311 126.533C237.721 125.63 236.513 124.124 235.685 122.017C234.89 119.876 234.741 117.016 235.238 113.437C235.635 110.46 236.148 107.449 236.777 104.405C237.44 101.361 238.003 98.3502 238.466 95.373C238.93 92.5631 239.41 89.7866 239.907 87.0436C240.404 84.3006 240.884 81.5408 241.348 78.7644C241.977 78.1622 242.821 77.6605 243.881 77.259C244.941 76.8242 246.1 76.5398 247.358 76.406C248.617 76.2388 249.925 76.2555 251.283 76.4562C252.641 76.6569 253.916 77.0751 255.108 77.7106C256.333 78.3462 257.426 79.2327 258.387 80.37C259.347 81.5074 260.059 82.9458 260.523 84.6853C260.754 85.555 261.003 86.5585 261.268 87.6959C261.566 88.7998 261.847 89.9706 262.112 91.2083C262.41 92.4125 262.708 93.6502 263.006 94.9214C263.305 96.1925 263.586 97.4135 263.851 98.5843C263.884 98.6512 263.95 98.9021 264.05 99.337C264.149 99.7718 264.248 100.24 264.348 100.742C264.447 101.244 264.546 101.712 264.646 102.147C264.745 102.582 264.811 102.833 264.844 102.9H265.093Z" fill="#7C8E62"/>
<path d="M256.54 86.5418C256.54 88.8855 254.64 90.7855 252.296 90.7855C249.952 90.7855 248.052 88.8855 248.052 86.5418C248.052 84.1981 249.952 82.2981 252.296 82.2981C254.64 82.2981 256.54 84.1981 256.54 86.5418Z" fill="#12321A"/>
<path d="M290.31 110.878C290.31 112.256 289.193 113.374 287.814 113.374C286.435 113.374 285.318 112.256 285.318 110.878C285.318 109.499 286.435 108.381 287.814 108.381C289.193 108.381 290.31 109.499 290.31 110.878Z" fill="#12321A"/>
<path d="M260.004 107.616C260.004 108.581 259.222 109.364 258.256 109.364C257.291 109.364 256.509 108.581 256.509 107.616C256.509 106.651 257.291 105.869 258.256 105.869C259.222 105.869 260.004 106.651 260.004 107.616Z" fill="#12321A"/>
<path d="M270.677 119.658C270.875 119.658 272.581 119.993 273.409 120.16L275.396 112.132L276.986 104.555L277.309 104.595L277.175 103.805C276.997 102.753 276.255 101.884 275.244 101.543C274.853 101.412 274.439 101.365 274.029 101.407L272.167 101.595L270.023 102.059C269.149 102.248 268.338 102.658 267.668 103.251C267.034 103.811 266.545 104.516 266.244 105.307L265.944 106.095C265.624 106.936 265.437 107.823 265.39 108.722L265.324 109.982C265.25 111.401 265.46 112.82 265.941 114.157C266.756 116.42 268.252 118.452 270.396 119.542C270.542 119.616 270.641 119.658 270.677 119.658Z" fill="#12321A"/>
<path d="M272.912 78.3071V77.9615L273.531 77.6972C274.603 77.2401 275.734 76.9352 276.89 76.7914C277.877 76.6687 278.875 76.6643 279.864 76.7784L280.063 76.8014C281.25 76.9385 282.411 77.2494 283.508 77.7242C284.715 78.2469 285.83 78.9633 286.743 79.9106C287.144 80.3267 287.474 80.6779 287.566 80.7714C288.963 82.1827 289.795 84.0235 290.266 85.9529L290.348 86.2909C289.493 86.7893 288.561 87.1436 287.591 87.3396L286.974 87.4642C285.883 87.6846 284.768 87.7607 283.657 87.6906C282.136 87.5945 280.644 87.2255 279.254 86.6012L277.88 85.9847C277.22 85.6883 276.601 85.308 276.038 84.8531C274.964 83.9851 274.12 82.8659 273.58 81.5947C273.139 80.5549 272.912 79.4366 272.912 78.3071Z" fill="#12321A"/>
<path d="M237.641 114.892L235.009 115.393L235.406 111.881L236.002 108.369L237.393 101.595L238.585 94.5698L240.028 95.232C241.238 95.7879 242.319 96.592 243.199 97.5921C243.632 98.0848 244.014 98.621 244.337 99.1922L245.008 100.378C245.555 101.346 245.895 102.417 246.004 103.524C246.059 104.076 246.056 104.632 245.995 105.184L245.681 108.04C245.62 108.591 245.486 109.131 245.282 109.647C244.835 110.777 244.065 111.75 243.069 112.447L242.412 112.906C241.719 113.391 240.96 113.774 240.159 114.044L237.641 114.892Z" fill="#12321A"/>
<path d="M195.405 114.84C195.338 113.703 195.289 112.164 195.256 110.224C195.222 108.284 195.206 106.143 195.206 103.802C195.206 101.426 195.222 98.9511 195.256 96.3753C195.322 93.7661 195.388 91.2405 195.454 88.7986C195.554 86.3566 195.653 84.0819 195.752 81.9745C195.885 79.8336 196.034 78.0607 196.199 76.6557C197.59 76.5219 199.23 76.4215 201.117 76.3546C203.005 76.2543 205.025 76.1874 207.178 76.1539C209.364 76.1205 211.616 76.1038 213.934 76.1038C216.252 76.1038 218.504 76.1372 220.69 76.2041C222.875 76.2376 224.945 76.3045 226.899 76.4048C228.853 76.5052 230.575 76.6055 232.066 76.7059C232.364 77.1408 232.629 77.8265 232.86 78.7631C233.125 79.6663 233.258 80.6866 233.258 81.8239C233.258 82.9278 233.109 84.0819 232.811 85.2862C232.513 86.457 231.983 87.5274 231.221 88.4975C230.493 89.4676 229.466 90.2704 228.141 90.906C226.85 91.5081 225.21 91.8092 223.223 91.8092H212.99V94.4184C213.719 94.4184 214.729 94.4017 216.02 94.3682C217.312 94.3013 218.686 94.2846 220.143 94.3181C221.6 94.3181 223.058 94.385 224.515 94.5188C225.972 94.6526 227.23 94.8867 228.29 95.2212C229.019 96.8938 229.433 98.4828 229.532 99.9881C229.631 101.493 229.4 102.831 228.837 104.002C228.274 105.173 227.396 106.126 226.204 106.862C225.012 107.565 223.505 107.966 221.683 108.067C221.054 108.1 220.458 108.117 219.895 108.117C219.365 108.117 218.785 108.117 218.156 108.117C217.527 108.117 216.798 108.117 215.971 108.117C215.176 108.083 214.199 108.067 213.04 108.067V111.127H214.182H230.128C231.055 112.465 231.652 113.954 231.917 115.593C232.215 117.232 232.099 118.804 231.569 120.31C231.072 121.815 230.128 123.136 228.737 124.274C227.379 125.411 225.525 126.13 223.174 126.431C222.478 126.532 221.567 126.615 220.441 126.682C219.315 126.749 218.09 126.799 216.765 126.833C215.441 126.866 214.066 126.866 212.642 126.833C211.218 126.833 209.844 126.816 208.519 126.783C207.228 126.749 206.052 126.682 204.992 126.582C203.932 126.482 203.104 126.364 202.508 126.231C200.157 125.629 198.435 124.441 197.342 122.668C196.249 120.862 195.603 118.253 195.405 114.84Z" fill="#7C8E62"/>
<path d="M213.321 120.661C213.321 123.005 211.421 124.905 209.077 124.905C206.734 124.905 204.834 123.005 204.834 120.661C204.834 118.317 206.734 116.417 209.077 116.417C211.421 116.417 213.321 118.317 213.321 120.661Z" fill="#12321A"/>
<path d="M203.378 111.63C203.378 113.146 202.148 114.376 200.632 114.376C199.115 114.376 197.886 113.146 197.886 111.63C197.886 110.113 199.115 108.884 200.632 108.884C202.148 108.884 203.378 110.113 203.378 111.63Z" fill="#12321A"/>
<path d="M208.838 106.11C208.838 107.075 208.056 107.858 207.091 107.858C206.126 107.858 205.343 107.075 205.343 106.11C205.343 105.145 206.126 104.363 207.091 104.363C208.056 104.363 208.838 105.145 208.838 106.11Z" fill="#12321A"/>
<path d="M226.224 81.0216C226.224 81.9866 225.441 82.769 224.476 82.769C223.511 82.769 222.729 81.9866 222.729 81.0216C222.729 80.0565 223.511 79.2742 224.476 79.2742C225.441 79.2742 226.224 80.0565 226.224 81.0216Z" fill="#12321A"/>
<path d="M224.125 111.233L224.229 111.128H230.139C230.171 111.128 230.201 111.145 230.217 111.173L230.648 111.898C231.329 113.045 231.765 114.32 231.929 115.644L232.092 117.129C232.149 117.642 232.141 118.161 232.069 118.672C231.976 119.325 231.78 119.959 231.487 120.551L231.072 121.39C230.652 122.237 230.1 123.011 229.435 123.682C228.622 124.504 227.655 125.157 226.589 125.606L226.454 125.663C225.637 126.007 224.776 126.235 223.897 126.342L222.739 126.482L220.007 126.708L221.387 125.819C221.784 125.564 222.105 125.205 222.314 124.781C222.589 124.227 222.658 123.594 222.509 122.994L222.242 121.916L222.159 121.536C221.884 120.288 221.745 119.013 221.745 117.736V117.019C221.745 116.605 221.777 116.191 221.839 115.781C222.101 114.061 222.902 112.469 224.125 111.233Z" fill="#12321A"/>
<path d="M196.145 89.9615L195.416 90.0535L195.665 84.0322L195.863 80.3944L196.211 76.6562L200.632 76.2548L204.855 76.2046C205.02 77.0703 205.066 77.9544 204.994 78.8327L204.855 80.5198L204.636 81.7357C204.452 82.7598 204.124 83.7529 203.662 84.6854L203.476 85.0613C203.073 85.8753 202.542 86.6192 201.903 87.2646C201.065 88.1108 200.059 88.771 198.949 89.2022L198.586 89.3433C197.8 89.6483 196.981 89.8559 196.145 89.9615Z" fill="#12321A"/>
<path d="M216.797 95.5855L217.025 94.3181H221.744C222.986 94.4017 225.52 94.569 225.719 94.569C225.913 94.569 227.49 94.9541 228.255 95.2057C228.285 95.2156 228.309 95.2381 228.321 95.2675L228.405 95.464C228.93 96.7017 229.288 98.0037 229.469 99.3358L227.706 101.343L227.557 101.493C226.682 102.376 225.564 102.98 224.346 103.226C223.937 103.308 223.522 103.35 223.105 103.35H222.455C221.504 103.35 220.572 103.081 219.768 102.573C219.268 102.257 218.828 101.856 218.467 101.387L218.092 100.901C217.552 100.199 217.155 99.3973 216.924 98.5417C216.663 97.5778 216.62 96.5682 216.797 95.5855Z" fill="#12321A"/>
<path d="M191.566 100.139C191.566 101.678 191.417 103.417 191.119 105.358C190.854 107.298 190.34 109.288 189.579 111.329C188.85 113.336 187.857 115.309 186.598 117.25C185.34 119.19 183.75 120.929 181.829 122.468C179.908 123.973 177.607 125.194 174.924 126.131C172.242 127.034 169.096 127.486 165.486 127.486C162.505 127.486 159.905 127.268 157.687 126.833C155.468 126.398 153.597 125.679 152.073 124.676C150.583 123.639 149.407 122.301 148.546 120.662C147.718 119.022 147.205 116.999 147.006 114.59C146.642 110.476 146.46 105.374 146.46 99.2861C146.493 93.1645 146.725 86.307 147.155 78.7135C148.513 77.9106 150.119 77.2583 151.974 76.7566C153.828 76.2214 155.782 75.8367 157.836 75.6025C159.889 75.3683 161.975 75.268 164.095 75.3014C166.247 75.3349 168.301 75.4687 170.255 75.7029C172.209 75.937 174.013 76.2715 175.669 76.7064C177.325 77.1413 178.7 77.643 179.792 78.2117C183.8 80.3526 186.764 83.196 188.684 86.7418C190.605 90.2542 191.566 94.72 191.566 100.139ZM166.529 111.579C167.489 111.546 168.45 111.446 169.41 111.278C170.371 111.111 171.232 110.676 171.993 109.974C172.755 109.238 173.368 108.151 173.831 106.712C174.328 105.274 174.576 103.284 174.576 100.741C174.576 98.2993 174.229 96.4595 173.533 95.2218C172.838 93.9506 171.96 93.0809 170.9 92.6125C169.841 92.1108 168.698 91.8933 167.473 91.9602C166.281 92.0271 165.188 92.1609 164.194 92.3617C164.194 93.1645 164.178 94.2517 164.145 95.6232C164.145 96.9947 164.145 98.5 164.145 100.139C164.145 101.745 164.145 103.401 164.145 105.107C164.145 106.813 164.161 108.368 164.194 109.773C164.194 110.175 164.277 110.492 164.443 110.726C164.641 110.961 164.857 111.145 165.088 111.278C165.353 111.379 165.602 111.462 165.834 111.529C166.098 111.563 166.33 111.579 166.529 111.579Z" fill="#7C8E62"/>
<path d="M158.182 107.615C158.182 109.959 156.282 111.859 153.938 111.859C151.594 111.859 149.694 109.959 149.694 107.615C149.694 105.271 151.594 103.371 153.938 103.371C156.282 103.371 158.182 105.271 158.182 107.615Z" fill="#12321A"/>
<path d="M159.661 89.8025C159.661 90.9054 158.767 91.7995 157.664 91.7995C156.561 91.7995 155.667 90.9054 155.667 89.8025C155.667 88.6995 156.561 87.8054 157.664 87.8054C158.767 87.8054 159.661 88.6995 159.661 89.8025Z" fill="#12321A"/>
<path d="M185.989 98.5841C185.989 99.8249 184.983 100.831 183.743 100.831C182.502 100.831 181.496 99.8249 181.496 98.5841C181.496 97.3433 182.502 96.3374 183.743 96.3374C184.983 96.3374 185.989 97.3433 185.989 98.5841Z" fill="#12321A"/>
<path d="M181.721 119.957L183.048 121.414L184.737 119.658C186.124 117.99 187.346 116.19 188.384 114.284L188.463 114.139L189.232 112.251C189.877 110.669 190.384 109.034 190.748 107.365L189.704 106.863L188.231 106.367C187.724 106.196 187.205 106.062 186.678 105.965L186.187 105.875C185.227 105.699 184.245 105.691 183.283 105.853L182.855 105.926C182.129 106.048 181.431 106.302 180.797 106.676L180.663 106.755C179.449 107.47 178.548 108.614 178.138 109.962C177.903 110.73 177.837 111.54 177.942 112.337L178.032 113.019C178.195 114.253 178.618 115.439 179.273 116.497L180.014 117.696C180.512 118.501 181.083 119.258 181.721 119.957Z" fill="#12321A"/>
<path d="M165.364 79.0151L164.122 75.302L167.848 75.4525L172.815 76.0045L174.635 76.4089C176.722 76.8727 178.731 77.638 180.598 78.6806L180.687 78.7303C181.565 79.2206 182.405 79.7743 183.202 80.3871C184.617 81.4749 185.885 82.7417 186.974 84.1558L187.072 84.2837L184.801 85.5582C183.934 86.0447 183.01 86.4215 182.05 86.6801C180.544 87.0857 178.974 87.1938 177.427 86.9985L175.796 86.7925L174.992 86.697C172.762 86.432 170.658 85.5201 168.94 84.0739C167.728 83.0539 166.74 81.7948 166.037 80.3754L165.364 79.0151Z" fill="#12321A"/>
<path d="M147.824 114.877L147.009 114.64L147.015 114.719C147.159 116.497 147.558 118.245 148.201 119.909C148.613 120.907 149.166 121.842 149.842 122.683L150.113 123.02C151.646 124.568 153.54 125.709 155.624 126.341L155.925 126.432L158.409 126.984L158.161 124.676C157.674 122.544 156.6 120.591 155.062 119.037L155.02 118.994C154.466 118.435 153.858 117.931 153.204 117.491L152.739 117.178C151.23 116.161 149.571 115.385 147.824 114.877Z" fill="#12321A"/>
<path d="M95.0137 111.443C95.3449 109.77 95.7589 107.914 96.2556 105.873C96.7855 103.833 97.365 101.742 97.9943 99.601C98.6235 97.4601 99.2859 95.3192 99.9813 93.1783C100.677 91.004 101.372 88.9467 102.068 87.0065C102.796 85.0663 103.475 83.2934 104.104 81.6878C104.767 80.0821 105.363 78.7608 105.893 77.7238C107.019 77.3558 108.343 76.9878 109.867 76.6199C111.39 76.2519 112.996 76.001 114.685 75.8672C116.408 75.7 118.163 75.7167 119.951 75.9174C121.739 76.1181 123.445 76.6031 125.068 77.3725C126.724 78.1085 128.247 79.1956 129.638 80.634C131.029 82.0724 132.205 83.9457 133.165 86.2539C133.595 87.3578 134.092 88.746 134.655 90.4186C135.251 92.0577 135.847 93.8808 136.444 95.8879C137.073 97.895 137.702 100.002 138.331 102.21C138.96 104.418 139.557 106.626 140.12 108.834C140.716 111.041 141.246 113.199 141.709 115.306C142.206 117.38 142.603 119.304 142.901 121.077C142.769 121.98 142.289 122.883 141.461 123.786C140.633 124.656 139.59 125.409 138.331 126.044C137.106 126.646 135.732 127.048 134.208 127.249C132.718 127.449 131.261 127.315 129.837 126.847C128.413 126.412 127.104 125.576 125.912 124.338C124.72 123.067 123.793 121.294 123.13 119.02C121.541 118.953 119.901 118.953 118.212 119.02C116.557 119.053 114.934 119.036 113.344 118.969C112.914 120.04 112.5 121.194 112.102 122.432C111.738 123.636 111.374 124.89 111.009 126.195C107.963 127.332 105.313 127.734 103.061 127.399C100.809 127.065 98.9878 126.195 97.5969 124.79C96.2391 123.385 95.3283 121.528 94.8647 119.22C94.4342 116.879 94.4838 114.286 95.0137 111.443ZM115.282 104.619H121.392C120.928 102.578 120.448 100.571 119.951 98.5974C119.454 96.5904 118.974 94.5833 118.51 92.5762C118.411 92.6096 118.262 92.6264 118.063 92.6264C117.6 94.6335 117.136 96.6238 116.672 98.5974C116.209 100.538 115.745 102.545 115.282 104.619Z" fill="#7C8E62"/>
<path d="M108.198 105.773C108.198 108.117 106.298 110.017 103.955 110.017C101.611 110.017 99.7108 108.117 99.7108 105.773C99.7108 103.429 101.611 101.529 103.955 101.529C106.298 101.529 108.198 103.429 108.198 105.773Z" fill="#12321A"/>
<path d="M130.048 87.9607C130.048 89.3393 128.93 90.457 127.551 90.457C126.173 90.457 125.055 89.3393 125.055 87.9607C125.055 86.582 126.173 85.4644 127.551 85.4644C128.93 85.4644 130.048 86.582 130.048 87.9607Z" fill="#12321A"/>
<path d="M116.134 111.794C116.134 112.759 115.352 113.541 114.387 113.541C113.422 113.541 112.639 112.759 112.639 111.794C112.639 110.828 113.422 110.046 114.387 110.046C115.352 110.046 116.134 110.828 116.134 111.794Z" fill="#12321A"/>
<path d="M109.288 117.682L109.565 117.962C110.774 119.183 111.662 120.684 112.151 122.331L111.115 125.961C111.064 126.138 110.928 126.278 110.752 126.333L109.916 126.596L106.935 127.349L106.194 127.432C105.202 127.543 104.199 127.532 103.21 127.399L103.127 127.391C100.086 127.115 97.3984 125.3 96.0066 122.582L95.7956 122.113C95.1144 120.599 94.7227 118.971 94.6406 117.313L94.9283 117.042C95.9649 116.065 97.2091 115.334 98.5677 114.906C99.8269 114.508 101.155 114.379 102.468 114.526L102.864 114.571C104.24 114.725 105.574 115.145 106.791 115.807C107.71 116.307 108.551 116.939 109.288 117.682Z" fill="#12321A"/>
<path d="M134.506 95.2356L135.847 93.9812L137.238 98.4971L139.076 104.769L141.153 112.82C141.191 112.967 141.175 113.124 141.107 113.26C141.017 113.442 140.845 113.57 140.644 113.604L138.902 113.897C138.297 113.999 137.677 113.964 137.087 113.794L136.184 113.533C135.077 113.214 134.05 112.665 133.169 111.923L133.018 111.796C132.035 110.969 131.246 109.935 130.707 108.769C130.103 107.461 129.83 106.024 129.914 104.586L129.949 103.976C130.006 103.004 130.189 102.043 130.495 101.118L130.537 100.99C131.185 99.0259 132.321 97.2581 133.839 95.8525L134.506 95.2356Z" fill="#12321A"/>
<path d="M102.507 87.54L101.993 87.207L104.303 81.1857L105.813 77.8496C105.863 77.7382 105.961 77.6558 106.08 77.6257L110.505 76.5009C112.423 76.0133 114.395 75.7666 116.374 75.7666L116.765 76.8972C117 77.5795 117.155 78.2871 117.226 79.0055L117.252 79.2604C117.329 80.0375 117.285 80.8219 117.123 81.5858C116.798 83.1212 116.004 84.518 114.853 85.5843L113.642 86.7052L113.374 86.9761C112.258 88.1038 110.809 88.8438 109.241 89.0874C108.699 89.1716 108.15 89.1955 107.603 89.1587L107.31 89.1389C105.599 89.0237 103.945 88.4733 102.507 87.54Z" fill="#12321A"/>
<path d="M77.8288 92.2086C77.0722 92.008 76.365 91.8742 75.7071 91.8073C75.0492 91.7404 74.4077 91.7404 73.7827 91.8073C73.1906 91.8742 72.582 92.0247 71.957 92.2588C71.332 92.4929 70.6905 92.8274 70.0326 93.2622C69.1445 93.8308 68.4208 94.483 67.8616 95.2188C67.3352 95.9547 66.924 96.7574 66.628 97.627C66.3648 98.4632 66.2168 99.3663 66.1839 100.336C66.151 101.273 66.2003 102.226 66.3319 103.196C66.5293 104.668 66.9569 105.905 67.6148 106.909C68.2728 107.912 69.0787 108.698 70.0326 109.266C71.0195 109.802 72.105 110.153 73.2893 110.32C74.5064 110.487 75.74 110.471 76.99 110.27C77.8124 110.17 78.6841 109.935 79.6052 109.568C80.5262 109.2 81.3815 108.798 82.171 108.363C82.9934 107.929 83.7171 107.511 84.3421 107.109C85 106.708 85.477 106.407 85.773 106.206C86.9243 106.44 87.9934 106.942 88.9803 107.711C89.9671 108.48 90.7566 109.417 91.3487 110.521C91.9738 111.625 92.3685 112.862 92.533 114.233C92.7304 115.571 92.5823 116.926 92.0889 118.297C91.6284 119.668 90.806 121.006 89.6218 122.311C88.4375 123.582 86.7928 124.719 84.6875 125.722C83.3717 126.358 81.8749 126.809 80.1973 127.077C78.5196 127.378 76.7926 127.528 75.0163 127.528C73.2728 127.562 71.5294 127.478 69.7859 127.278C68.0425 127.077 66.4635 126.793 65.049 126.425C60.7397 125.288 57.2364 123.348 54.539 120.605C51.8416 117.829 49.8843 114.3 48.6672 110.019C47.8448 107.042 47.4172 104.082 47.3843 101.139C47.3514 98.1622 47.8284 95.1854 48.8152 92.2086C49.9337 88.864 51.5949 86.0712 53.7989 83.8302C56.0028 81.5558 58.6509 79.6326 61.743 78.0606C63.8154 77.0572 65.9865 76.3214 68.2563 75.8532C70.5261 75.3515 72.8781 75.1675 75.3123 75.3013C77.7466 75.4351 80.2466 75.9033 82.8124 76.706C85.3783 77.5088 87.9934 78.6794 90.6579 80.218C91.283 82.6261 91.2665 84.7333 90.6086 86.5394C89.9507 88.3121 88.9474 89.7336 87.5987 90.8039C86.25 91.8742 84.6875 92.5431 82.9111 92.8107C81.1348 93.0783 79.4407 92.8776 77.8288 92.2086Z" fill="#7C8E62"/>
<path d="M61.6191 96.1718C61.6191 98.2327 59.9484 99.9034 57.8875 99.9034C55.8266 99.9034 54.1559 98.2327 54.1559 96.1718C54.1559 94.1109 55.8266 92.4402 57.8875 92.4402C59.9484 92.4402 61.6191 94.1109 61.6191 96.1718Z" fill="#12321A"/>
<path d="M66.543 114.986C66.543 116.36 65.4291 117.474 64.0551 117.474C62.681 117.474 61.5671 116.36 61.5671 114.986C61.5671 113.612 62.681 112.499 64.0551 112.499C65.4291 112.499 66.543 113.612 66.543 114.986Z" fill="#12321A"/>
<path d="M76.8937 121.257C76.8937 121.944 76.3367 122.501 75.6497 122.501C74.9627 122.501 74.4058 121.944 74.4058 121.257C74.4058 120.57 74.9627 120.013 75.6497 120.013C76.3367 120.013 76.8937 120.57 76.8937 121.257Z" fill="#12321A"/>
<path d="M82.3221 80.1182C82.3221 80.8052 81.7652 81.3622 81.0782 81.3622C80.3912 81.3622 79.8342 80.8052 79.8342 80.1182C79.8342 79.4312 80.3912 78.8743 81.0782 78.8743C81.7652 78.8743 82.3221 79.4312 82.3221 80.1182Z" fill="#12321A"/>
<path d="M80.8488 109.667L81.0788 108.965L83.7927 107.46L85.7396 106.174C85.7566 106.162 85.7776 106.159 85.7972 106.165L86.2204 106.283C87.2244 106.564 88.1659 107.033 88.9948 107.665C89.4727 108.029 89.9092 108.445 90.2966 108.904L90.3623 108.982C90.9141 109.637 91.3714 110.365 91.7208 111.147L91.868 111.476C92.2391 112.307 92.4877 113.186 92.6059 114.088C92.8126 115.664 92.6158 117.267 92.0338 118.746L91.9342 119C90.8056 121.295 89.0555 123.227 86.8831 124.577L86.7149 124.681C86.0835 125.074 85.4226 125.416 84.7381 125.706L83.99 126.023C83.3686 125.691 82.8011 125.266 82.3069 124.764L82.1485 124.602C81.4411 123.883 80.8655 123.038 80.4538 122.117C80.0527 121.22 79.8073 120.254 79.7332 119.274L79.5985 117.494C79.5985 114.836 80.0205 112.193 80.8488 109.667Z" fill="#12321A"/>
<path d="M58.381 88.396H57.8873C55.6143 88.396 53.3708 87.8814 51.325 86.8909C52.564 84.9017 54.1641 83.1617 56.0429 81.7609L56.9007 81.1213L57.6275 80.5794C59.6006 79.1082 61.7679 77.9172 64.0676 77.0404C65.7003 76.4179 67.3902 75.9573 69.113 75.6653L70.9634 75.3518L74.1707 75.2515C74.1707 75.6515 74.126 76.0504 74.0374 76.4405L73.9062 77.0188C73.5923 78.402 73.0055 79.7088 72.1803 80.8624L72.0088 81.1021C71.6414 81.6158 71.2344 82.1001 70.7915 82.5504L68.9897 84.3824L67.664 85.5955C66.9074 86.2879 66.0503 86.8617 65.1218 87.2974C63.9289 87.8572 62.6383 88.1796 61.3222 88.2465L58.381 88.396Z" fill="#12321A"/>
<path d="M48.5902 106.131L47.7473 105.705L48.0118 107.188C48.3121 108.871 48.7636 110.525 49.3608 112.127L49.4004 112.233C49.9586 113.731 50.6479 115.177 51.4603 116.554L51.8148 117.155C52.2442 117.882 52.7256 118.578 53.2553 119.236C54.2014 120.412 55.2953 121.46 56.5099 122.356L56.6539 122.462L57.3643 119.97C57.5477 119.326 57.6407 118.661 57.6407 117.991C57.6407 116.682 57.2843 115.397 56.6096 114.274L55.5492 112.51C55.135 111.821 54.6648 111.167 54.1433 110.555L53.994 110.38C52.4928 108.619 50.6558 107.174 48.5902 106.131Z" fill="#12321A"/>
<path d="M0.43852 111.278C0.769693 109.606 1.18366 107.749 1.68042 105.709C2.2103 103.668 2.78985 101.578 3.41908 99.4367C4.04831 97.2958 4.71066 95.1549 5.40613 93.014C6.10159 90.8397 6.79706 88.7824 7.49252 86.8422C8.2211 84.902 8.90001 83.1291 9.52924 81.5235C10.1916 79.9178 10.7877 78.5965 11.3176 77.5595C12.4436 77.1915 13.7683 76.8235 15.2917 76.4556C16.8151 76.0876 18.4213 75.8367 20.1102 75.7029C21.8323 75.5356 23.5876 75.5524 25.3759 75.7531C27.1642 75.9538 28.8698 76.4388 30.4925 77.2082C32.1484 77.9442 33.6718 79.0313 35.0627 80.4697C36.4537 81.9081 37.6293 83.7814 38.5897 86.0896C39.0203 87.1935 39.517 88.5817 40.08 90.2543C40.6761 91.8934 41.2722 93.7165 41.8684 95.7236C42.4976 97.7307 43.1268 99.8381 43.7561 102.046C44.3853 104.254 44.9814 106.461 45.5444 108.669C46.1405 110.877 46.6704 113.035 47.134 115.142C47.6308 117.216 48.0282 119.14 48.3262 120.912C48.1938 121.816 47.7136 122.719 46.8856 123.622C46.0577 124.492 45.0145 125.244 43.7561 125.88C42.5307 126.482 41.1563 126.884 39.6329 127.084C38.1427 127.285 36.6855 127.151 35.2614 126.683C33.8374 126.248 32.5293 125.412 31.337 124.174C30.1448 122.903 29.2175 121.13 28.5552 118.855C26.9655 118.788 25.3262 118.788 23.6372 118.855C21.9814 118.889 20.3586 118.872 18.769 118.805C18.3385 119.875 17.9245 121.03 17.5271 122.267C17.1628 123.472 16.7985 124.726 16.4342 126.031C13.3874 127.168 10.738 127.569 8.48604 127.235C6.23406 126.9 4.41261 126.031 3.02168 124.626C1.66386 123.221 0.753135 121.364 0.289492 119.056C-0.141034 116.714 -0.0913583 114.122 0.43852 111.278ZM20.7064 104.454H26.8165C26.3529 102.414 25.8727 100.407 25.3759 98.4331C24.8791 96.4261 24.3989 94.419 23.9353 92.4119C23.8359 92.4453 23.6869 92.4621 23.4882 92.4621C23.0246 94.4691 22.5609 96.4595 22.0973 98.4331C21.6336 100.373 21.17 102.38 20.7064 104.454Z" fill="#7C8E62"/>
<path d="M13.6246 105.608C13.6246 107.952 11.7246 109.852 9.38091 109.852C7.03718 109.852 5.13721 107.952 5.13721 105.608C5.13721 103.264 7.03718 101.364 9.38091 101.364C11.7246 101.364 13.6246 103.264 13.6246 105.608Z" fill="#12321A"/>
<path d="M35.4726 87.7961C35.4726 89.1748 34.3549 90.2924 32.9763 90.2924C31.5976 90.2924 30.48 89.1748 30.48 87.7961C30.48 86.4174 31.5976 85.2998 32.9763 85.2998C34.3549 85.2998 35.4726 86.4174 35.4726 87.7961Z" fill="#12321A"/>
<path d="M21.5599 111.629C21.5599 112.595 20.7775 113.377 19.8125 113.377C18.8474 113.377 18.0651 112.595 18.0651 111.629C18.0651 110.664 18.8474 109.882 19.8125 109.882C20.7775 109.882 21.5599 110.664 21.5599 111.629Z" fill="#12321A"/>
<path d="M14.7133 117.518L14.9907 117.798C16.1995 119.019 17.0879 120.52 17.5771 122.167L16.5405 125.797C16.4899 125.974 16.3538 126.114 16.1782 126.169L15.3418 126.432L12.3611 127.185L11.6203 127.268C10.6277 127.379 9.62526 127.368 8.63543 127.235L8.55231 127.227C5.5114 126.951 2.82418 125.136 1.4324 122.418L1.22135 121.949C0.540202 120.435 0.148474 118.807 0.0664062 117.149L0.354102 116.878C1.39073 115.901 2.63484 115.17 3.99346 114.741C5.25268 114.344 6.5812 114.215 7.89342 114.362L8.28966 114.407C9.66623 114.561 10.9998 114.981 12.2167 115.643C13.136 116.143 13.9771 116.774 14.7133 117.518Z" fill="#12321A"/>
<path d="M39.9314 95.0711L41.2726 93.8167L42.6636 98.3326L44.5016 104.605L46.5787 112.656C46.6167 112.803 46.6005 112.959 46.533 113.095C46.4427 113.278 46.2705 113.406 46.0698 113.44L44.3278 113.733C43.7228 113.835 43.1027 113.799 42.5133 113.629L41.6099 113.368C40.5033 113.049 39.476 112.501 38.5948 111.759L38.4434 111.631C37.4604 110.804 36.6715 109.77 36.1325 108.604C35.5283 107.296 35.256 105.859 35.3397 104.421L35.3752 103.811C35.4319 102.839 35.6151 101.878 35.9203 100.954L35.9624 100.826C36.6107 98.8614 37.7471 97.0935 39.2651 95.688L39.9314 95.0711Z" fill="#12321A"/>
<path d="M7.93142 87.3759L7.41809 87.0429L9.72764 81.0217L11.2375 77.6855C11.2879 77.5741 11.3863 77.4917 11.5048 77.4616L15.9295 76.3369C17.8479 75.8492 19.8197 75.6025 21.7991 75.6025L22.1896 76.7331C22.4252 77.4155 22.5802 78.123 22.6513 78.8414L22.6765 79.0963C22.7535 79.8735 22.7102 80.6578 22.5481 81.4218C22.2224 82.9571 21.4292 84.3539 20.2775 85.4202L19.0669 86.5411L18.7987 86.8121C17.6823 87.9397 16.2338 88.6797 14.6658 88.9234C14.1242 89.0075 13.575 89.0314 13.0282 88.9946L12.7344 88.9748C11.0233 88.8596 9.3701 88.3092 7.93142 87.3759Z" fill="#12321A"/>
</svg>
