<svg width="186" height="71" viewBox="0 0 186 71" fill="none" xmlns="http://www.w3.org/2000/svg">
<path d="M165.288 19.8404C166.44 20.5604 167.336 21.3913 167.975 22.3329C168.633 23.256 169.072 24.2253 169.291 25.2407C169.511 26.2377 169.538 27.244 169.374 28.2594C169.209 29.2564 168.898 30.198 168.441 31.0842C167.984 31.9704 167.399 32.7551 166.687 33.4382C165.992 34.1214 165.215 34.6383 164.356 34.9891C163.753 35.2291 163.022 35.4414 162.163 35.6261C161.322 35.8292 160.408 35.9676 159.421 36.0415C158.434 36.1338 157.401 36.1523 156.323 36.0969C155.244 36.0599 154.175 35.9307 153.115 35.7092C152.055 35.4876 151.022 35.1645 150.017 34.7399C149.03 34.2967 148.125 33.7336 147.302 33.0505C146.864 32.4966 146.571 31.8874 146.425 31.2227C146.297 30.558 146.288 29.9118 146.398 29.2841C146.507 28.6564 146.727 28.0748 147.056 27.5394C147.403 27.0039 147.832 26.5793 148.344 26.2654C148.856 25.9331 149.432 25.7577 150.072 25.7392C150.73 25.7023 151.433 25.8685 152.183 26.2377C153.151 26.7178 154.038 27.0963 154.842 27.3732C155.665 27.6501 156.387 27.8163 157.008 27.8717C157.63 27.9086 158.132 27.844 158.516 27.6778C158.9 27.4932 159.147 27.1886 159.256 26.7639C159.33 26.487 159.375 26.2562 159.394 26.0716C159.412 25.8869 159.366 25.7392 159.256 25.6285C159.147 25.4992 158.946 25.4069 158.653 25.3515C158.379 25.2777 157.986 25.2223 157.474 25.1854C156.359 25.1115 155.244 24.89 154.129 24.5207C153.033 24.1514 152.018 23.6345 151.086 22.9698C150.154 22.3052 149.359 21.4928 148.701 20.5327C148.043 19.5542 147.604 18.4095 147.385 17.0987C147.33 16.7109 147.312 16.2494 147.33 15.7139C147.366 15.1601 147.467 14.5785 147.631 13.9692C147.796 13.3599 148.043 12.7414 148.372 12.1137C148.701 11.486 149.139 10.8859 149.688 10.3136C150.236 9.72277 150.903 9.18734 151.689 8.70731C152.493 8.22728 153.444 7.83956 154.541 7.54416C155.436 7.30414 156.405 7.1472 157.447 7.07335C158.489 6.9995 159.503 7.00873 160.49 7.10105C161.496 7.19336 162.437 7.36876 163.314 7.62724C164.21 7.88572 164.95 8.20882 165.535 8.59654C166.339 9.13196 166.943 9.7043 167.345 10.3136C167.765 10.9044 168.03 11.5044 168.14 12.1137C168.249 12.7045 168.222 13.2861 168.058 13.8584C167.911 14.4308 167.674 14.9477 167.345 15.4093C167.016 15.8709 166.614 16.2678 166.138 16.6002C165.681 16.914 165.188 17.1356 164.658 17.2648C164.329 16.8586 163.89 16.5078 163.342 16.2124C162.812 15.917 162.236 15.6862 161.614 15.5201C161.011 15.3539 160.399 15.2616 159.777 15.2431C159.156 15.2062 158.589 15.2431 158.078 15.3539C157.584 15.4647 157.173 15.6493 156.844 15.9078C156.533 16.1663 156.378 16.4986 156.378 16.9048C156.378 17.2187 156.506 17.4679 156.761 17.6525C157.017 17.8372 157.493 17.9756 158.187 18.068C160.198 18.3264 161.761 18.6126 162.876 18.9265C163.991 19.2219 164.795 19.5265 165.288 19.8404Z" fill="#C9D691"/>
<path d="M153.105 16.4619C153.105 17.6033 152.18 18.5285 151.039 18.5285C149.897 18.5285 148.972 17.6033 148.972 16.4619C148.972 15.3205 149.897 14.3952 151.039 14.3952C152.18 14.3952 153.105 15.3205 153.105 16.4619Z" fill="#A0B297"/>
<path d="M165.989 30.8625C165.989 31.6995 165.311 32.378 164.474 32.378C163.637 32.378 162.958 31.6995 162.958 30.8625C162.958 30.0255 163.637 29.3469 164.474 29.3469C165.311 29.3469 165.989 30.0255 165.989 30.8625Z" fill="#A0B297"/>
<path d="M154.471 21.4467C154.471 21.9794 154.039 22.4112 153.507 22.4112C152.974 22.4112 152.542 21.9794 152.542 21.4467C152.542 20.9141 152.974 20.4823 153.507 20.4823C154.039 20.4823 154.471 20.9141 154.471 21.4467Z" fill="#A0B297"/>
<path d="M157.212 33.909C157.212 34.4417 156.781 34.8735 156.248 34.8735C155.715 34.8735 155.284 34.4417 155.284 33.909C155.284 33.3764 155.715 32.9446 156.248 32.9446C156.781 32.9446 157.212 33.3764 157.212 33.909Z" fill="#A0B297"/>
<path d="M164.067 10.092C164.067 10.6247 163.635 11.0565 163.103 11.0565C162.57 11.0565 162.138 10.6247 162.138 10.092C162.138 9.55938 162.57 9.12758 163.103 9.12758C163.635 9.12758 164.067 9.55938 164.067 10.092Z" fill="#A0B297"/>
<path d="M160.636 20.0619L160.91 18.4833L162.692 18.8157L163.11 18.9309C164.032 19.1848 164.907 19.5832 165.704 20.1114L165.724 20.1247C166.078 20.3595 166.415 20.6198 166.731 20.9036L166.761 20.9308C167.245 21.3655 167.677 21.8552 168.048 22.39L168.088 22.4477C168.329 22.7951 168.54 23.1622 168.719 23.5451C169.013 24.174 169.219 24.8406 169.331 25.5259L169.456 26.2931C169.154 26.5671 168.798 26.7757 168.412 26.9058L168.076 27.019C167.597 27.1802 167.095 27.2624 166.59 27.2624H166.157C165.858 27.2624 165.559 27.2409 165.263 27.1982L164.918 27.1484C164.175 27.0412 163.459 26.7553 162.845 26.3255C162.297 25.9427 161.83 25.4422 161.489 24.8679C161.286 24.527 161.128 24.1618 161.017 23.7811L160.899 23.377C160.634 22.4665 160.533 21.5163 160.6 20.5704L160.636 20.0619Z" fill="#A0B297"/>
<path d="M151.734 9.71505L151.176 9.0395L151.725 8.67948L152.273 8.37484C153.454 7.80591 154.716 7.42289 156.014 7.23934L156.797 7.1286C158.339 6.89035 159.911 6.91806 161.444 7.21053L161.595 7.23938L162.349 7.37785L163.103 7.57171C163.103 7.8395 162.94 8.08049 162.692 8.18081L162.593 8.22087C162.478 8.26751 162.353 8.2871 162.229 8.27814L161.464 8.22294C160.846 8.17839 160.237 8.38432 159.773 8.79427C159.528 9.01067 159.332 9.2767 159.198 9.57468L159.026 9.95746C158.822 10.4111 158.523 10.8162 158.151 11.1456L158.083 11.2049C157.777 11.4756 157.42 11.6823 157.032 11.8127C156.349 12.0428 155.606 12.0244 154.935 11.7608L154.077 11.4237C153.698 11.2748 153.336 11.0849 152.998 10.8573L152.976 10.8422C152.51 10.5283 152.091 10.1486 151.734 9.71505Z" fill="#A0B297"/>
<path d="M149.482 26.1154L149.12 25.8914C148.667 26.0469 148.249 26.289 147.889 26.6042L147.837 26.6496C147.687 26.7809 147.547 26.9232 147.418 27.0752L147.287 27.2299C146.958 27.6176 146.701 28.0612 146.529 28.5396C146.339 29.0675 146.255 29.6279 146.283 30.1884L146.291 30.357C146.313 30.7842 146.393 31.2064 146.532 31.6112L146.586 31.7718C146.774 32.3216 147.084 32.8218 147.493 33.2346C147.754 33.4981 148.051 33.7225 148.376 33.9008L149.153 34.3265C149.587 34.5647 150.039 34.7701 150.504 34.9409L151.313 35.2382L151.999 34.0473L152.184 33.6261C152.424 33.082 152.547 32.4942 152.547 31.8998C152.547 31.5786 152.511 31.2583 152.439 30.9451L152.136 29.6163L151.989 29.2083C151.724 28.4719 151.318 27.7939 150.795 27.2121C150.411 26.7861 149.969 26.4169 149.482 26.1154Z" fill="#A0B297"/>
<path d="M137.608 16.7662C136.694 16.4893 135.962 16.0554 135.414 15.4646C134.884 14.8738 134.5 14.2276 134.263 13.526C134.043 12.806 133.961 12.0767 134.016 11.3382C134.071 10.5997 134.226 9.935 134.482 9.34419C134.884 8.45798 135.46 7.73793 136.209 7.18405C136.959 6.63016 137.991 6.33476 139.307 6.29783C140.185 6.27937 140.943 6.41784 141.583 6.71325C142.241 7.00865 142.78 7.41483 143.201 7.93179C143.639 8.44875 143.968 9.03956 144.188 9.70422C144.407 10.3689 144.526 11.052 144.544 11.7536C144.563 12.6583 144.435 13.5722 144.16 14.4953C143.904 15.4185 143.575 16.3047 143.173 17.154C142.789 18.0032 142.351 18.7971 141.857 19.5357C141.382 20.2742 140.934 20.9111 140.514 21.4466C139.947 22.1666 139.335 22.6559 138.677 22.9144C138.019 23.1544 137.406 23.2374 136.84 23.1636C136.292 23.0897 135.825 22.8959 135.442 22.582C135.076 22.2497 134.893 21.862 134.893 21.4189C135.35 20.5326 135.816 19.7295 136.292 19.0095C136.785 18.271 137.224 17.5232 137.608 16.7662Z" fill="#C9D691"/>
<path d="M138.016 7.77454V6.43636L138.944 6.31137C139.419 6.24735 139.901 6.25529 140.374 6.33491C140.989 6.43846 141.578 6.66151 142.108 6.99144L142.21 7.05552C142.466 7.21468 142.704 7.39923 142.923 7.60636C143.304 7.96821 143.619 8.39451 143.852 8.86565L143.907 8.97792C144.092 9.35003 144.23 9.74295 144.321 10.1482L144.431 10.6459L143.225 11.1998L142.583 11.3944C142.102 11.5401 141.597 11.5892 141.097 11.5387L141.053 11.5342C140.676 11.4961 140.307 11.3976 139.961 11.2424L139.837 11.1864C139.45 11.0128 139.106 10.7568 138.828 10.4364C138.476 10.0301 138.244 9.5343 138.156 9.00389L138.077 8.5272C138.036 8.27841 138.016 8.02669 138.016 7.77454Z" fill="#A0B297"/>
<path d="M137.748 10.0917C137.748 10.7766 137.192 11.3317 136.508 11.3317C135.823 11.3317 135.268 10.7766 135.268 10.0917C135.268 9.4069 135.823 8.85173 136.508 8.85173C137.192 8.85173 137.748 9.4069 137.748 10.0917Z" fill="#A0B297"/>
<path d="M141.311 17.2924C141.311 17.825 140.879 18.2568 140.346 18.2568C139.814 18.2568 139.382 17.825 139.382 17.2924C139.382 16.7597 139.814 16.3279 140.346 16.3279C140.879 16.3279 141.311 16.7597 141.311 17.2924Z" fill="#A0B297"/>
<path d="M121.096 18.3725C121.169 18.2063 121.306 17.8832 121.508 17.4032C121.709 16.9232 121.946 16.36 122.22 15.7138C122.495 15.0492 122.787 14.3291 123.098 13.5537C123.427 12.7783 123.747 12.0213 124.057 11.2828C124.386 10.5443 124.697 9.8519 124.99 9.2057C125.282 8.54104 125.538 7.99639 125.757 7.57175C126.744 7.29481 127.731 7.26711 128.718 7.48867C129.705 7.71022 130.546 8.13486 131.241 8.7626C131.935 9.37187 132.401 10.1658 132.639 11.1443C132.877 12.1228 132.74 13.2306 132.228 14.4676C131.771 15.5384 131.314 16.5262 130.857 17.4309C130.4 18.3171 129.925 19.2218 129.431 20.1449C128.938 21.0496 128.426 22.0189 127.896 23.0528C127.366 24.0683 126.799 25.2314 126.196 26.5423C125.922 27.0408 125.785 27.5485 125.785 28.0655C125.785 28.6747 125.785 29.3486 125.785 30.0871C125.785 30.8072 125.776 31.4995 125.757 32.1642C125.739 32.8104 125.721 33.3735 125.702 33.8535C125.702 34.3151 125.702 34.6013 125.702 34.7121C125.501 34.989 125.118 35.229 124.551 35.4321C124.003 35.6352 123.363 35.7737 122.632 35.8475C121.919 35.9214 121.16 35.9121 120.356 35.8198C119.57 35.7275 118.839 35.506 118.163 35.1552C117.505 34.8044 116.947 34.3059 116.49 33.6597C116.033 33.0135 115.786 32.1919 115.75 31.1949C115.75 31.0287 115.75 30.7795 115.75 30.4472C115.75 30.1148 115.75 29.7733 115.75 29.4225C115.75 29.0532 115.75 28.7209 115.75 28.4255C115.768 28.1301 115.777 27.9362 115.777 27.8439C115.759 27.6039 115.722 27.4193 115.668 27.29C115.631 27.1423 115.567 26.9669 115.476 26.7638C114.927 25.693 114.306 24.4837 113.611 23.1359C112.917 21.7696 112.222 20.3665 111.528 18.9264C110.833 17.4863 110.157 16.0646 109.499 14.6615C108.859 13.2398 108.292 11.929 107.799 10.7289C108.256 9.62112 108.914 8.77183 109.773 8.18102C110.632 7.57175 111.518 7.20249 112.432 7.07325C113.346 6.94401 114.196 7.0271 114.982 7.3225C115.786 7.6179 116.371 8.10717 116.737 8.79029C117.029 9.34418 117.34 10.0088 117.669 10.7843C118.016 11.5413 118.354 12.3259 118.684 13.1383C119.031 13.9506 119.36 14.7445 119.671 15.52C120 16.2954 120.292 16.9693 120.548 17.5417C120.603 17.6894 120.658 17.8278 120.712 17.9571C120.767 18.0678 120.822 18.1971 120.877 18.3448C120.987 18.3448 121.06 18.354 121.096 18.3725Z" fill="#C9D691"/>
<path d="M129.527 17.2925C129.527 18.4339 128.601 19.3592 127.46 19.3592C126.319 19.3592 125.393 18.4339 125.393 17.2925C125.393 16.1511 126.319 15.2258 127.46 15.2258C128.601 15.2258 129.527 16.1511 129.527 17.2925Z" fill="#A0B297"/>
<path d="M115.814 9.67648C115.814 10.4374 115.197 11.0543 114.436 11.0543C113.675 11.0543 113.058 10.4374 113.058 9.67648C113.058 8.91555 113.675 8.2987 114.436 8.2987C115.197 8.2987 115.814 8.91555 115.814 9.67648Z" fill="#A0B297"/>
<path d="M120.748 26.4317C120.748 26.9643 120.316 27.3961 119.783 27.3961C119.251 27.3961 118.819 26.9643 118.819 26.4317C118.819 25.899 119.251 25.4672 119.783 25.4672C120.316 25.4672 120.748 25.899 120.748 26.4317Z" fill="#A0B297"/>
<path d="M126.05 26.1546H126.363L126.078 26.7795C125.852 27.2772 125.761 27.8259 125.815 28.3701V30.5856L125.732 32.8012L125.705 34.7015C125.705 34.7083 125.702 34.7149 125.698 34.7199C125.432 35.0061 125.103 35.2257 124.737 35.3611L124.17 35.5706L123.484 35.7368L122.799 35.8337L122.479 35.4697C122.054 34.9846 121.684 34.4532 121.378 33.8854L121.251 33.6515C121.095 33.3621 120.965 33.0595 120.862 32.7472L120.819 32.6184C120.588 31.9182 120.515 31.1754 120.606 30.4435L120.618 30.3457C120.7 29.683 120.927 29.0465 121.283 28.4815C121.56 28.0413 121.911 27.6519 122.32 27.3305C122.728 27.0105 123.187 26.7625 123.678 26.5972L123.99 26.4921C124.653 26.2686 125.349 26.1546 126.05 26.1546Z" fill="#A0B297"/>
<path d="M110.807 15.9804L110.214 16.1847L112.216 20.3388L115.012 25.8777L116.082 25.0468L117.154 24.1803C117.353 24.0199 117.536 23.8411 117.701 23.6464C118.079 23.2005 118.357 22.6786 118.517 22.1159L118.643 21.6698C118.763 21.2461 118.823 20.8079 118.823 20.3675V20.1358C118.823 19.7206 118.749 19.3087 118.605 18.9195C118.477 18.5755 118.296 18.2537 118.068 17.966L117.676 17.4704C117.436 17.1682 117.162 16.8952 116.859 16.6571C116.346 16.2539 115.758 15.957 115.128 15.7836L115.036 15.7581C114.728 15.6734 114.414 15.6162 114.096 15.587L113.961 15.5746C113.367 15.52 112.768 15.5425 112.179 15.6416L112.06 15.6616C111.634 15.7333 111.216 15.8399 110.807 15.9804Z" fill="#A0B297"/>
<path d="M124.423 11.6804L123.918 11.6153L124.905 9.39973L125.738 7.59177C125.752 7.56182 125.779 7.54008 125.811 7.53305L125.971 7.49827C126.505 7.38166 127.051 7.33197 127.597 7.35036L127.629 7.44015C127.699 7.63818 127.747 7.84323 127.773 8.0517C127.837 8.57145 127.76 9.09892 127.549 9.57829L127.491 9.71082C127.379 9.96407 127.238 10.2029 127.069 10.4221L126.887 10.6582C126.547 11.1005 126.076 11.4254 125.542 11.5873C125.18 11.697 124.799 11.7287 124.423 11.6804Z" fill="#A0B297"/>
<path d="M93.3029 17.8742C93.7599 17.1541 94.1894 16.471 94.5915 15.8248C95.0119 15.1602 95.4323 14.514 95.8527 13.8862C96.1086 13.4985 96.4285 13.0185 96.8124 12.4461C97.1962 11.8738 97.5892 11.2922 97.9913 10.7014C98.4117 10.0921 98.8139 9.51055 99.1977 8.95667C99.5815 8.38432 99.9014 7.90429 100.157 7.51657C101.126 7.31348 102.077 7.3504 103.009 7.62734C103.941 7.88583 104.709 8.32893 105.312 8.95667C105.933 9.5844 106.317 10.3783 106.463 11.3384C106.628 12.2984 106.427 13.3693 105.86 14.5509C105.495 15.3079 105.193 15.9171 104.955 16.3787C104.718 16.8218 104.48 17.2372 104.243 17.625C104.005 18.0127 103.74 18.4281 103.447 18.8712C103.173 19.3143 102.817 19.8866 102.378 20.5882C102.177 20.8836 102.168 21.1975 102.351 21.5298C102.844 22.4714 103.365 23.4223 103.914 24.3823C104.48 25.3424 105.019 26.284 105.531 27.2071C106.043 28.1118 106.509 28.9888 106.929 29.8381C107.368 30.6689 107.715 31.4259 107.971 32.109C107.789 32.6998 107.469 33.2629 107.012 33.7984C106.573 34.3338 106.043 34.7953 105.422 35.1831C104.818 35.5523 104.151 35.8108 103.42 35.9585C102.689 36.1247 101.967 36.1339 101.254 35.9862C100.541 35.857 99.8466 35.5431 99.1703 35.0446C98.5123 34.5461 97.9456 33.8168 97.4704 32.8568C97.1779 32.2844 96.8306 31.6197 96.4285 30.8628C96.0447 30.0873 95.5329 29.0627 94.8931 27.7887C94.7286 28.0472 94.5641 28.3149 94.3996 28.5919C94.2351 28.8503 94.0797 29.1088 93.9335 29.3673C93.8056 29.6258 93.6868 29.8658 93.5771 30.0873C93.4674 30.3089 93.4034 30.4935 93.3852 30.6412C93.3303 30.9366 93.3029 31.4444 93.3029 32.1644C93.3212 32.8844 93.3669 33.6322 93.44 34.4076C93.0379 34.74 92.5352 35.0169 91.932 35.2385C91.3471 35.4415 90.7074 35.5708 90.0128 35.6262C89.3365 35.6816 88.6419 35.6446 87.929 35.5154C87.2345 35.3862 86.5856 35.1554 85.9824 34.823C85.3975 34.4907 84.8948 34.0476 84.4744 33.4937C84.0723 32.9214 83.8164 32.229 83.7067 31.4167C83.5971 30.6597 83.4965 29.7088 83.4051 28.5642C83.332 27.401 83.268 26.1548 83.2132 24.8254C83.1584 23.4777 83.1127 22.0837 83.0761 20.6436C83.0578 19.1851 83.0487 17.7634 83.0487 16.3787C83.067 14.994 83.0944 13.7016 83.131 12.5015C83.1858 11.283 83.2589 10.2398 83.3503 9.37208C83.7159 8.91051 84.2094 8.53202 84.8309 8.23662C85.4523 7.92275 86.1286 7.71043 86.8598 7.59965C87.5909 7.48887 88.3312 7.48887 89.0806 7.59965C89.83 7.69196 90.5063 7.91352 91.1095 8.26431C91.731 8.6151 92.2428 9.09514 92.6449 9.70441C93.047 10.2952 93.2663 11.043 93.3029 11.9476C93.3395 12.76 93.3577 13.3877 93.3577 13.8308C93.376 14.2555 93.3852 14.6247 93.3852 14.9386C93.3852 15.234 93.376 15.5479 93.3577 15.8802C93.3395 16.1941 93.3212 16.6464 93.3029 17.2372C93.2846 17.3111 93.2755 17.3942 93.2755 17.4865C93.2938 17.5788 93.3029 17.708 93.3029 17.8742Z" fill="#C9D691"/>
<path d="M88.4002 11.7538C88.4002 12.8951 87.4749 13.8204 86.3335 13.8204C85.1921 13.8204 84.2668 12.8951 84.2668 11.7538C84.2668 10.6124 85.1921 9.68708 86.3335 9.68708C87.4749 9.68708 88.4002 10.6124 88.4002 11.7538Z" fill="#A0B297"/>
<path d="M91.1386 19.0928C91.1386 19.8537 90.5218 20.4706 89.7608 20.4706C88.9999 20.4706 88.3831 19.8537 88.3831 19.0928C88.3831 18.3318 88.9999 17.715 89.7608 17.715C90.5218 17.715 91.1386 18.3318 91.1386 19.0928Z" fill="#A0B297"/>
<path d="M101.555 18.4002C101.555 18.9328 101.123 19.3646 100.59 19.3646C100.058 19.3646 99.6259 18.9328 99.6259 18.4002C99.6259 17.8675 100.058 17.4357 100.59 17.4357C101.123 17.4357 101.555 17.8675 101.555 18.4002Z" fill="#A0B297"/>
<path d="M83.7438 30.184L83.5638 30.3088L83.575 30.7046C83.5858 31.0857 83.6398 31.4643 83.7359 31.8332L83.7662 31.9495C84.0924 33.2015 84.9143 34.2668 86.0426 34.8999C86.5071 35.1606 87.0121 35.3414 87.5365 35.4349L88.0722 35.5304C88.7379 35.6491 89.416 35.6826 90.0902 35.6302L90.3358 35.6112C90.6826 35.5842 91.0266 35.5278 91.3639 35.4427L91.4023 35.433C92.1289 35.2495 92.8142 34.93 93.4219 34.4916C93.4463 34.474 93.4586 34.4441 93.4537 34.4145L93.4491 34.3869C93.3662 33.8845 93.3245 33.3762 93.3246 32.867L93.3246 32.8012L92.7931 32.063C92.4182 31.5424 91.9707 31.0782 91.4641 30.6846C90.7913 30.1619 90.0252 29.772 89.2067 29.5358L88.6592 29.3777C87.9378 29.1696 87.1829 29.1033 86.4364 29.1827C85.4691 29.2856 84.5432 29.6299 83.7438 30.184Z" fill="#A0B297"/>
<path d="M101.998 23.0599L102.811 22.4159L104.209 24.9084L105.937 27.9547L107.445 30.8626L107.054 31.139C106.413 31.5919 105.659 31.8566 104.876 31.9031C104.134 31.9472 103.394 31.7939 102.731 31.459L102.595 31.3902C102.265 31.2236 101.956 31.0194 101.673 30.7816L101.302 30.4695C100.745 30.0004 100.313 29.4003 100.045 28.723L100.026 28.6761C99.7667 28.0211 99.6761 27.3114 99.7626 26.6122C99.8557 25.8596 100.151 25.1462 100.616 24.5476L100.954 24.1131C101.259 23.7215 101.609 23.368 101.998 23.0599Z" fill="#A0B297"/>
<path d="M95.7812 15.8814L94.8055 15.4924L100.179 7.46106C100.355 7.72663 100.415 8.05183 100.347 8.36259L100.334 8.42127C100.238 8.85861 100.37 9.31489 100.685 9.63312L101.018 9.97007C101.099 10.0512 101.173 10.1386 101.239 10.2313L101.808 11.0205C102.089 11.4114 102.274 11.8635 102.346 12.3396L102.365 12.4629C102.459 13.0787 102.336 13.708 102.018 14.2436C101.801 14.6094 101.5 14.9184 101.14 15.1455L100.635 15.4642C99.8869 15.9367 99.0299 16.2094 98.1462 16.2564L98.0805 16.2599C97.2957 16.3016 96.5112 16.1725 95.7812 15.8814Z" fill="#A0B297"/>
<path d="M73.2861 16.4892C72.8657 16.3785 72.4727 16.3046 72.1071 16.2677C71.7416 16.2308 71.3851 16.2308 71.0379 16.2677C70.7088 16.3046 70.3707 16.3877 70.0234 16.5169C69.6761 16.6462 69.3197 16.8308 68.9541 17.0708C68.4606 17.3847 68.0585 17.7447 67.7477 18.1509C67.4553 18.5571 67.2268 19.0002 67.0623 19.4802C66.9161 19.9418 66.8338 20.4403 66.8155 20.9757C66.7973 21.4927 66.8247 22.0189 66.8978 22.5543C67.0075 23.3666 67.2451 24.0498 67.6107 24.6036C67.9762 25.1575 68.424 25.5914 68.9541 25.9053C69.5025 26.2007 70.1057 26.3945 70.7637 26.4869C71.44 26.5792 72.1254 26.5699 72.82 26.4592C73.277 26.4038 73.7613 26.2745 74.2731 26.0714C74.7849 25.8683 75.2602 25.6468 75.6989 25.4068C76.1558 25.1668 76.5579 24.936 76.9052 24.7144C77.2708 24.4929 77.5358 24.3267 77.7003 24.2159C78.3401 24.3452 78.9341 24.6221 79.4825 25.0468C80.0308 25.4714 80.4695 25.9884 80.7985 26.5976C81.1458 27.2069 81.3652 27.89 81.4566 28.647C81.5662 29.3855 81.484 30.1333 81.2098 30.8902C80.9539 31.6472 80.497 32.3857 79.8389 33.1058C79.1809 33.8074 78.267 34.4351 77.0972 34.989C76.366 35.3398 75.5344 35.589 74.6022 35.7367C73.67 35.9029 72.7103 35.986 71.7233 35.986C70.7545 36.0044 69.7858 35.9583 68.817 35.8475C67.8483 35.7367 66.9709 35.5798 66.1849 35.3767C63.7905 34.749 61.8438 33.6781 60.345 32.1642C58.8461 30.6318 57.7586 28.6839 57.0823 26.3207C56.6253 24.6775 56.3877 23.0435 56.3694 21.4188C56.3511 19.7756 56.6162 18.1324 57.1645 16.4892C57.786 14.643 58.7091 13.1013 59.9337 11.8643C61.1584 10.6088 62.6298 9.54724 64.3479 8.67949C65.4995 8.1256 66.7059 7.71942 67.9671 7.46094C69.2283 7.184 70.5352 7.08245 71.8878 7.15631C73.2404 7.23016 74.6296 7.48864 76.0553 7.93174C77.481 8.37485 78.9341 9.02105 80.4147 9.87034C80.762 11.1997 80.7528 12.3628 80.3873 13.3598C80.0217 14.3383 79.4642 15.123 78.7148 15.7138C77.9654 16.3046 77.0972 16.6739 76.1101 16.8216C75.1231 16.9693 74.1817 16.8585 73.2861 16.4892Z" fill="#C9D691"/>
<path d="M64.2727 18.6773C64.2727 19.8187 63.3475 20.744 62.2061 20.744C61.0647 20.744 60.1394 19.8187 60.1394 18.6773C60.1394 17.5359 61.0647 16.6106 62.2061 16.6106C63.3475 16.6106 64.2727 17.5359 64.2727 18.6773Z" fill="#A0B297"/>
<path d="M67.0107 29.0624C67.0107 29.8234 66.3938 30.4402 65.6329 30.4402C64.872 30.4402 64.2551 29.8234 64.2551 29.0624C64.2551 28.3015 64.872 27.6847 65.6329 27.6847C66.3938 27.6847 67.0107 28.3015 67.0107 29.0624Z" fill="#A0B297"/>
<path d="M72.7649 32.5241C72.7649 32.9046 72.4564 33.213 72.076 33.213C71.6955 33.213 71.3871 32.9046 71.3871 32.5241C71.3871 32.1437 71.6955 31.8353 72.076 31.8353C72.4564 31.8353 72.7649 32.1437 72.7649 32.5241Z" fill="#A0B297"/>
<path d="M75.781 9.81493C75.781 10.1954 75.4726 10.5038 75.0921 10.5038C74.7116 10.5038 74.4032 10.1954 74.4032 9.81493C74.4032 9.43446 74.7116 9.12604 75.0921 9.12604C75.4726 9.12604 75.781 9.43446 75.781 9.81493Z" fill="#A0B297"/>
<path d="M74.9637 26.1275L75.0919 25.739L76.5999 24.9081L77.6818 24.1979C77.6912 24.1917 77.7028 24.1898 77.7137 24.1929L77.9517 24.259C78.5077 24.4134 79.0296 24.6717 79.4896 25.0202C79.7557 25.2218 79.999 25.452 80.2151 25.7066L80.2497 25.7474C80.5568 26.1092 80.8114 26.5124 81.0061 26.9452L81.0875 27.126C81.2934 27.5836 81.4314 28.0687 81.497 28.5662C81.6119 29.4363 81.5025 30.3214 81.1794 31.1375L81.1238 31.2778C80.4967 32.5447 79.5264 33.6101 78.3235 34.3526L78.2218 34.4154C77.8722 34.6312 77.5064 34.8196 77.1277 34.979L76.7096 35.155C76.3643 34.9714 76.0487 34.7367 75.7736 34.4588L75.6875 34.3718C75.2936 33.974 74.974 33.5081 74.7442 32.9976C74.521 32.5015 74.3854 31.9697 74.3441 31.4272L74.2694 30.447C74.2694 28.9794 74.5038 27.5212 74.9637 26.1275Z" fill="#A0B297"/>
<path d="M62.4802 14.3844H62.2035C60.9419 14.3844 59.6964 14.1005 58.5594 13.5536C59.2479 12.4556 60.1358 11.496 61.1772 10.7246L61.6576 10.3688L62.0575 10.0726C63.1566 9.25849 64.3627 8.5999 65.6417 8.11543C66.5478 7.77221 67.4853 7.51837 68.4407 7.35751L69.4717 7.18395L71.2538 7.12859C71.2538 7.34942 71.229 7.56956 71.1798 7.78485L71.1067 8.105C70.9324 8.86794 70.607 9.58822 70.1497 10.2233L70.0519 10.3592C69.8482 10.6421 69.6227 10.9086 69.3774 11.1564L68.375 12.1689L67.6407 12.8364C67.2187 13.22 66.7412 13.5377 66.2243 13.7787C65.5623 14.0873 64.8469 14.2649 64.1174 14.3018L62.4802 14.3844Z" fill="#A0B297"/>
<path d="M57.0457 24.177L56.5712 23.9389L56.7178 24.7556C56.8849 25.6862 57.136 26.5998 57.4681 27.485L57.4889 27.5405C57.7996 28.3688 58.1831 29.1679 58.6349 29.9284L58.8304 30.2576C59.0696 30.6603 59.3377 31.0451 59.6325 31.409C60.1577 32.0574 60.7644 32.6352 61.4375 33.1282L61.5202 33.1887L61.9149 31.8132C62.0168 31.458 62.0685 31.0904 62.0685 30.7209C62.0685 29.9982 61.8708 29.2893 61.4967 28.671L60.9054 27.6937C60.6759 27.3143 60.4155 26.9546 60.1268 26.6181L60.0408 26.518C59.2075 25.5468 58.1894 24.751 57.0457 24.177Z" fill="#A0B297"/>
<path fill-rule="evenodd" clip-rule="evenodd" d="M44.677 7.65488C43.4523 7.34101 42.0632 7.18407 40.5095 7.18407C38.6268 7.18407 36.9726 7.42409 35.5469 7.90412C34.1395 8.38416 32.9148 9.01189 31.8729 9.78733C30.8311 10.5443 29.9628 11.4028 29.2683 12.3629C28.592 13.323 28.0345 14.2923 27.5958 15.2708C27.2668 15.9908 27.0109 16.7755 26.8281 17.6248C26.6453 18.4741 26.5265 19.3603 26.4717 20.2834C26.4168 21.1881 26.426 22.1112 26.4991 23.0528C26.5722 23.9945 26.7093 24.9084 26.9103 25.7946C27.3307 27.6962 28.0527 29.3764 29.0763 30.8349C30.0999 32.275 31.4891 33.4474 33.2438 34.3521C35.0717 35.3121 36.9361 35.8753 38.837 36.0414C40.7562 36.2261 42.712 36.0784 44.7044 35.5983C49.5847 34.4352 52.7743 31.4257 54.2732 26.57C54.8215 24.7237 55.0317 22.9144 54.9038 21.142C54.7941 19.3511 54.4194 17.5602 53.7796 15.7693C53.6334 15.4 53.4232 14.9385 53.149 14.3846C52.8749 13.8122 52.5093 13.2029 52.0523 12.5567C51.5954 11.9106 51.0287 11.2736 50.3524 10.6459C49.6761 9.99965 48.8627 9.41807 47.9123 8.90111C46.9801 8.38416 45.9016 7.96874 44.677 7.65488ZM39.2889 17.3864L38.9816 15.7568C38.9424 15.5489 38.8643 15.3502 38.7516 15.1712L38.7422 15.1564C38.4396 14.6761 37.9117 14.3847 37.344 14.3847C37.0682 14.3847 36.7968 14.4537 36.5545 14.5855L36.3724 14.6845C35.9261 14.9273 35.5655 15.302 35.3401 15.7574L35.2488 15.9419C35.0359 16.3719 34.9252 16.8453 34.9252 17.3251V18.5268C34.9252 19.2865 35.03 20.0425 35.2368 20.7735L35.6865 22.3634L36.3999 24.3286C36.6205 24.9364 36.9451 25.5012 37.3591 25.9978L37.7004 26.4072C38.0652 26.8447 38.5324 27.1853 39.0606 27.3987L39.2631 27.4805C39.5408 27.5928 39.8376 27.6504 40.1371 27.6504C40.5866 27.6504 41.0264 27.5207 41.4038 27.2767L42.4113 26.6254C42.9375 26.2852 43.4109 25.8696 43.8163 25.3919L44.7139 24.3341C45.2271 23.7293 45.6379 23.0446 45.9299 22.3071C46.2673 21.4551 46.4406 20.547 46.4406 19.6306V17.0654C46.4406 16.7564 46.3693 16.4516 46.2322 16.1747L46.1091 15.926C45.8458 15.3942 45.3037 15.0576 44.7102 15.0576H44.6649C44.58 15.0576 44.4954 15.067 44.4126 15.0856C43.9677 15.1854 43.6236 15.5384 43.535 15.9857L43.2048 17.6531L42.896 16.093C42.8486 15.8536 42.755 15.6257 42.6206 15.4221L42.4713 15.1958C42.2163 14.8094 41.7843 14.577 41.3213 14.577C41.0009 14.577 40.6905 14.6886 40.4435 14.8927L40.2845 15.0242C39.9564 15.2953 39.7259 15.6664 39.6283 16.0807L39.3241 17.3709C39.3124 17.376 39.3006 17.3812 39.2889 17.3864Z" fill="#C9D691"/>
<path d="M45.6287 32.2474C45.6287 33.3888 44.7034 34.3141 43.562 34.3141C42.4206 34.3141 41.4954 33.3888 41.4954 32.2474C41.4954 31.106 42.4206 30.1808 43.562 30.1808C44.7034 30.1808 45.6287 31.106 45.6287 32.2474Z" fill="#A0B297"/>
<path d="M50.5592 30.7241C50.5592 31.3328 50.0657 31.8263 49.457 31.8263C48.8482 31.8263 48.3547 31.3328 48.3547 30.7241C48.3547 30.1153 48.8482 29.6218 49.457 29.6218C50.0657 29.6218 50.5592 30.1153 50.5592 30.7241Z" fill="#A0B297"/>
<path d="M50.2842 14.2461C50.2842 14.7787 49.8524 15.2105 49.3198 15.2105C48.7871 15.2105 48.3553 14.7787 48.3553 14.2461C48.3553 13.7134 48.7871 13.2816 49.3198 13.2816C49.8524 13.2816 50.2842 13.7134 50.2842 14.2461Z" fill="#A0B297"/>
<path d="M31.3663 16.0462C31.3663 16.655 30.8728 17.1485 30.2641 17.1485C29.6553 17.1485 29.1619 16.655 29.1619 16.0462C29.1619 15.4375 29.6553 14.944 30.2641 14.944C30.8728 14.944 31.3663 15.4375 31.3663 16.0462Z" fill="#A0B297"/>
<path d="M33.5234 9.83891L32.8689 9.12267C33.597 8.66301 34.3813 8.2991 35.2024 8.03991L36.159 7.73796C37.1622 7.46161 38.1888 7.27863 39.2256 7.19135L39.312 7.18407H41.6425L43.4247 7.40563C43.4247 7.89748 43.3112 8.3827 43.093 8.82351L42.7806 9.45458C42.572 9.87588 42.2875 10.255 41.9412 10.573C41.3041 11.1581 40.4872 11.5094 39.6242 11.5695L38.1142 11.6747C37.3665 11.7268 36.6158 11.6305 35.9055 11.3913C34.9928 11.084 34.1731 10.5498 33.5234 9.83891Z" fill="#A0B297"/>
<path d="M28.2354 23.8004H26.5634C26.7458 25.0908 27.031 26.3645 27.4162 27.6094L27.523 27.9546L27.821 28.6069C28.1699 29.3704 28.5894 30.0996 29.0741 30.785L29.2732 31.0666C29.5682 31.4837 29.897 31.8757 30.2564 32.2387C30.7176 32.7046 31.2269 33.1204 31.7757 33.479L32.2178 33.768C32.9249 34.2301 33.6732 34.6257 34.4533 34.9497C35.3144 35.3072 36.2097 35.5757 37.1254 35.7509L38.3529 35.9859L38.4481 35.6014C38.567 35.121 38.6271 34.6279 38.6271 34.133C38.6271 33.0784 38.3542 32.0417 37.8349 31.1237L36.9821 29.6162L35.7754 27.9286C35.3926 27.3932 34.9598 26.8955 34.4828 26.442L34.2182 26.1904C33.3291 25.3452 32.271 24.698 31.1136 24.2913C30.1888 23.9664 29.2156 23.8004 28.2354 23.8004Z" fill="#A0B297"/>
<path d="M51.2388 29.3396C51.3759 29.3396 52.4315 29.5704 52.9798 29.6165C53.6428 28.5156 54.1279 27.317 54.4172 26.0649L54.5564 25.4624C54.8115 24.2656 54.9402 23.0453 54.9402 21.8217V21.7237L54.8826 20.8928C54.6544 21.0715 54.498 21.3261 54.4417 21.6104L54.2837 22.4086C54.2644 22.5057 54.2374 22.6011 54.203 22.6939C53.9795 23.296 53.4605 23.7396 52.8311 23.8668L52.4726 23.9392L50.7709 24.5122C50.5361 24.5912 50.3156 24.7079 50.118 24.8575L50.101 24.8704C49.6028 25.2478 49.2846 25.816 49.223 26.438C49.1962 26.7085 49.2188 26.9816 49.2897 27.244L49.3064 27.306C49.49 27.9861 49.9362 28.5731 50.5317 28.9494C50.867 29.1612 51.1601 29.3396 51.2388 29.3396Z" fill="#A0B297"/>
<path d="M20.6955 25.1298C21.0245 25.4436 21.4175 25.9144 21.8744 26.5422C22.3497 27.1514 22.8158 27.8161 23.2727 28.5361C23.748 29.2377 24.1775 29.9301 24.5613 30.6132C24.9452 31.2963 25.2102 31.841 25.3565 32.2472C25.2102 33.0411 24.9178 33.7242 24.4791 34.2965C24.0587 34.8689 23.5469 35.312 22.9437 35.6259C22.3405 35.9397 21.6734 36.1151 20.9422 36.1521C20.2111 36.2074 19.4708 36.1059 18.7214 35.8474C17.9902 35.6074 17.2774 35.2104 16.5828 34.6566C15.8882 34.1027 15.2759 33.3826 14.7458 32.4964C14.5813 32.2195 14.3985 31.9333 14.1975 31.6379C13.9964 31.324 13.7679 30.9732 13.512 30.5855C13.2744 30.1978 13.0002 29.7547 12.6895 29.2562C12.3788 28.7577 12.0132 28.1761 11.5928 27.5115C11.5197 27.4007 11.4466 27.2899 11.3735 27.1791C11.3003 27.0684 11.2272 26.9668 11.1541 26.8745C11.081 26.9114 11.017 26.9299 10.9622 26.9299C10.9622 27.1884 10.9531 27.4561 10.9348 27.733C10.9348 28.01 10.9256 28.2961 10.9074 28.5915C10.8708 29.1639 10.8342 29.7362 10.7977 30.3086C10.7794 30.8809 10.7428 31.4348 10.688 31.9702C10.6515 32.5056 10.6149 33.0134 10.5783 33.4934C10.5418 33.955 10.4961 34.3519 10.4413 34.6843C9.87462 35.312 9.11607 35.7182 8.16559 35.9028C7.21511 36.0874 6.25549 36.0044 5.28674 35.6536C4.31798 35.3212 3.42234 34.7027 2.59981 33.798C1.79556 32.8749 1.2472 31.6287 0.954748 30.0593C0.881634 29.6531 0.80852 28.9423 0.735406 27.9269C0.662292 26.9114 0.607457 25.739 0.5709 24.4097C0.534344 23.0804 0.506926 21.668 0.488647 20.1725C0.488647 18.677 0.497787 17.2461 0.516065 15.8799C0.552622 14.4952 0.616597 13.249 0.707989 12.1412C0.799381 11.015 0.918191 10.1749 1.06442 9.62101C1.46654 9.23329 2.09715 8.87327 2.95624 8.54094C3.81532 8.19014 4.8115 7.90397 5.94476 7.68242C7.07802 7.4424 8.30268 7.27623 9.61873 7.18392C10.9348 7.09161 12.2417 7.10084 13.5395 7.21162C14.8555 7.30393 16.1167 7.52548 17.3231 7.87628C18.5295 8.20861 19.5896 8.67941 20.5035 9.28868C21.2347 9.78718 21.9018 10.4057 22.505 11.1442C23.1082 11.8827 23.6109 12.7043 24.013 13.609C24.4151 14.4952 24.6893 15.4276 24.8355 16.4061C25 17.3846 24.9909 18.3724 24.8081 19.3694C24.6253 20.3479 24.2506 21.2987 23.684 22.2219C23.1173 23.145 22.3131 23.9943 21.2712 24.7697C21.125 24.8805 20.9331 25.0005 20.6955 25.1298ZM14.9926 18.04C14.9926 17.7077 14.9012 17.4031 14.7184 17.1261C14.5356 16.8492 14.2889 16.6369 13.9781 16.4892C13.6674 16.3415 13.2836 16.2768 12.8266 16.2953C12.3879 16.3138 11.9127 16.443 11.4009 16.683C11.4009 16.9784 11.4009 17.2369 11.4009 17.4585C11.4009 17.6616 11.4009 17.8554 11.4009 18.04C11.4009 18.2247 11.4009 18.4185 11.4009 18.6216C11.4009 18.8063 11.4009 19.0186 11.4009 19.2586C11.4009 19.314 11.4374 19.3878 11.5105 19.4801C11.6019 19.554 11.675 19.5909 11.7299 19.5909C12.0772 19.5909 12.4153 19.5909 12.7443 19.5909C13.0916 19.5909 13.4298 19.554 13.7588 19.4801C14.1792 19.4063 14.4899 19.2494 14.691 19.0093C14.8921 18.7509 14.9926 18.4278 14.9926 18.04Z" fill="#C9D691"/>
<path d="M8.06751 21.4465C8.06751 22.7401 7.01886 23.7887 5.72528 23.7887C4.43171 23.7887 3.38306 22.7401 3.38306 21.4465C3.38306 20.1529 4.43171 19.1043 5.72528 19.1043C7.01886 19.1043 8.06751 20.1529 8.06751 21.4465Z" fill="#A0B297"/>
<circle cx="3.25778" cy="14.5231" r="0.964445" fill="#A0B297"/>
<circle cx="20.1196" cy="22.9699" r="1.10222" fill="#A0B297"/>
<path d="M16.1205 32.7521L15.993 33.087C15.8317 33.5108 15.9053 33.9882 16.1868 34.3437C16.2495 34.4228 16.3212 34.4943 16.4006 34.5566L16.8083 34.8769C17.2765 35.2447 17.7996 35.5366 18.3585 35.7419L18.4224 35.7654C18.8216 35.912 19.2351 36.0166 19.6561 36.0773L19.9866 36.125C20.6175 36.216 21.2617 36.1822 21.8798 36.0261C22.348 35.9079 22.7971 35.7202 23.2101 35.47L23.3084 35.4104C23.7381 35.15 24.1178 34.815 24.4297 34.4211C24.6986 34.0816 24.9136 33.7028 25.0673 33.2979L25.3333 32.597C25.418 32.374 25.4059 32.1257 25.3001 31.9119C24.9763 31.2579 24.3422 30.8133 23.617 30.7319L23.5468 30.724L22.8475 30.6825C21.7646 30.6181 20.678 30.6943 19.6147 30.9091L18.855 31.0626C18.6019 31.1137 18.3541 31.1881 18.1147 31.2849L17.1939 31.6569C16.6993 31.8567 16.3103 32.2536 16.1205 32.7521Z" fill="#A0B297"/>
<path d="M0.837071 29.3231L0.691284 27.2625L1.18378 27.416C1.74247 27.5902 2.28274 27.8187 2.79682 28.0983C3.46685 28.4627 4.08756 28.9113 4.64387 29.4331L5.15812 29.9154C5.53534 30.2692 5.87817 30.658 6.18201 31.0765C6.87462 32.0305 7.35294 33.1228 7.58425 34.2788L7.91867 35.9501L7.23323 36.0138L6.77497 35.9984C6.53246 35.9902 6.29088 35.9641 6.05222 35.9203C5.29642 35.7815 4.58367 35.4675 3.97115 35.0035L3.63679 34.7502C3.38434 34.559 3.1458 34.35 2.92298 34.1249L2.43514 33.6321C1.893 32.9933 1.49303 32.2463 1.2618 31.441L1.1314 30.9868C0.97557 30.444 0.876923 29.8864 0.837071 29.3231Z" fill="#A0B297"/>
<path d="M13.8277 9.38531L14.1968 7.41692C14.2127 7.33219 14.2908 7.27374 14.3765 7.28241L14.8014 7.32533C15.6944 7.41555 16.5766 7.59204 17.4357 7.85235L17.8794 7.98681C18.5484 8.18954 19.1934 8.46437 19.803 8.80646C20.828 9.38167 21.7412 10.1416 22.4938 11.0444C23.1897 11.8791 23.7418 12.8271 24.1235 13.8446L24.4501 14.715C24.4955 14.8361 24.4293 14.9703 24.3057 15.008L22.983 15.4111C21.908 15.7387 20.7774 15.843 19.6606 15.7177L19.2729 15.6742C18.2081 15.5547 17.188 15.1798 16.2992 14.5813L15.8861 14.3031C15.1578 13.8127 14.5763 13.1339 14.2036 12.339C13.7718 11.4182 13.6403 10.3849 13.8277 9.38531Z" fill="#A0B297"/>
<path d="M7.2353 6.43326L5.11512 6.80765C4.91279 6.84338 4.70451 6.81051 4.52331 6.71424C4.26195 6.57539 4.08352 6.31914 4.04372 6.02549L3.96082 5.41386C3.93451 5.21969 3.93512 5.02274 3.96265 4.8286L4.20413 3.12541L4.74812 1.20336C4.83445 0.898362 5.09309 0.673107 5.40677 0.629731C5.59906 0.603141 5.79425 0.647763 5.95562 0.755201L6.51634 1.12853L8.6124 2.98171L10.0962 4.59292C10.423 4.94773 10.4352 5.49078 10.1247 5.86159C9.9637 6.05396 9.73411 6.17598 9.48491 6.20164L7.2353 6.43326Z" fill="#A0B297"/>
<path d="M14.5526 6.532L12.4079 6.3495C12.2032 6.33208 12.01 6.24678 11.859 6.10713C11.6412 5.90572 11.5331 5.61208 11.5686 5.31789L11.6424 4.70502C11.6658 4.51048 11.716 4.32017 11.7915 4.13948L12.4538 2.5543L13.4638 0.835135C13.6241 0.562356 13.9309 0.410951 14.2452 0.449573C14.4379 0.47325 14.6154 0.566541 14.7444 0.711893L15.1928 1.21698L16.7534 3.54763L17.7828 5.48705C18.0095 5.9141 17.8846 6.4424 17.491 6.72128C17.2868 6.86597 17.034 6.92501 16.7865 6.88581L14.5526 6.532Z" fill="#A0B297"/>
<path d="M21.1309 8.74168L19.2849 7.61967C19.11 7.51338 18.9749 7.35162 18.9009 7.15983C18.7933 6.88114 18.8253 6.56773 18.9868 6.31798L19.3191 5.80432C19.4254 5.63999 19.5538 5.49141 19.7008 5.36286L20.9881 4.23664L22.6438 3.14674C22.9084 2.97253 23.2508 2.97311 23.5161 3.14821C23.6784 3.25533 23.7968 3.41823 23.849 3.60649L24.0301 4.25931L24.4106 7.04662L24.4857 9.24216C24.5022 9.72789 24.1574 10.1486 23.6815 10.2233C23.4366 10.2617 23.1862 10.2025 22.9832 10.0582L21.1309 8.74168Z" fill="#A0B297"/>
<path d="M174.344 52.6062C174.417 52.4401 174.554 52.117 174.755 51.637C174.957 51.1569 175.194 50.5938 175.468 49.9476C175.742 49.2829 176.035 48.5629 176.346 47.7875C176.675 47.012 176.995 46.255 177.305 45.5165C177.634 44.778 177.945 44.0857 178.237 43.4395C178.53 42.7748 178.786 42.2302 179.005 41.8055C179.992 41.5286 180.979 41.5009 181.966 41.7224C182.953 41.944 183.794 42.3686 184.489 42.9964C185.183 43.6056 185.649 44.3995 185.887 45.3781C186.125 46.3566 185.988 47.4644 185.476 48.7014C185.019 49.7722 184.562 50.76 184.105 51.6646C183.648 52.5509 183.173 53.4555 182.679 54.3787C182.186 55.2834 181.674 56.2527 181.144 57.2866C180.614 58.302 180.047 59.4652 179.444 60.776C179.17 61.2745 179.033 61.7823 179.033 62.2992C179.033 62.9085 179.033 63.5824 179.033 64.3209C179.033 65.0409 179.023 65.7333 179.005 66.398C178.987 67.0442 178.969 67.6073 178.95 68.0873C178.95 68.5489 178.95 68.835 178.95 68.9458C178.749 69.2228 178.365 69.4628 177.799 69.6659C177.25 69.869 176.611 70.0074 175.88 70.0813C175.167 70.1551 174.408 70.1459 173.604 70.0536C172.818 69.9613 172.087 69.7397 171.411 69.3889C170.752 69.0381 170.195 68.5396 169.738 67.8934C169.281 67.2472 169.034 66.4257 168.998 65.4287C168.998 65.2625 168.998 65.0132 168.998 64.6809C168.998 64.3486 168.998 64.007 168.998 63.6562C168.998 63.287 168.998 62.9546 168.998 62.6592C169.016 62.3638 169.025 62.17 169.025 62.0777C169.007 61.8376 168.97 61.653 168.915 61.5238C168.879 61.3761 168.815 61.2007 168.724 60.9976C168.175 59.9267 167.554 58.7174 166.859 57.3696C166.165 56.0034 165.47 54.6002 164.775 53.1601C164.081 51.72 163.405 50.2984 162.747 48.8952C162.107 47.4736 161.54 46.1627 161.047 44.9627C161.504 43.8549 162.162 43.0056 163.021 42.4148C163.88 41.8055 164.766 41.4363 165.68 41.307C166.594 41.1778 167.444 41.2609 168.23 41.5563C169.034 41.8517 169.619 42.3409 169.985 43.0241C170.277 43.5779 170.588 44.2426 170.917 45.018C171.264 45.775 171.602 46.5597 171.931 47.372C172.279 48.1844 172.608 48.9783 172.918 49.7537C173.247 50.5292 173.54 51.2031 173.796 51.7754C173.851 51.9231 173.906 52.0616 173.96 52.1908C174.015 52.3016 174.07 52.4309 174.125 52.5786C174.235 52.5786 174.308 52.5878 174.344 52.6062Z" fill="#C9D691"/>
<path d="M182.775 51.5261C182.775 52.6675 181.849 53.5928 180.708 53.5928C179.567 53.5928 178.641 52.6675 178.641 51.5261C178.641 50.3848 179.567 49.4595 180.708 49.4595C181.849 49.4595 182.775 50.3848 182.775 51.5261Z" fill="#A0B297"/>
<path d="M169.063 43.9101C169.063 44.6711 168.446 45.2879 167.685 45.2879C166.924 45.2879 166.307 44.6711 166.307 43.9101C166.307 43.1492 166.924 42.5323 167.685 42.5323C168.446 42.5323 169.063 43.1492 169.063 43.9101Z" fill="#A0B297"/>
<path d="M173.996 60.6653C173.996 61.198 173.564 61.6298 173.031 61.6298C172.498 61.6298 172.067 61.198 172.067 60.6653C172.067 60.1327 172.498 59.7009 173.031 59.7009C173.564 59.7009 173.996 60.1327 173.996 60.6653Z" fill="#A0B297"/>
<path d="M179.298 60.3882H179.611L179.327 61.0131C179.1 61.5108 179.009 62.0596 179.063 62.6038V64.8193L178.981 67.0348L178.953 68.9351C178.953 68.9419 178.951 68.9485 178.946 68.9535C178.68 69.2397 178.351 69.4594 177.985 69.5947L177.418 69.8042L176.732 69.9704L176.047 70.0673L175.728 69.7033C175.302 69.2183 174.933 68.6868 174.626 68.1191L174.5 67.8852C174.343 67.5958 174.213 67.2932 174.11 66.9809L174.068 66.8521C173.836 66.1518 173.764 65.409 173.854 64.6772L173.866 64.5793C173.948 63.9166 174.175 63.2801 174.531 62.7152C174.809 62.2749 175.159 61.8856 175.569 61.5641C175.976 61.2441 176.435 60.9961 176.926 60.8308L177.238 60.7257C177.902 60.5022 178.598 60.3882 179.298 60.3882Z" fill="#A0B297"/>
<path d="M164.055 50.2141L163.462 50.4184L165.464 54.5725L168.26 60.1113L169.33 59.2805L170.402 58.414C170.6 58.2535 170.784 58.0747 170.949 57.88C171.327 57.4342 171.605 56.9122 171.764 56.3496L171.891 55.9035C172.011 55.4797 172.071 55.0415 172.071 54.6012V54.3694C172.071 53.9542 171.997 53.5424 171.853 53.1531C171.725 52.8091 171.544 52.4874 171.316 52.1997L170.924 51.704C170.684 51.4018 170.41 51.1289 170.107 50.8907C169.594 50.4875 169.005 50.1906 168.376 50.0173L168.284 49.9917C167.976 49.9071 167.662 49.8498 167.344 49.8207L167.209 49.8082C166.615 49.7536 166.016 49.7762 165.427 49.8753L165.308 49.8953C164.882 49.9669 164.463 50.0736 164.055 50.2141Z" fill="#A0B297"/>
<path d="M177.671 45.9138L177.165 45.8487L178.152 43.6332L178.986 41.8252C179 41.7952 179.027 41.7735 179.059 41.7665L179.218 41.7317C179.752 41.6151 180.298 41.5654 180.845 41.5838L180.876 41.6736C180.946 41.8716 180.995 42.0767 181.021 42.2851C181.085 42.8049 181.007 43.3323 180.797 43.8117L180.738 43.9442C180.627 44.1975 180.485 44.4363 180.316 44.6555L180.135 44.8917C179.794 45.334 179.324 45.6588 178.789 45.8207C178.427 45.9304 178.046 45.9622 177.671 45.9138Z" fill="#A0B297"/>
<path d="M146.312 56.5076C146.349 56.4153 146.376 56.3322 146.395 56.2584C146.431 56.166 146.459 56.0737 146.477 55.9814C146.897 54.1351 147.318 52.2981 147.738 50.4703C148.177 48.6425 148.606 46.8054 149.027 44.9591C149.1 44.7006 149.182 44.4422 149.274 44.1837C149.365 43.9067 149.456 43.6298 149.548 43.3529C150.644 42.6328 151.796 42.2174 153.002 42.1066C154.209 41.9958 155.324 42.1528 156.347 42.5774C157.389 43.0021 158.276 43.676 159.007 44.5991C159.738 45.5222 160.195 46.6669 160.378 48.0332C160.451 48.5686 160.533 49.2794 160.624 50.1656C160.734 51.0334 160.853 51.975 160.981 52.9904C161.109 54.0059 161.228 55.0306 161.337 56.0645C161.465 57.0984 161.575 58.0216 161.666 58.8339C161.849 60.4033 162.023 61.8987 162.187 63.3204C162.352 64.742 162.525 66.2375 162.708 67.8068C161.959 68.7854 161.072 69.45 160.049 69.8008C159.043 70.1701 158.065 70.2624 157.115 70.0778C156.165 69.9116 155.333 69.4962 154.62 68.8315C153.925 68.1484 153.514 67.253 153.386 66.1452C153.295 65.3144 153.231 64.5943 153.194 63.985C153.176 63.3758 153.158 62.7665 153.139 62.1572C153.139 61.5295 153.13 60.8556 153.112 60.1355C153.112 59.397 153.094 58.5016 153.057 57.4492C153.021 57.4307 152.957 57.4215 152.865 57.4215C152.81 57.7169 152.756 58.0031 152.701 58.28C152.646 58.557 152.582 58.8431 152.509 59.1386C152.143 60.7633 151.769 62.3788 151.385 63.985C151.019 65.5728 150.635 67.1791 150.233 68.8038C149.922 68.9885 149.52 69.1639 149.027 69.33C148.533 69.4777 147.994 69.5793 147.409 69.6347C146.843 69.7085 146.248 69.7085 145.627 69.6347C145.006 69.5793 144.421 69.4223 143.872 69.1639C143.342 68.9054 142.867 68.5454 142.447 68.0838C142.026 67.6037 141.725 66.9852 141.542 66.2283C141.377 65.5636 141.185 64.7605 140.966 63.8189C140.747 62.8773 140.527 61.9541 140.308 61.0495C140.107 60.1263 139.915 59.3047 139.732 58.5847C139.549 57.8646 139.421 57.3846 139.348 57.1446C139.275 58.197 139.202 59.2124 139.129 60.1909C139.074 61.151 139.01 62.1111 138.937 63.0711C138.882 64.0127 138.818 64.9728 138.745 65.9513C138.69 66.9299 138.626 67.9545 138.553 69.0254C137.438 69.6347 136.305 69.9947 135.153 70.1055C134.002 70.2347 132.978 70.0501 132.083 69.5516C131.205 69.0531 130.538 68.2222 130.081 67.0591C129.643 65.8775 129.56 64.2989 129.834 62.3234C130.054 60.6802 130.337 59.0185 130.684 57.3384C131.05 55.6583 131.361 53.9967 131.617 52.3535C131.872 50.8026 132.138 49.2702 132.412 47.7562C132.686 46.2423 132.951 44.7191 133.207 43.1867C133.554 42.8544 134.02 42.5774 134.605 42.3559C135.19 42.1159 135.83 41.9589 136.524 41.8851C137.219 41.7928 137.941 41.802 138.69 41.9128C139.44 42.0235 140.143 42.2543 140.802 42.6051C141.478 42.9559 142.081 43.4452 142.611 44.0729C143.141 44.7006 143.534 45.4945 143.79 46.4546C143.918 46.9346 144.055 47.4885 144.201 48.1163C144.366 48.7255 144.521 49.3717 144.667 50.0549C144.832 50.7195 144.996 51.4026 145.161 52.1042C145.325 52.8058 145.481 53.4797 145.627 54.1259C145.645 54.1628 145.682 54.3013 145.737 54.5413C145.792 54.7813 145.846 55.0398 145.901 55.3168C145.956 55.5937 146.011 55.8522 146.066 56.0922C146.121 56.3322 146.157 56.4707 146.175 56.5076H146.312Z" fill="#C9D691"/>
<path d="M141.592 47.4793C141.592 48.7729 140.543 49.8216 139.249 49.8216C137.956 49.8216 136.907 48.7729 136.907 47.4793C136.907 46.1858 137.956 45.1371 139.249 45.1371C140.543 45.1371 141.592 46.1858 141.592 47.4793Z" fill="#A0B297"/>
<path d="M160.231 60.911C160.231 61.6719 159.614 62.2888 158.853 62.2888C158.092 62.2888 157.475 61.6719 157.475 60.911C157.475 60.1501 158.092 59.5332 158.853 59.5332C159.614 59.5332 160.231 60.1501 160.231 60.911Z" fill="#A0B297"/>
<path d="M143.504 59.1111C143.504 59.6437 143.072 60.0755 142.539 60.0755C142.007 60.0755 141.575 59.6437 141.575 59.1111C141.575 58.5784 142.007 58.1466 142.539 58.1466C143.072 58.1466 143.504 58.5784 143.504 59.1111Z" fill="#A0B297"/>
<path d="M149.394 65.7573C149.504 65.7573 150.445 65.9419 150.902 66.0342L151.999 61.6032L152.876 57.4214L153.055 57.4435L152.981 57.0076C152.883 56.4268 152.473 55.947 151.915 55.7591C151.699 55.6865 151.471 55.6608 151.244 55.6836L150.217 55.7874L149.034 56.0435C148.551 56.148 148.103 56.3745 147.733 56.7014C147.384 57.0106 147.114 57.4 146.948 57.8363L146.782 58.2712C146.606 58.7357 146.502 59.225 146.476 59.7213L146.44 60.4168C146.399 61.1998 146.515 61.9832 146.781 62.721C147.23 63.97 148.056 65.0916 149.24 65.693C149.32 65.7338 149.375 65.7573 149.394 65.7573Z" fill="#A0B297"/>
<path d="M150.628 42.9344V42.7436L150.97 42.5977C151.562 42.3455 152.186 42.1772 152.824 42.0978C153.369 42.0301 153.919 42.0277 154.465 42.0906L154.575 42.1033C155.23 42.179 155.871 42.3506 156.476 42.6127C157.143 42.9012 157.758 43.2966 158.262 43.8194C158.483 44.0491 158.665 44.2429 158.716 44.2945C159.487 45.0734 159.947 46.0894 160.206 47.1543L160.252 47.3409C159.78 47.6159 159.265 47.8115 158.73 47.9197L158.389 47.9884C157.787 48.1101 157.172 48.1521 156.559 48.1134C155.719 48.0604 154.896 47.8567 154.128 47.5121L153.37 47.1719C153.006 47.0083 152.664 46.7983 152.353 46.5473C151.761 46.0683 151.295 45.4505 150.997 44.7489C150.753 44.175 150.628 43.5578 150.628 42.9344Z" fill="#A0B297"/>
<path d="M131.161 63.1265L129.708 63.4034L129.927 61.4648L130.256 59.5262L131.024 55.7875L131.682 51.9103L132.478 52.2758C133.146 52.5826 133.743 53.0264 134.228 53.5784C134.468 53.8503 134.678 54.1463 134.857 54.4616L135.227 55.1159C135.529 55.6501 135.716 56.2415 135.777 56.8523C135.807 57.1571 135.805 57.4642 135.772 57.7686L135.598 59.3451C135.565 59.6491 135.491 59.9473 135.378 60.2316C135.131 60.8554 134.707 61.3928 134.157 61.7773L133.794 62.0308C133.412 62.2983 132.993 62.5098 132.55 62.6587L131.161 63.1265Z" fill="#A0B297"/>
<path d="M107.849 63.0984C107.813 62.4707 107.785 61.6214 107.767 60.5506C107.749 59.4797 107.74 58.2981 107.74 57.0057C107.74 55.6949 107.749 54.3286 107.767 52.907C107.804 51.4669 107.84 50.0729 107.877 48.7252C107.932 47.3774 107.987 46.1219 108.041 44.9587C108.114 43.7771 108.197 42.7986 108.288 42.0232C109.056 41.9493 109.961 41.8939 111.002 41.857C112.044 41.8016 113.159 41.7647 114.347 41.7462C115.554 41.7278 116.797 41.7185 118.076 41.7185C119.356 41.7185 120.599 41.737 121.805 41.7739C123.011 41.7924 124.154 41.8293 125.232 41.8847C126.311 41.9401 127.261 41.9955 128.084 42.0509C128.248 42.2909 128.394 42.6694 128.522 43.1863C128.669 43.6848 128.742 44.2479 128.742 44.8757C128.742 45.4849 128.659 46.1219 128.495 46.7866C128.33 47.4328 128.038 48.0236 127.618 48.559C127.215 49.0944 126.649 49.5375 125.918 49.8883C125.205 50.2206 124.3 50.3868 123.203 50.3868H117.555V51.8269C117.957 51.8269 118.515 51.8177 119.228 51.7992C119.941 51.7623 120.699 51.7531 121.503 51.7715C122.308 51.7715 123.112 51.8084 123.916 51.8823C124.72 51.9561 125.415 52.0854 126 52.27C126.402 53.1932 126.631 54.0701 126.685 54.901C126.74 55.7318 126.612 56.4703 126.301 57.1165C125.991 57.7627 125.506 58.2889 124.848 58.6951C124.19 59.0828 123.359 59.3043 122.353 59.3597C122.006 59.3782 121.677 59.3874 121.366 59.3874C121.074 59.3874 120.754 59.3874 120.407 59.3874C120.059 59.3874 119.657 59.3874 119.2 59.3874C118.762 59.369 118.222 59.3597 117.583 59.3597V61.0491H118.213H127.014C127.526 61.7876 127.855 62.6092 128.001 63.5139C128.166 64.4185 128.102 65.2863 127.809 66.1171C127.535 66.9479 127.014 67.6772 126.247 68.305C125.497 68.9327 124.474 69.3296 123.176 69.4958C122.792 69.5512 122.289 69.5974 121.668 69.6343C121.046 69.6712 120.37 69.6989 119.639 69.7174C118.908 69.7358 118.149 69.7358 117.363 69.7174C116.577 69.7174 115.819 69.7081 115.088 69.6897C114.375 69.6712 113.726 69.6343 113.141 69.5789C112.556 69.5235 112.099 69.4589 111.77 69.385C110.472 69.0527 109.522 68.3973 108.919 67.4187C108.316 66.4218 107.959 64.9817 107.849 63.0984Z" fill="#C9D691"/>
<path d="M117.738 66.311C117.738 67.6045 116.689 68.6532 115.396 68.6532C114.102 68.6532 113.054 67.6045 113.054 66.311C113.054 65.0174 114.102 63.9687 115.396 63.9687C116.689 63.9687 117.738 65.0174 117.738 66.311Z" fill="#A0B297"/>
<path d="M112.25 61.3263C112.25 62.1633 111.571 62.8419 110.734 62.8419C109.897 62.8419 109.219 62.1633 109.219 61.3263C109.219 60.4893 109.897 59.8108 110.734 59.8108C111.571 59.8108 112.25 60.4893 112.25 61.3263Z" fill="#A0B297"/>
<path d="M115.264 58.2798C115.264 58.8124 114.832 59.2442 114.299 59.2442C113.767 59.2442 113.335 58.8124 113.335 58.2798C113.335 57.7471 113.767 57.3153 114.299 57.3153C114.832 57.3153 115.264 57.7471 115.264 58.2798Z" fill="#A0B297"/>
<path d="M124.86 44.4327C124.86 44.9654 124.428 45.3972 123.895 45.3972C123.362 45.3972 122.931 44.9654 122.931 44.4327C122.931 43.9001 123.362 43.4683 123.895 43.4683C124.428 43.4683 124.86 43.9001 124.86 44.4327Z" fill="#A0B297"/>
<path d="M123.701 61.1075L123.759 61.0494H127.02C127.038 61.0494 127.054 61.0588 127.063 61.0741L127.301 61.4745C127.677 62.1074 127.918 62.8113 128.008 63.5419L128.099 64.3615C128.13 64.6448 128.125 64.931 128.085 65.2132C128.034 65.5737 127.926 65.9238 127.765 66.2501L127.535 66.7136C127.304 67.1809 126.999 67.608 126.632 67.9786C126.183 68.432 125.649 68.7927 125.061 69.0402L124.987 69.0717C124.536 69.2614 124.061 69.3876 123.575 69.4464L122.936 69.5239L121.428 69.6485L122.19 69.1581C122.409 69.0169 122.586 68.8189 122.702 68.5851C122.853 68.2793 122.891 67.9297 122.809 67.5985L122.662 67.0037L122.616 66.7937C122.464 66.1049 122.388 65.4017 122.388 64.6964V64.301C122.388 64.0722 122.405 63.8438 122.44 63.6176C122.584 62.6685 123.026 61.7897 123.701 61.1075Z" fill="#A0B297"/>
<path d="M108.258 49.3669L107.856 49.4177L107.993 46.0944L108.103 44.0865L108.295 42.0233L110.735 41.8018L113.065 41.7741C113.156 42.2519 113.182 42.7399 113.142 43.2246L113.065 44.1558L112.945 44.8268C112.843 45.3921 112.662 45.9402 112.407 46.4549L112.304 46.6624C112.082 47.1116 111.789 47.5222 111.436 47.8784C110.974 48.3455 110.418 48.7098 109.806 48.9478L109.605 49.0257C109.172 49.1941 108.719 49.3087 108.258 49.3669Z" fill="#A0B297"/>
<path d="M119.657 52.4711L119.782 51.7715H122.387C123.073 51.8177 124.471 51.91 124.581 51.91C124.688 51.91 125.558 52.1226 125.98 52.2614C125.997 52.2669 126.01 52.2793 126.017 52.2955L126.063 52.404C126.353 53.0871 126.551 53.8057 126.651 54.541L125.677 55.6487L125.595 55.7314C125.113 56.2191 124.496 56.5521 123.823 56.688C123.597 56.7336 123.368 56.7565 123.138 56.7565H122.779C122.255 56.7565 121.74 56.6078 121.296 56.3275C121.02 56.1533 120.777 55.9318 120.578 55.6732L120.372 55.4049C120.073 55.0174 119.854 54.5749 119.726 54.1027C119.583 53.5707 119.559 53.0134 119.657 52.4711Z" fill="#A0B297"/>
<path d="M105.731 54.9842C105.731 55.8335 105.648 56.7936 105.484 57.8644C105.338 58.9353 105.054 60.0338 104.634 61.16C104.232 62.2678 103.683 63.3571 102.989 64.428C102.294 65.4988 101.417 66.4589 100.357 67.3082C99.2967 68.139 98.0263 68.8129 96.5458 69.3298C95.0652 69.8283 93.3288 70.0776 91.3364 70.0776C89.6913 70.0776 88.2565 69.9576 87.0318 69.7176C85.8072 69.4775 84.7744 69.0806 83.9336 68.5267C83.1111 67.9544 82.4622 67.2158 81.987 66.3112C81.53 65.4065 81.2467 64.2895 81.137 62.9602C80.936 60.6892 80.8354 57.8737 80.8354 54.5134C80.8537 51.1348 80.9817 47.3499 81.2193 43.1588C81.9687 42.7157 82.8552 42.3557 83.8788 42.0788C84.9024 41.7833 85.9808 41.571 87.1141 41.4418C88.2474 41.3125 89.3989 41.2572 90.5687 41.2756C91.7568 41.2941 92.8901 41.3679 93.9685 41.4972C95.0469 41.6264 96.0431 41.811 96.957 42.0511C97.8709 42.2911 98.6295 42.568 99.2327 42.8819C101.444 44.0635 103.08 45.6328 104.14 47.5899C105.201 49.5285 105.731 51.9933 105.731 54.9842ZM91.9122 61.2985C92.4423 61.2801 92.9723 61.2247 93.5024 61.1324C94.0325 61.04 94.5077 60.8 94.9281 60.4123C95.3485 60.0061 95.6867 59.4061 95.9426 58.6122C96.2167 57.8183 96.3538 56.7197 96.3538 55.3166C96.3538 53.9688 96.1619 52.9533 95.7781 52.2702C95.3942 51.5686 94.9098 51.0886 94.3249 50.8301C93.74 50.5532 93.1094 50.4332 92.4331 50.4701C91.7751 50.507 91.1719 50.5809 90.6235 50.6916C90.6235 51.1348 90.6144 51.7348 90.5961 52.4918C90.5961 53.2487 90.5961 54.0796 90.5961 54.9842C90.5961 55.8705 90.5961 56.7844 90.5961 57.726C90.5961 58.6676 90.6053 59.5261 90.6235 60.3015C90.6235 60.5231 90.6692 60.6985 90.7606 60.8277C90.8703 60.957 90.9891 61.0585 91.1171 61.1324C91.2633 61.1877 91.4004 61.2339 91.5283 61.2708C91.6746 61.2893 91.8025 61.2985 91.9122 61.2985Z" fill="#C9D691"/>
<path d="M87.3049 59.1105C87.3049 60.404 86.2563 61.4527 84.9627 61.4527C83.6691 61.4527 82.6205 60.404 82.6205 59.1105C82.6205 57.8169 83.6691 56.7682 84.9627 56.7682C86.2563 56.7682 87.3049 57.8169 87.3049 59.1105Z" fill="#A0B297"/>
<path d="M88.1213 49.2791C88.1213 49.8879 87.6278 50.3814 87.0191 50.3814C86.4104 50.3814 85.9169 49.8879 85.9169 49.2791C85.9169 48.6704 86.4104 48.1769 87.0191 48.1769C87.6278 48.1769 88.1213 48.6704 88.1213 49.2791Z" fill="#A0B297"/>
<path d="M102.653 54.1258C102.653 54.8107 102.098 55.3658 101.413 55.3658C100.728 55.3658 100.173 54.8107 100.173 54.1258C100.173 53.441 100.728 52.8858 101.413 52.8858C102.098 52.8858 102.653 53.441 102.653 54.1258Z" fill="#A0B297"/>
<path d="M100.297 65.9225L101.029 66.7267L101.962 65.7574C102.727 64.8365 103.402 63.843 103.974 62.791L104.018 62.7111L104.442 61.6694C104.798 60.7961 105.078 59.8938 105.279 58.9723L104.703 58.6954L103.89 58.4216C103.61 58.3273 103.324 58.2532 103.033 58.1998L102.762 58.15C102.232 58.0528 101.69 58.0487 101.159 58.1381L100.923 58.1779C100.522 58.2454 100.137 58.3858 99.7868 58.5921L99.7129 58.6356C99.0431 59.0303 98.5457 59.6619 98.3191 60.4057C98.1899 60.8299 98.1531 61.2769 98.2111 61.7166L98.2608 62.0931C98.3507 62.7742 98.5842 63.4286 98.9457 64.0129L99.3549 64.6743C99.6298 65.1185 99.9451 65.5363 100.297 65.9225Z" fill="#A0B297"/>
<path d="M91.2689 43.3253L90.5835 41.2759L92.6398 41.359L95.3816 41.6636L96.3861 41.8869C97.5381 42.1429 98.6467 42.5652 99.677 43.1407L99.7262 43.1681C100.211 43.4387 100.675 43.7443 101.115 44.0825C101.895 44.6829 102.595 45.3821 103.196 46.1626L103.25 46.2332L101.997 46.9366C101.518 47.2051 101.008 47.4131 100.479 47.5558C99.6475 47.7797 98.7808 47.8394 97.9269 47.7316L97.0266 47.6179L96.5829 47.5652C95.352 47.4189 94.1908 46.9156 93.2425 46.1174C92.5737 45.5544 92.0284 44.8595 91.6406 44.0761L91.2689 43.3253Z" fill="#A0B297"/>
<path d="M81.5881 63.1187L81.1382 62.9879L81.1417 63.0316C81.2212 64.0128 81.4416 64.9775 81.7963 65.8958C82.0236 66.4468 82.3287 66.9625 82.7023 67.4269L82.8518 67.6128C83.6975 68.4671 84.7429 69.097 85.8933 69.4456L86.0597 69.4961L87.4305 69.8007L87.2934 68.5268C87.0246 67.3501 86.4322 66.2721 85.5831 65.4144L85.5599 65.391C85.2541 65.0821 84.9184 64.8042 84.5579 64.5614L84.3011 64.3885C83.4679 63.8274 82.5527 63.3991 81.5881 63.1187Z" fill="#A0B297"/>
<path d="M52.4408 61.2231C52.6235 60.3 52.852 59.2753 53.1262 58.1491C53.4187 57.0228 53.7385 55.8689 54.0858 54.6873C54.4331 53.5057 54.7987 52.324 55.1825 51.1424C55.5664 49.9423 55.9502 48.8069 56.3341 47.736C56.7362 46.6652 57.1109 45.6867 57.4582 44.8005C57.8238 43.9142 58.1528 43.185 58.4452 42.6126C59.0667 42.4095 59.7978 42.2064 60.6386 42.0033C61.4794 41.8003 62.366 41.6618 63.2982 41.5879C64.2486 41.4956 65.2174 41.5048 66.2044 41.6156C67.1915 41.7264 68.1328 41.9941 69.0284 42.4188C69.9424 42.8249 70.7832 43.425 71.5509 44.2189C72.3186 45.0128 72.9674 46.0467 73.4975 47.3206C73.7351 47.9299 74.0093 48.6961 74.3201 49.6192C74.6491 50.5239 74.9781 51.5301 75.3071 52.6379C75.6544 53.7457 76.0017 54.9088 76.349 56.1274C76.6962 57.3459 77.0253 58.5645 77.336 59.783C77.665 61.0016 77.9575 62.1924 78.2134 63.3556C78.4875 64.5003 78.7069 65.5619 78.8714 66.5404C78.7983 67.0389 78.5332 67.5374 78.0763 68.0359C77.6193 68.5159 77.0435 68.9313 76.349 69.2821C75.6727 69.6145 74.9141 69.836 74.0733 69.9468C73.2508 70.0576 72.4465 69.9837 71.6605 69.7252C70.8746 69.4852 70.1526 69.0236 69.4945 68.3405C68.8365 67.6389 68.3247 66.6604 67.9592 65.4049C67.0818 65.368 66.177 65.368 65.2448 65.4049C64.3309 65.4234 63.4352 65.4142 62.5579 65.3772C62.3203 65.9681 62.0918 66.605 61.8724 67.2881C61.6714 67.9528 61.4703 68.6452 61.2692 69.3652C59.5876 69.9929 58.1254 70.2145 56.8824 70.0299C55.6395 69.8452 54.6342 69.3652 53.8665 68.5898C53.1171 67.8143 52.6144 66.7896 52.3585 65.5157C52.1209 64.2233 52.1483 62.7925 52.4408 61.2231ZM63.6272 57.4567H66.9995C66.7436 56.3305 66.4786 55.2227 66.2044 54.1334C65.9302 53.0256 65.6652 51.9179 65.4093 50.8101C65.3545 50.8286 65.2722 50.8378 65.1626 50.8378C64.9067 51.9456 64.6508 53.0441 64.3949 54.1334C64.139 55.2042 63.8831 56.312 63.6272 57.4567Z" fill="#C9D691"/>
<path d="M59.7175 58.0937C59.7175 59.3873 58.6689 60.4359 57.3753 60.4359C56.0817 60.4359 55.0331 59.3873 55.0331 58.0937C55.0331 56.8001 56.0817 55.7515 57.3753 55.7515C58.6689 55.7515 59.7175 56.8001 59.7175 58.0937Z" fill="#A0B297"/>
<path d="M71.7769 48.2626C71.7769 49.0235 71.1601 49.6403 70.3991 49.6403C69.6382 49.6403 69.0214 49.0235 69.0214 48.2626C69.0214 47.5016 69.6382 46.8848 70.3991 46.8848C71.1601 46.8848 71.7769 47.5016 71.7769 48.2626Z" fill="#A0B297"/>
<path d="M64.0978 61.417C64.0978 61.9497 63.666 62.3815 63.1334 62.3815C62.6007 62.3815 62.1689 61.9497 62.1689 61.417C62.1689 60.8844 62.6007 60.4526 63.1334 60.4526C63.666 60.4526 64.0978 60.8844 64.0978 61.417Z" fill="#A0B297"/>
<path d="M60.3189 64.6669L60.472 64.8215C61.1392 65.4954 61.6295 66.3237 61.8995 67.2327L61.3274 69.2364C61.2995 69.3341 61.2243 69.4112 61.1274 69.4417L60.6658 69.5868L59.0207 70.0022L58.6118 70.0481C58.064 70.1095 57.5107 70.1034 56.9644 70.0299L56.9185 70.0257C55.2401 69.8731 53.757 68.8712 52.9888 67.3712L52.8723 67.1123C52.4964 66.2769 52.2802 65.3784 52.2349 64.4633L52.3937 64.3136C52.9658 63.7742 53.6525 63.3711 54.4023 63.1344C55.0973 62.915 55.8306 62.8437 56.5548 62.925L56.7735 62.9495C57.5333 63.0348 58.2693 63.2665 58.941 63.6317C59.4483 63.9077 59.9126 64.2564 60.3189 64.6669Z" fill="#A0B297"/>
<path d="M74.2375 52.2778L74.9778 51.5854L75.7455 54.0779L76.7599 57.5397L77.9063 61.9832C77.9273 62.0645 77.9184 62.1507 77.8811 62.2259C77.8313 62.3266 77.7362 62.3972 77.6255 62.4159L76.664 62.5777C76.3301 62.6339 75.9878 62.6144 75.6625 62.5205L75.1639 62.3766C74.5531 62.2003 73.9862 61.8977 73.4998 61.4883L73.4163 61.418C72.8737 60.9613 72.4382 60.3908 72.1408 59.747C71.8073 59.0251 71.657 58.2322 71.7032 57.4383L71.7228 57.1018C71.7541 56.5652 71.8552 56.035 72.0237 55.5245L72.0469 55.4541C72.4047 54.3698 73.0319 53.394 73.8698 52.6183L74.2375 52.2778Z" fill="#A0B297"/>
<path d="M56.5763 48.0306L56.293 47.8468L57.5677 44.5235L58.401 42.6821C58.4288 42.6207 58.4831 42.5752 58.5485 42.5586L60.9906 41.9378C62.0495 41.6686 63.1378 41.5325 64.2303 41.5325L64.4458 42.1565C64.5758 42.5331 64.6614 42.9236 64.7006 43.3201L64.7145 43.4608C64.757 43.8897 64.7331 44.3226 64.6437 44.7443C64.4639 45.5917 64.0261 46.3626 63.3905 46.9512L62.7223 47.5698L62.5743 47.7194C61.9581 48.3417 61.1586 48.7502 60.2932 48.8846C59.9943 48.9311 59.6911 48.9443 59.3893 48.924L59.2272 48.913C58.2828 48.8494 57.3703 48.5457 56.5763 48.0306Z" fill="#A0B297"/>
<path d="M42.9559 50.6072C42.5384 50.4965 42.148 50.4226 41.7849 50.3857C41.4218 50.3488 41.0677 50.3488 40.7228 50.3857C40.396 50.4226 40.0601 50.5057 39.7151 50.6349C39.3702 50.7641 39.0161 50.9487 38.653 51.1887C38.1628 51.5025 37.7634 51.8625 37.4547 52.2686C37.1642 52.6748 36.9373 53.1178 36.7739 53.5978C36.6286 54.0593 36.5469 54.5577 36.5288 55.0931C36.5106 55.6099 36.5379 56.1361 36.6105 56.6714C36.7194 57.4837 36.9555 58.1667 37.3186 58.7205C37.6817 59.2743 38.1265 59.7081 38.653 60.0219C39.1977 60.3173 39.7968 60.5111 40.4504 60.6034C41.1222 60.6957 41.8031 60.6865 42.493 60.5758C42.9469 60.5204 43.428 60.3911 43.9364 60.1881C44.4447 59.985 44.9168 59.7635 45.3525 59.5235C45.8064 59.2835 46.2058 59.0528 46.5508 58.8313C46.9139 58.6097 47.1772 58.4436 47.3406 58.3328C47.976 58.4621 48.5661 58.739 49.1108 59.1635C49.6554 59.5881 50.0912 60.105 50.418 60.7142C50.763 61.3234 50.9808 62.0064 51.0716 62.7633C51.1805 63.5017 51.0988 64.2493 50.8265 65.0062C50.5723 65.7631 50.1184 66.5015 49.4648 67.2214C48.8112 67.9229 47.9034 68.5506 46.7414 69.1044C46.0152 69.4551 45.1891 69.7043 44.2632 69.852C43.3372 70.0182 42.384 70.1012 41.4036 70.1012C40.4414 70.1197 39.4791 70.0736 38.5169 69.9628C37.5546 69.852 36.6831 69.6951 35.9024 69.4921C33.524 68.8644 31.5904 67.7937 30.1016 66.28C28.6128 64.7478 27.5326 62.8002 26.8608 60.4373C26.4069 58.7943 26.1709 57.1606 26.1527 55.5361C26.1346 53.8931 26.3978 52.2502 26.9425 50.6072C27.5598 48.7612 28.4767 47.2198 29.6931 45.9829C30.9096 44.7276 32.3711 43.6662 34.0777 42.7985C35.2216 42.2447 36.4199 41.8386 37.6726 41.5802C38.9254 41.3033 40.2235 41.2017 41.567 41.2756C42.9106 41.3494 44.2904 41.6078 45.7066 42.0509C47.1227 42.4939 48.5661 43.14 50.0367 43.9892C50.3817 45.3184 50.3726 46.4814 50.0095 47.4782C49.6464 48.4566 49.0926 49.2412 48.3482 49.8319C47.6038 50.4226 46.7414 50.7918 45.761 50.9395C44.7806 51.0872 43.8456 50.9764 42.9559 50.6072Z" fill="#C9D691"/>
<path d="M34.0093 52.7947C34.0093 53.9322 33.0872 54.8543 31.9497 54.8543C30.8122 54.8543 29.8901 53.9322 29.8901 52.7947C29.8901 51.6572 30.8122 50.7351 31.9497 50.7351C33.0872 50.7351 34.0093 51.6572 34.0093 52.7947Z" fill="#A0B297"/>
<path d="M36.7269 63.1791C36.7269 63.9374 36.1121 64.5522 35.3537 64.5522C34.5954 64.5522 33.9806 63.9374 33.9806 63.1791C33.9806 62.4207 34.5954 61.8059 35.3537 61.8059C36.1121 61.8059 36.7269 62.4207 36.7269 63.1791Z" fill="#A0B297"/>
<path d="M42.4399 66.6399C42.4399 67.019 42.1325 67.3264 41.7533 67.3264C41.3742 67.3264 41.0668 67.019 41.0668 66.6399C41.0668 66.2607 41.3742 65.9533 41.7533 65.9533C42.1325 65.9533 42.4399 66.2607 42.4399 66.6399Z" fill="#A0B297"/>
<path d="M45.436 43.934C45.436 44.3132 45.1286 44.6206 44.7494 44.6206C44.3703 44.6206 44.0629 44.3132 44.0629 43.934C44.0629 43.5548 44.3703 43.2474 44.7494 43.2474C45.1286 43.2474 45.436 43.5548 45.436 43.934Z" fill="#A0B297"/>
<path d="M44.6227 60.2429L44.7496 59.8558L46.2475 59.0251L47.3221 58.3149C47.3315 58.3087 47.343 58.3069 47.3539 58.3099L47.5875 58.3752C48.1416 58.5301 48.6612 58.7889 49.1187 59.1378C49.3825 59.3389 49.6234 59.5684 49.8372 59.822L49.8735 59.865C50.178 60.2263 50.4304 60.6285 50.6232 61.0598L50.7045 61.2416C50.9093 61.6998 51.0465 62.1853 51.1118 62.6829C51.2259 63.5529 51.1172 64.4376 50.796 65.2542L50.7411 65.3938C50.1181 66.6606 49.1522 67.7271 47.9532 68.4722L47.8603 68.5298C47.5119 68.7464 47.1471 68.9355 46.7693 69.0956L46.3564 69.2705C46.0134 69.087 45.7002 68.8525 45.4275 68.5752L45.34 68.4863C44.9496 68.0893 44.6319 67.6227 44.4047 67.1143C44.1833 66.6191 44.0479 66.0865 44.0069 65.5456L43.9326 64.5631C43.9326 63.0956 44.1655 61.6374 44.6227 60.2429Z" fill="#A0B297"/>
<path d="M32.2219 48.5029H31.9495C30.6949 48.5029 29.4567 48.2189 28.3275 47.6722C29.0114 46.5742 29.8945 45.6139 30.9315 44.8408L31.4049 44.4878L31.8061 44.1887C32.8951 43.3767 34.0913 42.7193 35.3605 42.2354C36.2617 41.8918 37.1944 41.6376 38.1452 41.4764L39.1665 41.3034L40.9367 41.248C40.9367 41.4688 40.9121 41.689 40.8632 41.9043L40.7908 42.2234C40.6175 42.9869 40.2936 43.7081 39.8382 44.3449L39.7436 44.4772C39.5407 44.7607 39.3161 45.028 39.0717 45.2765L38.0772 46.2876L37.3455 46.9572C36.9279 47.3393 36.4549 47.656 35.9424 47.8965C35.284 48.2055 34.5717 48.3834 33.8453 48.4203L32.2219 48.5029Z" fill="#A0B297"/>
<path d="M26.8182 58.2911L26.353 58.0561L26.499 58.8746C26.6648 59.8039 26.9139 60.7163 27.2436 61.6008L27.2654 61.6594C27.5735 62.4861 27.9539 63.2841 28.4023 64.0439L28.598 64.3755C28.835 64.7771 29.1007 65.1611 29.3931 65.5243C29.9152 66.1732 30.519 66.7519 31.1893 67.2461L31.2688 67.3047L31.6609 65.9293C31.7621 65.5742 31.8135 65.2067 31.8135 64.8374C31.8135 64.1146 31.6168 63.4053 31.2444 62.7857L30.6591 61.812C30.4305 61.4316 30.171 61.0708 29.8831 60.7331L29.8008 60.6364C28.9722 59.6644 27.9583 58.8671 26.8182 58.2911Z" fill="#A0B297"/>
<path d="M0.242032 61.1325C0.424816 60.2094 0.653296 59.1847 0.927473 58.0584C1.21993 56.9322 1.5398 55.7783 1.88709 54.5967C2.23438 53.4151 2.59995 52.2334 2.9838 51.0518C3.36764 49.8517 3.75149 48.7163 4.13534 47.6454C4.53746 46.5746 4.91217 45.5961 5.25946 44.7098C5.62503 43.8236 5.95404 43.0943 6.2465 42.522C6.86796 42.3189 7.5991 42.1158 8.43991 41.9127C9.28072 41.7096 10.1672 41.5712 11.0994 41.4973C12.0499 41.405 13.0187 41.4142 14.0057 41.525C14.9927 41.6358 15.9341 41.9035 16.8297 42.3281C17.7436 42.7343 18.5844 43.3344 19.3521 44.1283C20.1198 44.9222 20.7687 45.9561 21.2988 47.23C21.5364 47.8393 21.8106 48.6055 22.1213 49.5286C22.4503 50.4333 22.7793 51.4395 23.1084 52.5473C23.4556 53.6551 23.8029 54.8182 24.1502 56.0368C24.4975 57.2553 24.8265 58.4739 25.1373 59.6924C25.4663 60.9109 25.7587 62.1018 26.0146 63.265C26.2888 64.4096 26.5081 65.4713 26.6727 66.4498C26.5995 66.9483 26.3345 67.4468 25.8775 67.9453C25.4206 68.4253 24.8448 68.8407 24.1502 69.1915C23.4739 69.5238 22.7154 69.7454 21.8746 69.8562C21.052 69.9669 20.2478 69.8931 19.4618 69.6346C18.6758 69.3946 17.9538 68.933 17.2958 68.2499C16.6378 67.5483 16.126 66.5698 15.7604 65.3143C14.8831 65.2774 13.9783 65.2774 13.0461 65.3143C12.1322 65.3328 11.2365 65.3236 10.3591 65.2866C10.1215 65.8774 9.89305 66.5144 9.67371 67.1975C9.47264 67.8622 9.27158 68.5545 9.07052 69.2746C7.3889 69.9023 5.92663 70.1239 4.68369 69.9393C3.44076 69.7546 2.43544 69.2746 1.66775 68.4992C0.918334 67.7237 0.415677 66.699 0.159779 65.4251C-0.0778409 64.1327 -0.0504233 62.7018 0.242032 61.1325ZM11.4284 57.3661H14.8008C14.5449 56.2399 14.2799 55.1321 14.0057 54.0428C13.7315 52.935 13.4665 51.8272 13.2106 50.7195C13.1557 50.7379 13.0735 50.7472 12.9638 50.7472C12.7079 51.8549 12.452 52.9535 12.1961 54.0428C11.9402 55.1136 11.6843 56.2214 11.4284 57.3661Z" fill="#C9D691"/>
<path d="M7.51978 58.0026C7.51978 59.2962 6.47113 60.3448 5.17755 60.3448C3.88398 60.3448 2.83533 59.2962 2.83533 58.0026C2.83533 56.709 3.88398 55.6604 5.17755 55.6604C6.47113 55.6604 7.51978 56.709 7.51978 58.0026Z" fill="#A0B297"/>
<path d="M19.5782 48.1717C19.5782 48.9326 18.9613 49.5495 18.2004 49.5495C17.4395 49.5495 16.8226 48.9326 16.8226 48.1717C16.8226 47.4108 17.4395 46.7939 18.2004 46.7939C18.9613 46.7939 19.5782 47.4108 19.5782 48.1717Z" fill="#A0B297"/>
<path d="M11.8996 61.3264C11.8996 61.859 11.4678 62.2908 10.9351 62.2908C10.4025 62.2908 9.9707 61.859 9.9707 61.3264C9.9707 60.7937 10.4025 60.3619 10.9351 60.3619C11.4678 60.3619 11.8996 60.7937 11.8996 61.3264Z" fill="#A0B297"/>
<path d="M8.12068 64.5762L8.27375 64.7309C8.94093 65.4048 9.4313 66.233 9.70129 67.1421L9.12914 69.1457C9.10124 69.2434 9.0261 69.3206 8.92916 69.351L8.46755 69.4961L6.82244 69.9115L6.41353 69.9574C5.86572 70.0189 5.31243 70.0128 4.76611 69.9392L4.72023 69.935C3.04187 69.7824 1.55872 68.7806 0.790553 67.2806L0.674067 67.0217C0.298123 66.1862 0.0819167 65.2877 0.0366211 64.3727L0.195409 64.223C0.767552 63.6835 1.45422 63.2804 2.20408 63.0437C2.89907 62.8244 3.63232 62.753 4.35658 62.8343L4.57527 62.8588C5.33504 62.9441 6.07109 63.1758 6.74272 63.5411C7.25009 63.817 7.71433 64.1658 8.12068 64.5762Z" fill="#A0B297"/>
<path d="M22.0392 52.1872L22.7795 51.4948L23.5472 53.9873L24.5617 57.449L25.7081 61.8925C25.7291 61.9738 25.7201 62.06 25.6829 62.1353C25.633 62.2359 25.538 62.3066 25.4272 62.3252L24.4657 62.4871C24.1318 62.5433 23.7896 62.5237 23.4643 62.4298L22.9657 62.286C22.3549 62.1097 21.7879 61.807 21.3015 61.3976L21.218 61.3273C20.6754 60.8706 20.24 60.3001 19.9426 59.6563C19.6091 58.9345 19.4588 58.1415 19.505 57.3477L19.5246 57.0112C19.5558 56.4746 19.657 55.9443 19.8254 55.4338L19.8487 55.3634C20.2065 54.2791 20.8337 53.3034 21.6715 52.5276L22.0392 52.1872Z" fill="#A0B297"/>
<path d="M4.37756 47.9399L4.09424 47.7561L5.36894 44.4328L6.20228 42.5915C6.23011 42.53 6.28439 42.4845 6.3498 42.4679L8.79191 41.8471C9.85076 41.578 10.939 41.4418 12.0315 41.4418L12.247 42.0658C12.3771 42.4424 12.4626 42.833 12.5019 43.2295L12.5158 43.3702C12.5583 43.7991 12.5344 44.232 12.4449 44.6536C12.2651 45.501 11.8274 46.272 11.1917 46.8605L10.5236 47.4792L10.3755 47.6287C9.75936 48.2511 8.95987 48.6595 8.09446 48.794C7.79555 48.8404 7.49242 48.8536 7.19061 48.8333L7.02844 48.8224C6.08408 48.7588 5.17161 48.455 4.37756 47.9399Z" fill="#A0B297"/>
</svg>
